<ttFont>
    <TTGlyph name="A" xMin="3" yMin="-45" xMax="498" yMax="692">
      <contour>
        <pt x="353" y="10" on="1"/>
        <pt x="330" y="149" on="1"/>
        <pt x="181" y="143" on="1"/>
        <pt x="143" y="-45" on="1"/>
        <pt x="3" y="-33" on="1"/>
        <pt x="182" y="692" on="1"/>
        <pt x="367" y="676" on="1"/>
        <pt x="498" y="-2" on="1"/>
      </contour>
      <contour>
        <pt x="265" y="561" on="1"/>
        <pt x="202" y="250" on="1"/>
        <pt x="314" y="254" on="1"/>
      </contour>
    </TTGlyph>
    <TTGlyph name="AE" xMin="3" yMin="-45" xMax="678" yMax="691">
      <contour>
        <pt x="669" y="688" on="1"/>
        <pt x="669" y="565" on="1"/>
        <pt x="556" y="565" on="0"/>
        <pt x="459" y="558" on="1"/>
        <pt x="455" y="446" on="0"/>
        <pt x="454" y="386" on="1"/>
        <pt x="530" y="397" on="0"/>
        <pt x="634" y="399" on="1"/>
        <pt x="653" y="289" on="1"/>
        <pt x="586" y="288" on="0"/>
        <pt x="452" y="274" on="1"/>
        <pt x="452" y="154" on="0"/>
        <pt x="453" y="101" on="1"/>
        <pt x="540" y="108" on="0"/>
        <pt x="661" y="131" on="1"/>
        <pt x="678" y="21" on="1"/>
        <pt x="593" y="-18" on="0"/>
        <pt x="477" y="-18" on="1"/>
        <pt x="323" y="-4" on="1"/>
        <pt x="321" y="48" on="0"/>
        <pt x="319" y="148" on="1"/>
        <pt x="202" y="143" on="1"/>
        <pt x="143" y="-45" on="1"/>
        <pt x="3" y="-33" on="1"/>
        <pt x="232" y="691" on="1"/>
        <pt x="427" y="674" on="1"/>
        <pt x="549" y="688" on="0"/>
      </contour>
      <contour>
        <pt x="325" y="561" on="1"/>
        <pt x="230" y="250" on="1"/>
        <pt x="319" y="254" on="1"/>
        <pt x="319" y="385" on="0"/>
        <pt x="327" y="539" on="1"/>
      </contour>
    </TTGlyph>
    <TTGlyph name="Aacute" xMin="3" yMin="-45" xMax="498" yMax="928">
      <contour>
        <pt x="353" y="10" on="1"/>
        <pt x="330" y="149" on="1"/>
        <pt x="181" y="143" on="1"/>
        <pt x="143" y="-45" on="1"/>
        <pt x="3" y="-33" on="1"/>
        <pt x="182" y="692" on="1"/>
        <pt x="367" y="676" on="1"/>
        <pt x="498" y="-2" on="1"/>
      </contour>
      <contour>
        <pt x="265" y="561" on="1"/>
        <pt x="202" y="250" on="1"/>
        <pt x="314" y="254" on="1"/>
      </contour>
      <contour>
        <pt x="244" y="766" on="1"/>
        <pt x="199" y="823" on="1"/>
        <pt x="312" y="897" on="0"/>
        <pt x="383" y="928" on="1"/>
        <pt x="437" y="839" on="1"/>
        <pt x="342" y="816" on="0"/>
      </contour>
    </TTGlyph>
    <TTGlyph name="Acircumflex" xMin="3" yMin="-45" xMax="498" yMax="923">
      <contour>
        <pt x="353" y="10" on="1"/>
        <pt x="330" y="149" on="1"/>
        <pt x="181" y="143" on="1"/>
        <pt x="143" y="-45" on="1"/>
        <pt x="3" y="-33" on="1"/>
        <pt x="182" y="692" on="1"/>
        <pt x="367" y="676" on="1"/>
        <pt x="498" y="-2" on="1"/>
      </contour>
      <contour>
        <pt x="265" y="561" on="1"/>
        <pt x="202" y="250" on="1"/>
        <pt x="314" y="254" on="1"/>
      </contour>
      <contour>
        <pt x="237" y="923" on="1"/>
        <pt x="305" y="918" on="1"/>
        <pt x="336" y="888" on="0"/>
        <pt x="406" y="803" on="1"/>
        <pt x="348" y="759" on="1"/>
        <pt x="296" y="805" on="0"/>
        <pt x="267" y="829" on="1"/>
        <pt x="217" y="794" on="0"/>
        <pt x="167" y="750" on="1"/>
        <pt x="109" y="793" on="1"/>
        <pt x="181" y="874" on="0"/>
      </contour>
    </TTGlyph>
    <TTGlyph name="Adieresis" xMin="3" yMin="-45" xMax="498" yMax="910">
      <contour>
        <pt x="353" y="10" on="1"/>
        <pt x="330" y="149" on="1"/>
        <pt x="181" y="143" on="1"/>
        <pt x="143" y="-45" on="1"/>
        <pt x="3" y="-33" on="1"/>
        <pt x="182" y="692" on="1"/>
        <pt x="367" y="676" on="1"/>
        <pt x="498" y="-2" on="1"/>
      </contour>
      <contour>
        <pt x="265" y="561" on="1"/>
        <pt x="202" y="250" on="1"/>
        <pt x="314" y="254" on="1"/>
      </contour>
      <contour>
        <pt x="227" y="900" on="1"/>
        <pt x="238" y="884" on="0"/>
        <pt x="238" y="800" on="0"/>
        <pt x="224" y="778" on="1"/>
        <pt x="129" y="788" on="1"/>
        <pt x="138" y="838" on="0"/>
        <pt x="138" y="890" on="0"/>
        <pt x="137" y="908" on="1"/>
      </contour>
      <contour>
        <pt x="382" y="902" on="1"/>
        <pt x="393" y="886" on="0"/>
        <pt x="393" y="802" on="0"/>
        <pt x="379" y="780" on="1"/>
        <pt x="284" y="790" on="1"/>
        <pt x="293" y="840" on="0"/>
        <pt x="293" y="892" on="0"/>
        <pt x="292" y="910" on="1"/>
      </contour>
    </TTGlyph>
    <TTGlyph name="Agrave" xMin="3" yMin="-45" xMax="498" yMax="928">
      <contour>
        <pt x="353" y="10" on="1"/>
        <pt x="330" y="149" on="1"/>
        <pt x="181" y="143" on="1"/>
        <pt x="143" y="-45" on="1"/>
        <pt x="3" y="-33" on="1"/>
        <pt x="182" y="692" on="1"/>
        <pt x="367" y="676" on="1"/>
        <pt x="498" y="-2" on="1"/>
      </contour>
      <contour>
        <pt x="265" y="561" on="1"/>
        <pt x="202" y="250" on="1"/>
        <pt x="314" y="254" on="1"/>
      </contour>
      <contour>
        <pt x="337" y="823" on="1"/>
        <pt x="292" y="766" on="1"/>
        <pt x="194" y="816" on="0"/>
        <pt x="99" y="839" on="1"/>
        <pt x="153" y="928" on="1"/>
        <pt x="224" y="897" on="0"/>
      </contour>
    </TTGlyph>
    <TTGlyph name="Aring" xMin="3" yMin="-45" xMax="498" yMax="943">
      <contour>
        <pt x="353" y="10" on="1"/>
        <pt x="330" y="149" on="1"/>
        <pt x="181" y="143" on="1"/>
        <pt x="143" y="-45" on="1"/>
        <pt x="3" y="-33" on="1"/>
        <pt x="182" y="692" on="1"/>
        <pt x="367" y="676" on="1"/>
        <pt x="498" y="-2" on="1"/>
      </contour>
      <contour>
        <pt x="265" y="561" on="1"/>
        <pt x="202" y="250" on="1"/>
        <pt x="314" y="254" on="1"/>
      </contour>
      <contour>
        <pt x="233" y="806" on="0"/>
        <pt x="255" y="783" on="0"/>
        <pt x="296" y="783" on="0"/>
        <pt x="325" y="822" on="0"/>
        <pt x="325" y="866" on="0"/>
        <pt x="303" y="888" on="0"/>
        <pt x="262" y="888" on="0"/>
        <pt x="233" y="850" on="0"/>
      </contour>
      <contour>
        <pt x="395" y="802" on="0"/>
        <pt x="325" y="728" on="0"/>
        <pt x="224" y="728" on="0"/>
        <pt x="163" y="781" on="0"/>
        <pt x="163" y="869" on="0"/>
        <pt x="233" y="943" on="0"/>
        <pt x="334" y="943" on="0"/>
        <pt x="395" y="890" on="0"/>
      </contour>
    </TTGlyph>
    <TTGlyph name="Atilde" xMin="3" yMin="-45" xMax="498" yMax="902">
      <contour>
        <pt x="353" y="10" on="1"/>
        <pt x="330" y="149" on="1"/>
        <pt x="181" y="143" on="1"/>
        <pt x="143" y="-45" on="1"/>
        <pt x="3" y="-33" on="1"/>
        <pt x="182" y="692" on="1"/>
        <pt x="367" y="676" on="1"/>
        <pt x="498" y="-2" on="1"/>
      </contour>
      <contour>
        <pt x="265" y="561" on="1"/>
        <pt x="202" y="250" on="1"/>
        <pt x="314" y="254" on="1"/>
      </contour>
      <contour>
        <pt x="416" y="857" on="0"/>
        <pt x="358" y="786" on="0"/>
        <pt x="299" y="786" on="0"/>
        <pt x="243" y="804" on="0"/>
        <pt x="202" y="804" on="0"/>
        <pt x="179" y="781" on="1"/>
        <pt x="119" y="813" on="1"/>
        <pt x="159" y="898" on="0"/>
        <pt x="212" y="898" on="1"/>
        <pt x="232" y="898" on="0"/>
        <pt x="292" y="870" on="0"/>
        <pt x="307" y="870" on="1"/>
        <pt x="335" y="870" on="0"/>
        <pt x="359" y="902" on="1"/>
        <pt x="419" y="897" on="1"/>
      </contour>
    </TTGlyph>
    <TTGlyph name="B" xMin="69" yMin="-15" xMax="511" yMax="701">
      <contour>
        <pt x="73" y="665" on="1"/>
        <pt x="190" y="701" on="0"/>
        <pt x="379" y="701" on="0"/>
        <pt x="511" y="600" on="0"/>
        <pt x="511" y="526" on="1"/>
        <pt x="511" y="415" on="0"/>
        <pt x="387" y="350" on="1"/>
        <pt x="503" y="303" on="0"/>
        <pt x="503" y="193" on="1"/>
        <pt x="503" y="112" on="0"/>
        <pt x="333" y="-15" on="0"/>
        <pt x="240" y="-15" on="1"/>
        <pt x="228" y="-15" on="0"/>
        <pt x="69" y="-1" on="1"/>
        <pt x="83" y="214" on="0"/>
        <pt x="83" y="508" on="0"/>
      </contour>
      <contour>
        <pt x="376" y="542" on="0"/>
        <pt x="317" y="583" on="0"/>
        <pt x="250" y="583" on="0"/>
        <pt x="212" y="571" on="1"/>
        <pt x="216" y="451" on="0"/>
        <pt x="216" y="390" on="1"/>
        <pt x="262" y="394" on="0"/>
        <pt x="376" y="469" on="0"/>
        <pt x="376" y="512" on="1"/>
      </contour>
      <contour>
        <pt x="295" y="107" on="0"/>
        <pt x="369" y="160" on="0"/>
        <pt x="369" y="229" on="0"/>
        <pt x="283" y="281" on="0"/>
        <pt x="215" y="287" on="1"/>
        <pt x="213" y="169" on="0"/>
        <pt x="211" y="110" on="1"/>
        <pt x="229" y="107" on="0"/>
      </contour>
    </TTGlyph>
    <TTGlyph name="C" xMin="26" yMin="-30" xMax="472" yMax="703">
      <contour>
        <pt x="269" y="575" on="1"/>
        <pt x="225" y="575" on="0"/>
        <pt x="159" y="358" on="0"/>
        <pt x="159" y="274" on="1"/>
        <pt x="159" y="98" on="0"/>
        <pt x="251" y="98" on="1"/>
        <pt x="277" y="98" on="0"/>
        <pt x="316" y="143" on="0"/>
        <pt x="333" y="191" on="0"/>
        <pt x="345" y="233" on="1"/>
        <pt x="472" y="223" on="1"/>
        <pt x="446" y="100" on="0"/>
        <pt x="343" y="-30" on="0"/>
        <pt x="251" y="-30" on="1"/>
        <pt x="143" y="-30" on="0"/>
        <pt x="26" y="133" on="0"/>
        <pt x="26" y="259" on="1"/>
        <pt x="26" y="406" on="0"/>
        <pt x="84" y="545" on="1"/>
        <pt x="112" y="614" on="0"/>
        <pt x="213" y="703" on="0"/>
        <pt x="278" y="703" on="1"/>
        <pt x="358" y="703" on="0"/>
        <pt x="394" y="650" on="1"/>
        <pt x="412" y="624" on="0"/>
        <pt x="435" y="570" on="0"/>
        <pt x="440" y="528" on="1"/>
        <pt x="449" y="461" on="0"/>
        <pt x="451" y="384" on="1"/>
        <pt x="322" y="396" on="1"/>
        <pt x="322" y="525" on="0"/>
        <pt x="298" y="558" on="1"/>
        <pt x="287" y="575" on="0"/>
      </contour>
    </TTGlyph>
    <TTGlyph name="Cacute" xMin="26" yMin="-30" xMax="472" yMax="928">
      <contour>
        <pt x="269" y="575" on="1"/>
        <pt x="225" y="575" on="0"/>
        <pt x="159" y="358" on="0"/>
        <pt x="159" y="274" on="1"/>
        <pt x="159" y="98" on="0"/>
        <pt x="251" y="98" on="1"/>
        <pt x="277" y="98" on="0"/>
        <pt x="316" y="143" on="0"/>
        <pt x="333" y="191" on="0"/>
        <pt x="345" y="233" on="1"/>
        <pt x="472" y="223" on="1"/>
        <pt x="446" y="100" on="0"/>
        <pt x="343" y="-30" on="0"/>
        <pt x="251" y="-30" on="1"/>
        <pt x="143" y="-30" on="0"/>
        <pt x="26" y="133" on="0"/>
        <pt x="26" y="259" on="1"/>
        <pt x="26" y="406" on="0"/>
        <pt x="84" y="545" on="1"/>
        <pt x="112" y="614" on="0"/>
        <pt x="213" y="703" on="0"/>
        <pt x="278" y="703" on="1"/>
        <pt x="358" y="703" on="0"/>
        <pt x="394" y="650" on="1"/>
        <pt x="412" y="624" on="0"/>
        <pt x="435" y="570" on="0"/>
        <pt x="440" y="528" on="1"/>
        <pt x="449" y="461" on="0"/>
        <pt x="451" y="384" on="1"/>
        <pt x="322" y="396" on="1"/>
        <pt x="322" y="525" on="0"/>
        <pt x="298" y="558" on="1"/>
        <pt x="287" y="575" on="0"/>
      </contour>
      <contour>
        <pt x="255" y="766" on="1"/>
        <pt x="210" y="823" on="1"/>
        <pt x="323" y="897" on="0"/>
        <pt x="394" y="928" on="1"/>
        <pt x="448" y="839" on="1"/>
        <pt x="353" y="816" on="0"/>
      </contour>
    </TTGlyph>
    <TTGlyph name="Ccaron" xMin="26" yMin="-30" xMax="472" yMax="943">
      <contour>
        <pt x="269" y="575" on="1"/>
        <pt x="225" y="575" on="0"/>
        <pt x="159" y="358" on="0"/>
        <pt x="159" y="274" on="1"/>
        <pt x="159" y="98" on="0"/>
        <pt x="251" y="98" on="1"/>
        <pt x="277" y="98" on="0"/>
        <pt x="316" y="143" on="0"/>
        <pt x="333" y="191" on="0"/>
        <pt x="345" y="233" on="1"/>
        <pt x="472" y="223" on="1"/>
        <pt x="446" y="100" on="0"/>
        <pt x="343" y="-30" on="0"/>
        <pt x="251" y="-30" on="1"/>
        <pt x="143" y="-30" on="0"/>
        <pt x="26" y="133" on="0"/>
        <pt x="26" y="259" on="1"/>
        <pt x="26" y="406" on="0"/>
        <pt x="84" y="545" on="1"/>
        <pt x="112" y="614" on="0"/>
        <pt x="213" y="703" on="0"/>
        <pt x="278" y="703" on="1"/>
        <pt x="358" y="703" on="0"/>
        <pt x="394" y="650" on="1"/>
        <pt x="412" y="624" on="0"/>
        <pt x="435" y="570" on="0"/>
        <pt x="440" y="528" on="1"/>
        <pt x="449" y="461" on="0"/>
        <pt x="451" y="384" on="1"/>
        <pt x="322" y="396" on="1"/>
        <pt x="322" y="525" on="0"/>
        <pt x="298" y="558" on="1"/>
        <pt x="287" y="575" on="0"/>
      </contour>
      <contour>
        <pt x="301" y="770" on="1"/>
        <pt x="233" y="775" on="1"/>
        <pt x="202" y="805" on="0"/>
        <pt x="132" y="890" on="1"/>
        <pt x="190" y="934" on="1"/>
        <pt x="242" y="888" on="0"/>
        <pt x="271" y="864" on="1"/>
        <pt x="321" y="899" on="0"/>
        <pt x="371" y="943" on="1"/>
        <pt x="429" y="900" on="1"/>
        <pt x="357" y="819" on="0"/>
      </contour>
    </TTGlyph>
    <TTGlyph name="Ccedilla" xMin="26" yMin="-232" xMax="472" yMax="703">
      <contour>
        <pt x="269" y="575" on="1"/>
        <pt x="225" y="575" on="0"/>
        <pt x="159" y="358" on="0"/>
        <pt x="159" y="274" on="1"/>
        <pt x="159" y="98" on="0"/>
        <pt x="251" y="98" on="1"/>
        <pt x="277" y="98" on="0"/>
        <pt x="316" y="143" on="0"/>
        <pt x="333" y="191" on="0"/>
        <pt x="345" y="233" on="1"/>
        <pt x="472" y="223" on="1"/>
        <pt x="446" y="102" on="0"/>
        <pt x="346" y="-27" on="0"/>
        <pt x="257" y="-30" on="1"/>
        <pt x="259" y="-48" on="0"/>
        <pt x="265" y="-65" on="1"/>
        <pt x="277" y="-62" on="0"/>
        <pt x="288" y="-62" on="1"/>
        <pt x="322" y="-62" on="0"/>
        <pt x="373" y="-104" on="0"/>
        <pt x="373" y="-185" on="0"/>
        <pt x="307" y="-232" on="0"/>
        <pt x="169" y="-232" on="0"/>
        <pt x="112" y="-189" on="1"/>
        <pt x="130" y="-144" on="1"/>
        <pt x="199" y="-181" on="0"/>
        <pt x="245" y="-181" on="1"/>
        <pt x="262" y="-181" on="0"/>
        <pt x="287" y="-166" on="0"/>
        <pt x="287" y="-141" on="0"/>
        <pt x="267" y="-125" on="0"/>
        <pt x="238" y="-125" on="0"/>
        <pt x="224" y="-132" on="1"/>
        <pt x="196" y="-129" on="1"/>
        <pt x="197" y="-71" on="0"/>
        <pt x="213" y="-27" on="1"/>
        <pt x="122" y="-13" on="0"/>
        <pt x="26" y="145" on="0"/>
        <pt x="26" y="259" on="1"/>
        <pt x="26" y="406" on="0"/>
        <pt x="84" y="545" on="1"/>
        <pt x="112" y="614" on="0"/>
        <pt x="213" y="703" on="0"/>
        <pt x="278" y="703" on="1"/>
        <pt x="358" y="703" on="0"/>
        <pt x="394" y="650" on="1"/>
        <pt x="412" y="624" on="0"/>
        <pt x="435" y="570" on="0"/>
        <pt x="440" y="528" on="1"/>
        <pt x="449" y="461" on="0"/>
        <pt x="451" y="384" on="1"/>
        <pt x="322" y="396" on="1"/>
        <pt x="322" y="525" on="0"/>
        <pt x="298" y="558" on="1"/>
        <pt x="287" y="575" on="0"/>
      </contour>
    </TTGlyph>
    <TTGlyph name="D" xMin="55" yMin="-15" xMax="482" yMax="701">
      <contour>
        <pt x="238" y="701" on="1"/>
        <pt x="355" y="701" on="0"/>
        <pt x="482" y="517" on="0"/>
        <pt x="482" y="386" on="1"/>
        <pt x="482" y="285" on="0"/>
        <pt x="418" y="106" on="0"/>
        <pt x="282" y="-15" on="0"/>
        <pt x="191" y="-15" on="1"/>
        <pt x="173" y="-15" on="0"/>
        <pt x="55" y="-1" on="1"/>
        <pt x="69" y="214" on="0"/>
        <pt x="69" y="496" on="0"/>
        <pt x="60" y="667" on="1"/>
        <pt x="157" y="701" on="0"/>
      </contour>
      <contour>
        <pt x="262" y="107" on="0"/>
        <pt x="353" y="270" on="0"/>
        <pt x="353" y="459" on="0"/>
        <pt x="288" y="581" on="0"/>
        <pt x="243" y="581" on="1"/>
        <pt x="219" y="581" on="0"/>
        <pt x="198" y="573" on="1"/>
        <pt x="202" y="425" on="0"/>
        <pt x="202" y="224" on="0"/>
        <pt x="196" y="115" on="1"/>
        <pt x="203" y="107" on="0"/>
        <pt x="216" y="107" on="1"/>
      </contour>
    </TTGlyph>
    <TTGlyph name="E" xMin="71" yMin="-18" xMax="430" yMax="688">
      <contour>
        <pt x="75" y="-4" on="1"/>
        <pt x="71" y="154" on="0"/>
        <pt x="71" y="436" on="0"/>
        <pt x="87" y="662" on="1"/>
        <pt x="258" y="688" on="0"/>
        <pt x="421" y="688" on="1"/>
        <pt x="421" y="565" on="1"/>
        <pt x="308" y="565" on="0"/>
        <pt x="211" y="558" on="1"/>
        <pt x="207" y="446" on="0"/>
        <pt x="206" y="386" on="1"/>
        <pt x="282" y="397" on="0"/>
        <pt x="386" y="399" on="1"/>
        <pt x="405" y="289" on="1"/>
        <pt x="338" y="288" on="0"/>
        <pt x="204" y="274" on="1"/>
        <pt x="204" y="154" on="0"/>
        <pt x="205" y="101" on="1"/>
        <pt x="292" y="108" on="0"/>
        <pt x="413" y="131" on="1"/>
        <pt x="430" y="21" on="1"/>
        <pt x="345" y="-18" on="0"/>
        <pt x="229" y="-18" on="1"/>
      </contour>
    </TTGlyph>
    <TTGlyph name="Eacute" xMin="71" yMin="-18" xMax="430" yMax="928">
      <contour>
        <pt x="75" y="-4" on="1"/>
        <pt x="71" y="154" on="0"/>
        <pt x="71" y="436" on="0"/>
        <pt x="87" y="662" on="1"/>
        <pt x="258" y="688" on="0"/>
        <pt x="421" y="688" on="1"/>
        <pt x="421" y="565" on="1"/>
        <pt x="308" y="565" on="0"/>
        <pt x="211" y="558" on="1"/>
        <pt x="207" y="446" on="0"/>
        <pt x="206" y="386" on="1"/>
        <pt x="282" y="397" on="0"/>
        <pt x="386" y="399" on="1"/>
        <pt x="405" y="289" on="1"/>
        <pt x="338" y="288" on="0"/>
        <pt x="204" y="274" on="1"/>
        <pt x="204" y="154" on="0"/>
        <pt x="205" y="101" on="1"/>
        <pt x="292" y="108" on="0"/>
        <pt x="413" y="131" on="1"/>
        <pt x="430" y="21" on="1"/>
        <pt x="345" y="-18" on="0"/>
        <pt x="229" y="-18" on="1"/>
      </contour>
      <contour>
        <pt x="216" y="766" on="1"/>
        <pt x="171" y="823" on="1"/>
        <pt x="284" y="897" on="0"/>
        <pt x="355" y="928" on="1"/>
        <pt x="409" y="839" on="1"/>
        <pt x="314" y="816" on="0"/>
      </contour>
    </TTGlyph>
    <TTGlyph name="Ecircumflex" xMin="71" yMin="-18" xMax="430" yMax="923">
      <contour>
        <pt x="75" y="-4" on="1"/>
        <pt x="71" y="154" on="0"/>
        <pt x="71" y="436" on="0"/>
        <pt x="87" y="662" on="1"/>
        <pt x="258" y="688" on="0"/>
        <pt x="421" y="688" on="1"/>
        <pt x="421" y="565" on="1"/>
        <pt x="308" y="565" on="0"/>
        <pt x="211" y="558" on="1"/>
        <pt x="207" y="446" on="0"/>
        <pt x="206" y="386" on="1"/>
        <pt x="282" y="397" on="0"/>
        <pt x="386" y="399" on="1"/>
        <pt x="405" y="289" on="1"/>
        <pt x="338" y="288" on="0"/>
        <pt x="204" y="274" on="1"/>
        <pt x="204" y="154" on="0"/>
        <pt x="205" y="101" on="1"/>
        <pt x="292" y="108" on="0"/>
        <pt x="413" y="131" on="1"/>
        <pt x="430" y="21" on="1"/>
        <pt x="345" y="-18" on="0"/>
        <pt x="229" y="-18" on="1"/>
      </contour>
      <contour>
        <pt x="239" y="923" on="1"/>
        <pt x="307" y="918" on="1"/>
        <pt x="338" y="888" on="0"/>
        <pt x="408" y="803" on="1"/>
        <pt x="350" y="759" on="1"/>
        <pt x="298" y="805" on="0"/>
        <pt x="269" y="829" on="1"/>
        <pt x="219" y="794" on="0"/>
        <pt x="169" y="750" on="1"/>
        <pt x="111" y="793" on="1"/>
        <pt x="183" y="874" on="0"/>
      </contour>
    </TTGlyph>
    <TTGlyph name="Edieresis" xMin="71" yMin="-18" xMax="430" yMax="910">
      <contour>
        <pt x="75" y="-4" on="1"/>
        <pt x="71" y="154" on="0"/>
        <pt x="71" y="436" on="0"/>
        <pt x="87" y="662" on="1"/>
        <pt x="258" y="688" on="0"/>
        <pt x="421" y="688" on="1"/>
        <pt x="421" y="565" on="1"/>
        <pt x="308" y="565" on="0"/>
        <pt x="211" y="558" on="1"/>
        <pt x="207" y="446" on="0"/>
        <pt x="206" y="386" on="1"/>
        <pt x="282" y="397" on="0"/>
        <pt x="386" y="399" on="1"/>
        <pt x="405" y="289" on="1"/>
        <pt x="338" y="288" on="0"/>
        <pt x="204" y="274" on="1"/>
        <pt x="204" y="154" on="0"/>
        <pt x="205" y="101" on="1"/>
        <pt x="292" y="108" on="0"/>
        <pt x="413" y="131" on="1"/>
        <pt x="430" y="21" on="1"/>
        <pt x="345" y="-18" on="0"/>
        <pt x="229" y="-18" on="1"/>
      </contour>
      <contour>
        <pt x="229" y="900" on="1"/>
        <pt x="240" y="884" on="0"/>
        <pt x="240" y="800" on="0"/>
        <pt x="226" y="778" on="1"/>
        <pt x="131" y="788" on="1"/>
        <pt x="140" y="838" on="0"/>
        <pt x="140" y="890" on="0"/>
        <pt x="139" y="908" on="1"/>
      </contour>
      <contour>
        <pt x="384" y="902" on="1"/>
        <pt x="395" y="886" on="0"/>
        <pt x="395" y="802" on="0"/>
        <pt x="381" y="780" on="1"/>
        <pt x="286" y="790" on="1"/>
        <pt x="295" y="840" on="0"/>
        <pt x="295" y="892" on="0"/>
        <pt x="294" y="910" on="1"/>
      </contour>
    </TTGlyph>
    <TTGlyph name="Egrave" xMin="71" yMin="-18" xMax="430" yMax="928">
      <contour>
        <pt x="75" y="-4" on="1"/>
        <pt x="71" y="154" on="0"/>
        <pt x="71" y="436" on="0"/>
        <pt x="87" y="662" on="1"/>
        <pt x="258" y="688" on="0"/>
        <pt x="421" y="688" on="1"/>
        <pt x="421" y="565" on="1"/>
        <pt x="308" y="565" on="0"/>
        <pt x="211" y="558" on="1"/>
        <pt x="207" y="446" on="0"/>
        <pt x="206" y="386" on="1"/>
        <pt x="282" y="397" on="0"/>
        <pt x="386" y="399" on="1"/>
        <pt x="405" y="289" on="1"/>
        <pt x="338" y="288" on="0"/>
        <pt x="204" y="274" on="1"/>
        <pt x="204" y="154" on="0"/>
        <pt x="205" y="101" on="1"/>
        <pt x="292" y="108" on="0"/>
        <pt x="413" y="131" on="1"/>
        <pt x="430" y="21" on="1"/>
        <pt x="345" y="-18" on="0"/>
        <pt x="229" y="-18" on="1"/>
      </contour>
      <contour>
        <pt x="309" y="823" on="1"/>
        <pt x="264" y="766" on="1"/>
        <pt x="166" y="816" on="0"/>
        <pt x="71" y="839" on="1"/>
        <pt x="125" y="928" on="1"/>
        <pt x="196" y="897" on="0"/>
      </contour>
    </TTGlyph>
    <TTGlyph name="Eth" xMin="12" yMin="-15" xMax="482" yMax="701">
      <contour>
        <pt x="238" y="701" on="1"/>
        <pt x="355" y="701" on="0"/>
        <pt x="482" y="517" on="0"/>
        <pt x="482" y="386" on="1"/>
        <pt x="482" y="285" on="0"/>
        <pt x="418" y="106" on="0"/>
        <pt x="282" y="-15" on="0"/>
        <pt x="191" y="-15" on="1"/>
        <pt x="173" y="-15" on="0"/>
        <pt x="55" y="-1" on="1"/>
        <pt x="65" y="158" on="0"/>
        <pt x="68" y="289" on="1"/>
        <pt x="53" y="288" on="0"/>
        <pt x="24" y="288" on="1"/>
        <pt x="12" y="396" on="1"/>
        <pt x="50" y="396" on="0"/>
        <pt x="69" y="397" on="1"/>
        <pt x="68" y="531" on="0"/>
        <pt x="60" y="667" on="1"/>
        <pt x="157" y="701" on="0"/>
      </contour>
      <contour>
        <pt x="216" y="107" on="1"/>
        <pt x="262" y="107" on="0"/>
        <pt x="353" y="270" on="0"/>
        <pt x="353" y="459" on="0"/>
        <pt x="288" y="581" on="0"/>
        <pt x="243" y="581" on="1"/>
        <pt x="217" y="581" on="0"/>
        <pt x="196" y="573" on="1"/>
        <pt x="202" y="405" on="1"/>
        <pt x="246" y="405" on="0"/>
        <pt x="281" y="402" on="1"/>
        <pt x="285" y="294" on="1"/>
        <pt x="246" y="297" on="0"/>
        <pt x="202" y="297" on="1"/>
        <pt x="200" y="200" on="0"/>
        <pt x="196" y="115" on="1"/>
        <pt x="203" y="107" on="0"/>
      </contour>
    </TTGlyph>
    <TTGlyph name="Euro" xMin="3" yMin="-18" xMax="443" yMax="643">
      <contour>
        <pt x="85" y="498" on="0"/>
        <pt x="191" y="643" on="0"/>
        <pt x="355" y="643" on="0"/>
        <pt x="440" y="523" on="0"/>
        <pt x="443" y="445" on="1"/>
        <pt x="330" y="456" on="1"/>
        <pt x="330" y="543" on="0"/>
        <pt x="274" y="543" on="1"/>
        <pt x="248" y="543" on="0"/>
        <pt x="203" y="465" on="0"/>
        <pt x="187" y="406" on="1"/>
        <pt x="292" y="416" on="0"/>
        <pt x="390" y="416" on="1"/>
        <pt x="394" y="341" on="1"/>
        <pt x="280" y="341" on="0"/>
        <pt x="172" y="334" on="1"/>
        <pt x="168" y="304" on="0"/>
        <pt x="167" y="290" on="1"/>
        <pt x="291" y="299" on="0"/>
        <pt x="390" y="299" on="1"/>
        <pt x="394" y="224" on="1"/>
        <pt x="245" y="224" on="0"/>
        <pt x="166" y="220" on="1"/>
        <pt x="174" y="82" on="0"/>
        <pt x="248" y="82" on="1"/>
        <pt x="279" y="82" on="0"/>
        <pt x="314" y="142" on="0"/>
        <pt x="327" y="193" on="1"/>
        <pt x="437" y="182" on="1"/>
        <pt x="384" y="-18" on="0"/>
        <pt x="248" y="-18" on="1"/>
        <pt x="157" y="-18" on="0"/>
        <pt x="52" y="109" on="0"/>
        <pt x="45" y="211" on="1"/>
        <pt x="15" y="207" on="1"/>
        <pt x="3" y="275" on="1"/>
        <pt x="45" y="279" on="1"/>
        <pt x="48" y="320" on="1"/>
        <pt x="15" y="314" on="1"/>
        <pt x="3" y="382" on="1"/>
        <pt x="61" y="390" on="1"/>
      </contour>
    </TTGlyph>
    <TTGlyph name="F" xMin="71" yMin="-19" xMax="421" yMax="688">
      <contour>
        <pt x="421" y="688" on="1"/>
        <pt x="421" y="565" on="1"/>
        <pt x="309" y="565" on="0"/>
        <pt x="211" y="558" on="1"/>
        <pt x="209" y="529" on="0"/>
        <pt x="206" y="382" on="0"/>
        <pt x="205" y="365" on="1"/>
        <pt x="317" y="380" on="0"/>
        <pt x="385" y="380" on="1"/>
        <pt x="405" y="270" on="1"/>
        <pt x="293" y="267" on="0"/>
        <pt x="204" y="256" on="1"/>
        <pt x="204" y="100" on="0"/>
        <pt x="208" y="-19" on="1"/>
        <pt x="73" y="-4" on="1"/>
        <pt x="71" y="158" on="0"/>
        <pt x="71" y="436" on="0"/>
        <pt x="87" y="662" on="1"/>
        <pt x="258" y="688" on="0"/>
      </contour>
    </TTGlyph>
    <TTGlyph name="G" xMin="40" yMin="-28" xMax="481" yMax="703">
      <contour>
        <pt x="333" y="397" on="1"/>
        <pt x="337" y="417" on="0"/>
        <pt x="337" y="508" on="0"/>
        <pt x="307" y="585" on="0"/>
        <pt x="278" y="585" on="1"/>
        <pt x="243" y="585" on="0"/>
        <pt x="177" y="404" on="0"/>
        <pt x="177" y="197" on="0"/>
        <pt x="217" y="80" on="0"/>
        <pt x="295" y="80" on="0"/>
        <pt x="335" y="152" on="0"/>
        <pt x="345" y="222" on="1"/>
        <pt x="309" y="222" on="0"/>
        <pt x="268" y="215" on="1"/>
        <pt x="247" y="314" on="1"/>
        <pt x="338" y="320" on="0"/>
        <pt x="475" y="336" on="1"/>
        <pt x="481" y="284" on="0"/>
        <pt x="481" y="198" on="0"/>
        <pt x="430" y="70" on="0"/>
        <pt x="329" y="-28" on="0"/>
        <pt x="269" y="-28" on="1"/>
        <pt x="165" y="-28" on="0"/>
        <pt x="40" y="134" on="0"/>
        <pt x="40" y="282" on="1"/>
        <pt x="40" y="391" on="0"/>
        <pt x="94" y="581" on="0"/>
        <pt x="200" y="703" on="0"/>
        <pt x="268" y="703" on="1"/>
        <pt x="334" y="703" on="0"/>
        <pt x="392" y="655" on="1"/>
        <pt x="422" y="630" on="0"/>
        <pt x="459" y="537" on="0"/>
        <pt x="459" y="435" on="0"/>
        <pt x="450" y="387" on="1"/>
      </contour>
    </TTGlyph>
    <TTGlyph name="Gbreve" xMin="40" yMin="-28" xMax="481" yMax="912">
      <contour>
        <pt x="333" y="397" on="1"/>
        <pt x="337" y="417" on="0"/>
        <pt x="337" y="508" on="0"/>
        <pt x="307" y="585" on="0"/>
        <pt x="278" y="585" on="1"/>
        <pt x="243" y="585" on="0"/>
        <pt x="177" y="404" on="0"/>
        <pt x="177" y="197" on="0"/>
        <pt x="217" y="80" on="0"/>
        <pt x="295" y="80" on="0"/>
        <pt x="335" y="152" on="0"/>
        <pt x="345" y="222" on="1"/>
        <pt x="309" y="222" on="0"/>
        <pt x="268" y="215" on="1"/>
        <pt x="247" y="314" on="1"/>
        <pt x="338" y="320" on="0"/>
        <pt x="475" y="336" on="1"/>
        <pt x="481" y="284" on="0"/>
        <pt x="481" y="198" on="0"/>
        <pt x="430" y="70" on="0"/>
        <pt x="329" y="-28" on="0"/>
        <pt x="269" y="-28" on="1"/>
        <pt x="165" y="-28" on="0"/>
        <pt x="40" y="134" on="0"/>
        <pt x="40" y="282" on="1"/>
        <pt x="40" y="391" on="0"/>
        <pt x="94" y="581" on="0"/>
        <pt x="200" y="703" on="0"/>
        <pt x="268" y="703" on="1"/>
        <pt x="334" y="703" on="0"/>
        <pt x="392" y="655" on="1"/>
        <pt x="422" y="630" on="0"/>
        <pt x="459" y="537" on="0"/>
        <pt x="459" y="435" on="0"/>
        <pt x="450" y="387" on="1"/>
      </contour>
      <contour>
        <pt x="222" y="876" on="0"/>
        <pt x="248" y="844" on="0"/>
        <pt x="295" y="844" on="0"/>
        <pt x="333" y="884" on="0"/>
        <pt x="333" y="912" on="1"/>
        <pt x="408" y="906" on="1"/>
        <pt x="408" y="854" on="0"/>
        <pt x="324" y="772" on="0"/>
        <pt x="213" y="772" on="0"/>
        <pt x="147" y="846" on="0"/>
        <pt x="147" y="906" on="1"/>
        <pt x="222" y="900" on="1"/>
      </contour>
    </TTGlyph>
    <TTGlyph name="H" xMin="67" yMin="-14" xMax="491" yMax="726">
      <contour>
        <pt x="201" y="501" on="1"/>
        <pt x="202" y="386" on="1"/>
        <pt x="352" y="395" on="1"/>
        <pt x="352" y="551" on="0"/>
        <pt x="357" y="726" on="1"/>
        <pt x="489" y="714" on="1"/>
        <pt x="480" y="555" on="0"/>
        <pt x="480" y="184" on="0"/>
        <pt x="491" y="-3" on="1"/>
        <pt x="363" y="8" on="1"/>
        <pt x="354" y="94" on="0"/>
        <pt x="352" y="284" on="1"/>
        <pt x="205" y="275" on="1"/>
        <pt x="208" y="133" on="0"/>
        <pt x="214" y="-14" on="1"/>
        <pt x="78" y="-2" on="1"/>
        <pt x="67" y="209" on="0"/>
        <pt x="67" y="563" on="0"/>
        <pt x="75" y="692" on="1"/>
        <pt x="207" y="680" on="1"/>
        <pt x="201" y="591" on="0"/>
      </contour>
    </TTGlyph>
    <TTGlyph name="I" xMin="89" yMin="-25" xMax="237" yMax="704">
      <contour>
        <pt x="233" y="692" on="1"/>
        <pt x="224" y="534" on="0"/>
        <pt x="224" y="138" on="0"/>
        <pt x="237" y="-25" on="1"/>
        <pt x="102" y="-13" on="1"/>
        <pt x="89" y="191" on="0"/>
        <pt x="89" y="520" on="0"/>
        <pt x="98" y="704" on="1"/>
      </contour>
    </TTGlyph>
    <TTGlyph name="IJ" xMin="89" yMin="-30" xMax="636" yMax="704">
      <contour>
        <pt x="233" y="692" on="1"/>
        <pt x="224" y="534" on="0"/>
        <pt x="224" y="138" on="0"/>
        <pt x="237" y="-25" on="1"/>
        <pt x="102" y="-13" on="1"/>
        <pt x="89" y="191" on="0"/>
        <pt x="89" y="520" on="0"/>
        <pt x="98" y="704" on="1"/>
      </contour>
      <contour>
        <pt x="397" y="229" on="1"/>
        <pt x="393" y="209" on="0"/>
        <pt x="393" y="146" on="0"/>
        <pt x="420" y="92" on="0"/>
        <pt x="442" y="92" on="1"/>
        <pt x="472" y="92" on="0"/>
        <pt x="499" y="185" on="0"/>
        <pt x="499" y="240" on="1"/>
        <pt x="499" y="470" on="0"/>
        <pt x="481" y="701" on="1"/>
        <pt x="622" y="689" on="1"/>
        <pt x="636" y="509" on="0"/>
        <pt x="636" y="240" on="1"/>
        <pt x="636" y="150" on="0"/>
        <pt x="597" y="68" on="1"/>
        <pt x="577" y="25" on="0"/>
        <pt x="504" y="-30" on="0"/>
        <pt x="457" y="-30" on="1"/>
        <pt x="373" y="-30" on="0"/>
        <pt x="271" y="87" on="0"/>
        <pt x="271" y="174" on="1"/>
        <pt x="271" y="204" on="0"/>
        <pt x="279" y="241" on="1"/>
      </contour>
    </TTGlyph>
    <TTGlyph name="Iacute" xMin="88" yMin="-25" xMax="326" yMax="928">
      <contour>
        <pt x="233" y="692" on="1"/>
        <pt x="224" y="534" on="0"/>
        <pt x="224" y="138" on="0"/>
        <pt x="237" y="-25" on="1"/>
        <pt x="102" y="-13" on="1"/>
        <pt x="89" y="191" on="0"/>
        <pt x="89" y="520" on="0"/>
        <pt x="98" y="704" on="1"/>
      </contour>
      <contour>
        <pt x="133" y="766" on="1"/>
        <pt x="88" y="823" on="1"/>
        <pt x="201" y="897" on="0"/>
        <pt x="272" y="928" on="1"/>
        <pt x="326" y="839" on="1"/>
        <pt x="231" y="816" on="0"/>
      </contour>
    </TTGlyph>
    <TTGlyph name="Icircumflex" xMin="18" yMin="-25" xMax="315" yMax="923">
      <contour>
        <pt x="233" y="692" on="1"/>
        <pt x="224" y="534" on="0"/>
        <pt x="224" y="138" on="0"/>
        <pt x="237" y="-25" on="1"/>
        <pt x="102" y="-13" on="1"/>
        <pt x="89" y="191" on="0"/>
        <pt x="89" y="520" on="0"/>
        <pt x="98" y="704" on="1"/>
      </contour>
      <contour>
        <pt x="146" y="923" on="1"/>
        <pt x="214" y="918" on="1"/>
        <pt x="245" y="888" on="0"/>
        <pt x="315" y="803" on="1"/>
        <pt x="257" y="759" on="1"/>
        <pt x="205" y="805" on="0"/>
        <pt x="176" y="829" on="1"/>
        <pt x="126" y="794" on="0"/>
        <pt x="76" y="750" on="1"/>
        <pt x="18" y="793" on="1"/>
        <pt x="90" y="874" on="0"/>
      </contour>
    </TTGlyph>
    <TTGlyph name="Idieresis" xMin="38" yMin="-25" xMax="302" yMax="910">
      <contour>
        <pt x="233" y="692" on="1"/>
        <pt x="224" y="534" on="0"/>
        <pt x="224" y="138" on="0"/>
        <pt x="237" y="-25" on="1"/>
        <pt x="102" y="-13" on="1"/>
        <pt x="89" y="191" on="0"/>
        <pt x="89" y="520" on="0"/>
        <pt x="98" y="704" on="1"/>
      </contour>
      <contour>
        <pt x="136" y="900" on="1"/>
        <pt x="147" y="884" on="0"/>
        <pt x="147" y="800" on="0"/>
        <pt x="133" y="778" on="1"/>
        <pt x="38" y="788" on="1"/>
        <pt x="47" y="838" on="0"/>
        <pt x="47" y="890" on="0"/>
        <pt x="46" y="908" on="1"/>
      </contour>
      <contour>
        <pt x="291" y="902" on="1"/>
        <pt x="302" y="886" on="0"/>
        <pt x="302" y="802" on="0"/>
        <pt x="288" y="780" on="1"/>
        <pt x="193" y="790" on="1"/>
        <pt x="202" y="840" on="0"/>
        <pt x="202" y="892" on="0"/>
        <pt x="201" y="910" on="1"/>
      </contour>
    </TTGlyph>
    <TTGlyph name="Idot" xMin="89" yMin="-25" xMax="237" yMax="910">
      <contour>
        <pt x="233" y="692" on="1"/>
        <pt x="224" y="534" on="0"/>
        <pt x="224" y="138" on="0"/>
        <pt x="237" y="-25" on="1"/>
        <pt x="102" y="-13" on="1"/>
        <pt x="89" y="191" on="0"/>
        <pt x="89" y="520" on="0"/>
        <pt x="98" y="704" on="1"/>
      </contour>
      <contour>
        <pt x="222" y="901" on="1"/>
        <pt x="233" y="885" on="0"/>
        <pt x="233" y="804" on="0"/>
        <pt x="219" y="780" on="1"/>
        <pt x="109" y="790" on="1"/>
        <pt x="118" y="840" on="0"/>
        <pt x="118" y="892" on="0"/>
        <pt x="117" y="910" on="1"/>
      </contour>
    </TTGlyph>
    <TTGlyph name="Igrave" xMin="-12" yMin="-25" xMax="237" yMax="928">
      <contour>
        <pt x="233" y="692" on="1"/>
        <pt x="224" y="534" on="0"/>
        <pt x="224" y="138" on="0"/>
        <pt x="237" y="-25" on="1"/>
        <pt x="102" y="-13" on="1"/>
        <pt x="89" y="191" on="0"/>
        <pt x="89" y="520" on="0"/>
        <pt x="98" y="704" on="1"/>
      </contour>
      <contour>
        <pt x="226" y="823" on="1"/>
        <pt x="181" y="766" on="1"/>
        <pt x="83" y="816" on="0"/>
        <pt x="-12" y="839" on="1"/>
        <pt x="42" y="928" on="1"/>
        <pt x="113" y="897" on="0"/>
      </contour>
    </TTGlyph>
    <TTGlyph name="Itilde" xMin="8" yMin="-25" xMax="308" yMax="873">
      <contour>
        <pt x="233" y="692" on="1"/>
        <pt x="224" y="534" on="0"/>
        <pt x="224" y="138" on="0"/>
        <pt x="237" y="-25" on="1"/>
        <pt x="102" y="-13" on="1"/>
        <pt x="89" y="191" on="0"/>
        <pt x="89" y="520" on="0"/>
        <pt x="98" y="704" on="1"/>
      </contour>
      <contour>
        <pt x="305" y="828" on="0"/>
        <pt x="247" y="757" on="0"/>
        <pt x="188" y="757" on="0"/>
        <pt x="132" y="775" on="0"/>
        <pt x="91" y="775" on="0"/>
        <pt x="68" y="752" on="1"/>
        <pt x="8" y="784" on="1"/>
        <pt x="48" y="869" on="0"/>
        <pt x="101" y="869" on="1"/>
        <pt x="122" y="869" on="0"/>
        <pt x="182" y="841" on="0"/>
        <pt x="196" y="841" on="1"/>
        <pt x="224" y="841" on="0"/>
        <pt x="248" y="873" on="1"/>
        <pt x="308" y="868" on="1"/>
      </contour>
    </TTGlyph>
    <TTGlyph name="J" xMin="2" yMin="-30" xMax="367" yMax="701">
      <contour>
        <pt x="128" y="229" on="1"/>
        <pt x="124" y="209" on="0"/>
        <pt x="124" y="146" on="0"/>
        <pt x="151" y="92" on="0"/>
        <pt x="173" y="92" on="1"/>
        <pt x="203" y="92" on="0"/>
        <pt x="230" y="185" on="0"/>
        <pt x="230" y="240" on="1"/>
        <pt x="230" y="470" on="0"/>
        <pt x="212" y="701" on="1"/>
        <pt x="353" y="689" on="1"/>
        <pt x="367" y="509" on="0"/>
        <pt x="367" y="240" on="1"/>
        <pt x="367" y="150" on="0"/>
        <pt x="328" y="68" on="1"/>
        <pt x="308" y="25" on="0"/>
        <pt x="235" y="-30" on="0"/>
        <pt x="188" y="-30" on="1"/>
        <pt x="104" y="-30" on="0"/>
        <pt x="2" y="87" on="0"/>
        <pt x="2" y="174" on="1"/>
        <pt x="2" y="204" on="0"/>
        <pt x="10" y="241" on="1"/>
      </contour>
    </TTGlyph>
    <TTGlyph name="Jcircumflex" xMin="2" yMin="-30" xMax="414" yMax="894">
      <contour>
        <pt x="128" y="229" on="1"/>
        <pt x="124" y="209" on="0"/>
        <pt x="124" y="146" on="0"/>
        <pt x="151" y="92" on="0"/>
        <pt x="173" y="92" on="1"/>
        <pt x="203" y="92" on="0"/>
        <pt x="230" y="185" on="0"/>
        <pt x="230" y="240" on="1"/>
        <pt x="230" y="470" on="0"/>
        <pt x="212" y="701" on="1"/>
        <pt x="353" y="689" on="1"/>
        <pt x="367" y="509" on="0"/>
        <pt x="367" y="240" on="1"/>
        <pt x="367" y="150" on="0"/>
        <pt x="328" y="68" on="1"/>
        <pt x="308" y="25" on="0"/>
        <pt x="235" y="-30" on="0"/>
        <pt x="188" y="-30" on="1"/>
        <pt x="104" y="-30" on="0"/>
        <pt x="2" y="87" on="0"/>
        <pt x="2" y="174" on="1"/>
        <pt x="2" y="204" on="0"/>
        <pt x="10" y="241" on="1"/>
      </contour>
      <contour>
        <pt x="245" y="894" on="1"/>
        <pt x="313" y="889" on="1"/>
        <pt x="344" y="859" on="0"/>
        <pt x="414" y="774" on="1"/>
        <pt x="356" y="730" on="1"/>
        <pt x="304" y="776" on="0"/>
        <pt x="275" y="800" on="1"/>
        <pt x="225" y="765" on="0"/>
        <pt x="175" y="721" on="1"/>
        <pt x="117" y="764" on="1"/>
        <pt x="189" y="845" on="0"/>
      </contour>
    </TTGlyph>
    <TTGlyph name="K" xMin="60" yMin="-22" xMax="513" yMax="706">
      <contour>
        <pt x="67" y="6" on="1"/>
        <pt x="60" y="159" on="0"/>
        <pt x="60" y="543" on="0"/>
        <pt x="70" y="679" on="1"/>
        <pt x="207" y="666" on="1"/>
        <pt x="197" y="542" on="0"/>
        <pt x="197" y="359" on="1"/>
        <pt x="323" y="566" on="0"/>
        <pt x="387" y="706" on="1"/>
        <pt x="513" y="656" on="1"/>
        <pt x="441" y="512" on="0"/>
        <pt x="318" y="322" on="1"/>
        <pt x="418" y="163" on="0"/>
        <pt x="511" y="82" on="1"/>
        <pt x="419" y="-22" on="1"/>
        <pt x="303" y="91" on="0"/>
        <pt x="197" y="287" on="1"/>
        <pt x="197" y="104" on="0"/>
        <pt x="204" y="-9" on="1"/>
      </contour>
    </TTGlyph>
    <TTGlyph name="L" xMin="72" yMin="-3" xMax="403" yMax="695">
      <contour>
        <pt x="85" y="6" on="1"/>
        <pt x="72" y="212" on="0"/>
        <pt x="72" y="555" on="0"/>
        <pt x="83" y="695" on="1"/>
        <pt x="216" y="683" on="1"/>
        <pt x="201" y="511" on="0"/>
        <pt x="201" y="197" on="0"/>
        <pt x="206" y="123" on="1"/>
        <pt x="242" y="128" on="0"/>
        <pt x="383" y="143" on="1"/>
        <pt x="403" y="27" on="1"/>
        <pt x="328" y="18" on="0"/>
        <pt x="191" y="-3" on="1"/>
      </contour>
    </TTGlyph>
    <TTGlyph name="Ldotaccent" xMin="72" yMin="-3" xMax="427" yMax="695">
      <contour>
        <pt x="85" y="6" on="1"/>
        <pt x="72" y="212" on="0"/>
        <pt x="72" y="555" on="0"/>
        <pt x="83" y="695" on="1"/>
        <pt x="216" y="683" on="1"/>
        <pt x="201" y="511" on="0"/>
        <pt x="201" y="197" on="0"/>
        <pt x="206" y="123" on="1"/>
        <pt x="242" y="128" on="0"/>
        <pt x="383" y="143" on="1"/>
        <pt x="403" y="27" on="1"/>
        <pt x="328" y="18" on="0"/>
        <pt x="191" y="-3" on="1"/>
      </contour>
      <contour>
        <pt x="416" y="412" on="1"/>
        <pt x="427" y="396" on="0"/>
        <pt x="427" y="315" on="0"/>
        <pt x="413" y="291" on="1"/>
        <pt x="303" y="301" on="1"/>
        <pt x="312" y="350" on="0"/>
        <pt x="312" y="403" on="0"/>
        <pt x="311" y="421" on="1"/>
      </contour>
    </TTGlyph>
    <TTGlyph name="Lslash" xMin="-17" yMin="-3" xMax="403" yMax="695">
      <contour>
        <pt x="72" y="385" on="1"/>
        <pt x="72" y="555" on="0"/>
        <pt x="83" y="695" on="1"/>
        <pt x="216" y="683" on="1"/>
        <pt x="205" y="550" on="0"/>
        <pt x="202" y="438" on="1"/>
        <pt x="259" y="480" on="0"/>
        <pt x="325" y="519" on="1"/>
        <pt x="382" y="455" on="1"/>
        <pt x="295" y="410" on="0"/>
        <pt x="201" y="340" on="1"/>
        <pt x="201" y="195" on="0"/>
        <pt x="206" y="123" on="1"/>
        <pt x="242" y="128" on="0"/>
        <pt x="383" y="143" on="1"/>
        <pt x="403" y="27" on="1"/>
        <pt x="328" y="18" on="0"/>
        <pt x="191" y="-3" on="1"/>
        <pt x="85" y="6" on="1"/>
        <pt x="77" y="138" on="0"/>
        <pt x="74" y="246" on="1"/>
        <pt x="50" y="225" on="0"/>
        <pt x="28" y="201" on="1"/>
        <pt x="-17" y="261" on="1"/>
        <pt x="29" y="308" on="0"/>
        <pt x="72" y="345" on="1"/>
      </contour>
    </TTGlyph>
    <TTGlyph name="M" xMin="48" yMin="-26" xMax="623" yMax="696">
      <contour>
        <pt x="56" y="-6" on="1"/>
        <pt x="48" y="254" on="0"/>
        <pt x="48" y="518" on="0"/>
        <pt x="65" y="668" on="1"/>
        <pt x="253" y="653" on="1"/>
        <pt x="288" y="527" on="0"/>
        <pt x="327" y="300" on="1"/>
        <pt x="383" y="483" on="0"/>
        <pt x="426" y="696" on="1"/>
        <pt x="615" y="679" on="1"/>
        <pt x="623" y="370" on="0"/>
        <pt x="623" y="85" on="0"/>
        <pt x="614" y="-26" on="1"/>
        <pt x="477" y="-13" on="1"/>
        <pt x="490" y="113" on="0"/>
        <pt x="499" y="521" on="1"/>
        <pt x="491" y="522" on="1"/>
        <pt x="481" y="483" on="0"/>
        <pt x="459" y="388" on="1"/>
        <pt x="413" y="191" on="0"/>
        <pt x="370" y="52" on="1"/>
        <pt x="279" y="60" on="1"/>
        <pt x="255" y="156" on="0"/>
        <pt x="192" y="461" on="0"/>
        <pt x="175" y="533" on="1"/>
        <pt x="167" y="534" on="1"/>
        <pt x="176" y="200" on="0"/>
        <pt x="188" y="-18" on="1"/>
      </contour>
    </TTGlyph>
    <TTGlyph name="N" xMin="51" yMin="-30" xMax="501" yMax="715">
      <contour>
        <pt x="500" y="704" on="1"/>
        <pt x="501" y="239" on="1"/>
        <pt x="501" y="124" on="0"/>
        <pt x="493" y="-8" on="1"/>
        <pt x="381" y="3" on="1"/>
        <pt x="252" y="296" on="0"/>
        <pt x="170" y="442" on="1"/>
        <pt x="171" y="294" on="0"/>
        <pt x="171" y="-30" on="1"/>
        <pt x="54" y="-17" on="1"/>
        <pt x="51" y="45" on="0"/>
        <pt x="51" y="103" on="1"/>
        <pt x="51" y="345" on="0"/>
        <pt x="78" y="667" on="1"/>
        <pt x="211" y="654" on="1"/>
        <pt x="310" y="381" on="0"/>
        <pt x="389" y="239" on="1"/>
        <pt x="383" y="541" on="0"/>
        <pt x="375" y="715" on="1"/>
      </contour>
    </TTGlyph>
    <TTGlyph name="Nacute" xMin="51" yMin="-30" xMax="501" yMax="899">
      <contour>
        <pt x="500" y="704" on="1"/>
        <pt x="501" y="239" on="1"/>
        <pt x="501" y="124" on="0"/>
        <pt x="493" y="-8" on="1"/>
        <pt x="381" y="3" on="1"/>
        <pt x="252" y="296" on="0"/>
        <pt x="170" y="442" on="1"/>
        <pt x="171" y="294" on="0"/>
        <pt x="171" y="-30" on="1"/>
        <pt x="54" y="-17" on="1"/>
        <pt x="51" y="45" on="0"/>
        <pt x="51" y="103" on="1"/>
        <pt x="51" y="345" on="0"/>
        <pt x="78" y="667" on="1"/>
        <pt x="211" y="654" on="1"/>
        <pt x="310" y="381" on="0"/>
        <pt x="389" y="239" on="1"/>
        <pt x="383" y="541" on="0"/>
        <pt x="375" y="715" on="1"/>
      </contour>
      <contour>
        <pt x="218" y="737" on="1"/>
        <pt x="173" y="794" on="1"/>
        <pt x="286" y="868" on="0"/>
        <pt x="357" y="899" on="1"/>
        <pt x="411" y="810" on="1"/>
        <pt x="316" y="787" on="0"/>
      </contour>
    </TTGlyph>
    <TTGlyph name="Ntilde" xMin="51" yMin="-30" xMax="501" yMax="902">
      <contour>
        <pt x="500" y="704" on="1"/>
        <pt x="501" y="239" on="1"/>
        <pt x="501" y="124" on="0"/>
        <pt x="493" y="-8" on="1"/>
        <pt x="381" y="3" on="1"/>
        <pt x="252" y="296" on="0"/>
        <pt x="170" y="442" on="1"/>
        <pt x="171" y="294" on="0"/>
        <pt x="171" y="-30" on="1"/>
        <pt x="54" y="-17" on="1"/>
        <pt x="51" y="45" on="0"/>
        <pt x="51" y="103" on="1"/>
        <pt x="51" y="345" on="0"/>
        <pt x="78" y="667" on="1"/>
        <pt x="211" y="654" on="1"/>
        <pt x="310" y="381" on="0"/>
        <pt x="389" y="239" on="1"/>
        <pt x="383" y="541" on="0"/>
        <pt x="375" y="715" on="1"/>
      </contour>
      <contour>
        <pt x="430" y="857" on="0"/>
        <pt x="372" y="786" on="0"/>
        <pt x="313" y="786" on="0"/>
        <pt x="257" y="804" on="0"/>
        <pt x="216" y="804" on="0"/>
        <pt x="193" y="781" on="1"/>
        <pt x="133" y="813" on="1"/>
        <pt x="173" y="898" on="0"/>
        <pt x="226" y="898" on="1"/>
        <pt x="246" y="898" on="0"/>
        <pt x="306" y="870" on="0"/>
        <pt x="321" y="870" on="1"/>
        <pt x="349" y="870" on="0"/>
        <pt x="373" y="902" on="1"/>
        <pt x="433" y="897" on="1"/>
      </contour>
    </TTGlyph>
    <TTGlyph name="O" xMin="34" yMin="-34" xMax="500" yMax="706">
      <contour>
        <pt x="165" y="-34" on="0"/>
        <pt x="34" y="137" on="0"/>
        <pt x="34" y="486" on="0"/>
        <pt x="177" y="706" on="0"/>
        <pt x="371" y="706" on="0"/>
        <pt x="500" y="534" on="0"/>
        <pt x="500" y="188" on="0"/>
        <pt x="356" y="-34" on="0"/>
      </contour>
      <contour>
        <pt x="231" y="587" on="0"/>
        <pt x="167" y="432" on="0"/>
        <pt x="167" y="197" on="0"/>
        <pt x="222" y="84" on="0"/>
        <pt x="304" y="84" on="0"/>
        <pt x="367" y="240" on="0"/>
        <pt x="367" y="475" on="0"/>
        <pt x="314" y="587" on="0"/>
        <pt x="275" y="587" on="1"/>
      </contour>
    </TTGlyph>
    <TTGlyph name="OE" xMin="34" yMin="-34" xMax="728" yMax="706">
      <contour>
        <pt x="263" y="-34" on="1"/>
        <pt x="165" y="-34" on="0"/>
        <pt x="34" y="137" on="0"/>
        <pt x="34" y="486" on="0"/>
        <pt x="177" y="706" on="0"/>
        <pt x="275" y="706" on="1"/>
        <pt x="343" y="706" on="0"/>
        <pt x="395" y="663" on="1"/>
        <pt x="561" y="688" on="0"/>
        <pt x="719" y="688" on="1"/>
        <pt x="719" y="565" on="1"/>
        <pt x="600" y="565" on="0"/>
        <pt x="499" y="558" on="1"/>
        <pt x="495" y="446" on="0"/>
        <pt x="494" y="386" on="1"/>
        <pt x="574" y="397" on="0"/>
        <pt x="684" y="399" on="1"/>
        <pt x="703" y="289" on="1"/>
        <pt x="633" y="288" on="0"/>
        <pt x="492" y="274" on="1"/>
        <pt x="492" y="154" on="0"/>
        <pt x="493" y="101" on="1"/>
        <pt x="583" y="108" on="0"/>
        <pt x="711" y="131" on="1"/>
        <pt x="728" y="21" on="1"/>
        <pt x="643" y="-18" on="0"/>
        <pt x="527" y="-18" on="1"/>
        <pt x="373" y="-4" on="1"/>
        <pt x="373" y="-2" on="0"/>
        <pt x="372" y="8" on="0"/>
        <pt x="372" y="10" on="1"/>
        <pt x="319" y="-34" on="0"/>
      </contour>
      <contour>
        <pt x="231" y="587" on="0"/>
        <pt x="167" y="432" on="0"/>
        <pt x="167" y="197" on="0"/>
        <pt x="222" y="84" on="0"/>
        <pt x="304" y="84" on="0"/>
        <pt x="367" y="240" on="0"/>
        <pt x="367" y="475" on="0"/>
        <pt x="314" y="587" on="0"/>
        <pt x="275" y="587" on="1"/>
      </contour>
    </TTGlyph>
    <TTGlyph name="Oacute" xMin="34" yMin="-34" xMax="500" yMax="928">
      <contour>
        <pt x="165" y="-34" on="0"/>
        <pt x="34" y="137" on="0"/>
        <pt x="34" y="486" on="0"/>
        <pt x="177" y="706" on="0"/>
        <pt x="371" y="706" on="0"/>
        <pt x="500" y="534" on="0"/>
        <pt x="500" y="188" on="0"/>
        <pt x="356" y="-34" on="0"/>
      </contour>
      <contour>
        <pt x="231" y="587" on="0"/>
        <pt x="167" y="432" on="0"/>
        <pt x="167" y="197" on="0"/>
        <pt x="222" y="84" on="0"/>
        <pt x="304" y="84" on="0"/>
        <pt x="367" y="240" on="0"/>
        <pt x="367" y="475" on="0"/>
        <pt x="314" y="587" on="0"/>
        <pt x="275" y="587" on="1"/>
      </contour>
      <contour>
        <pt x="248" y="766" on="1"/>
        <pt x="203" y="823" on="1"/>
        <pt x="316" y="897" on="0"/>
        <pt x="387" y="928" on="1"/>
        <pt x="441" y="839" on="1"/>
        <pt x="346" y="816" on="0"/>
      </contour>
    </TTGlyph>
    <TTGlyph name="Ocircumflex" xMin="34" yMin="-34" xMax="500" yMax="923">
      <contour>
        <pt x="165" y="-34" on="0"/>
        <pt x="34" y="137" on="0"/>
        <pt x="34" y="486" on="0"/>
        <pt x="177" y="706" on="0"/>
        <pt x="371" y="706" on="0"/>
        <pt x="500" y="534" on="0"/>
        <pt x="500" y="188" on="0"/>
        <pt x="356" y="-34" on="0"/>
      </contour>
      <contour>
        <pt x="231" y="587" on="0"/>
        <pt x="167" y="432" on="0"/>
        <pt x="167" y="197" on="0"/>
        <pt x="222" y="84" on="0"/>
        <pt x="304" y="84" on="0"/>
        <pt x="367" y="240" on="0"/>
        <pt x="367" y="475" on="0"/>
        <pt x="314" y="587" on="0"/>
        <pt x="275" y="587" on="1"/>
      </contour>
      <contour>
        <pt x="251" y="923" on="1"/>
        <pt x="319" y="918" on="1"/>
        <pt x="350" y="888" on="0"/>
        <pt x="420" y="803" on="1"/>
        <pt x="362" y="759" on="1"/>
        <pt x="310" y="805" on="0"/>
        <pt x="281" y="829" on="1"/>
        <pt x="231" y="794" on="0"/>
        <pt x="181" y="750" on="1"/>
        <pt x="123" y="793" on="1"/>
        <pt x="195" y="874" on="0"/>
      </contour>
    </TTGlyph>
    <TTGlyph name="Odieresis" xMin="34" yMin="-34" xMax="500" yMax="910">
      <contour>
        <pt x="165" y="-34" on="0"/>
        <pt x="34" y="137" on="0"/>
        <pt x="34" y="486" on="0"/>
        <pt x="177" y="706" on="0"/>
        <pt x="371" y="706" on="0"/>
        <pt x="500" y="534" on="0"/>
        <pt x="500" y="188" on="0"/>
        <pt x="356" y="-34" on="0"/>
      </contour>
      <contour>
        <pt x="231" y="587" on="0"/>
        <pt x="167" y="432" on="0"/>
        <pt x="167" y="197" on="0"/>
        <pt x="222" y="84" on="0"/>
        <pt x="304" y="84" on="0"/>
        <pt x="367" y="240" on="0"/>
        <pt x="367" y="475" on="0"/>
        <pt x="314" y="587" on="0"/>
        <pt x="275" y="587" on="1"/>
      </contour>
      <contour>
        <pt x="231" y="900" on="1"/>
        <pt x="242" y="884" on="0"/>
        <pt x="242" y="800" on="0"/>
        <pt x="228" y="778" on="1"/>
        <pt x="133" y="788" on="1"/>
        <pt x="142" y="838" on="0"/>
        <pt x="142" y="890" on="0"/>
        <pt x="141" y="908" on="1"/>
      </contour>
      <contour>
        <pt x="386" y="902" on="1"/>
        <pt x="397" y="886" on="0"/>
        <pt x="397" y="802" on="0"/>
        <pt x="383" y="780" on="1"/>
        <pt x="288" y="790" on="1"/>
        <pt x="297" y="840" on="0"/>
        <pt x="297" y="892" on="0"/>
        <pt x="296" y="910" on="1"/>
      </contour>
    </TTGlyph>
    <TTGlyph name="Ograve" xMin="34" yMin="-34" xMax="500" yMax="928">
      <contour>
        <pt x="165" y="-34" on="0"/>
        <pt x="34" y="137" on="0"/>
        <pt x="34" y="486" on="0"/>
        <pt x="177" y="706" on="0"/>
        <pt x="371" y="706" on="0"/>
        <pt x="500" y="534" on="0"/>
        <pt x="500" y="188" on="0"/>
        <pt x="356" y="-34" on="0"/>
      </contour>
      <contour>
        <pt x="231" y="587" on="0"/>
        <pt x="167" y="432" on="0"/>
        <pt x="167" y="197" on="0"/>
        <pt x="222" y="84" on="0"/>
        <pt x="304" y="84" on="0"/>
        <pt x="367" y="240" on="0"/>
        <pt x="367" y="475" on="0"/>
        <pt x="314" y="587" on="0"/>
        <pt x="275" y="587" on="1"/>
      </contour>
      <contour>
        <pt x="341" y="823" on="1"/>
        <pt x="296" y="766" on="1"/>
        <pt x="198" y="816" on="0"/>
        <pt x="103" y="839" on="1"/>
        <pt x="157" y="928" on="1"/>
        <pt x="228" y="897" on="0"/>
      </contour>
    </TTGlyph>
    <TTGlyph name="Omega" xMin="36" yMin="-30" xMax="530" yMax="706">
      <contour>
        <pt x="384" y="382" on="1"/>
        <pt x="384" y="485" on="0"/>
        <pt x="331" y="587" on="0"/>
        <pt x="248" y="587" on="0"/>
        <pt x="184" y="444" on="0"/>
        <pt x="184" y="330" on="1"/>
        <pt x="184" y="155" on="0"/>
        <pt x="250" y="74" on="1"/>
        <pt x="247" y="60" on="0"/>
        <pt x="233" y="9" on="0"/>
        <pt x="231" y="-4" on="1"/>
        <pt x="206" y="-6" on="0"/>
        <pt x="89" y="-27" on="0"/>
        <pt x="56" y="-28" on="1"/>
        <pt x="36" y="78" on="1"/>
        <pt x="63" y="81" on="0"/>
        <pt x="119" y="91" on="1"/>
        <pt x="51" y="182" on="0"/>
        <pt x="51" y="497" on="0"/>
        <pt x="194" y="706" on="0"/>
        <pt x="388" y="706" on="0"/>
        <pt x="517" y="544" on="0"/>
        <pt x="517" y="382" on="1"/>
        <pt x="517" y="297" on="0"/>
        <pt x="462" y="131" on="0"/>
        <pt x="419" y="80" on="1"/>
        <pt x="460" y="85" on="0"/>
        <pt x="510" y="96" on="1"/>
        <pt x="530" y="-10" on="1"/>
        <pt x="509" y="-13" on="0"/>
        <pt x="418" y="-30" on="1"/>
        <pt x="312" y="-21" on="1"/>
        <pt x="308" y="20" on="0"/>
        <pt x="305" y="67" on="1"/>
        <pt x="384" y="175" on="0"/>
      </contour>
    </TTGlyph>
    <TTGlyph name="Oslash" xMin="-69" yMin="-93" xMax="589" yMax="726">
      <contour>
        <pt x="34" y="310" on="1"/>
        <pt x="34" y="486" on="0"/>
        <pt x="177" y="706" on="0"/>
        <pt x="372" y="706" on="0"/>
        <pt x="433" y="622" on="1"/>
        <pt x="481" y="678" on="0"/>
        <pt x="525" y="726" on="1"/>
        <pt x="589" y="686" on="1"/>
        <pt x="530" y="621" on="0"/>
        <pt x="471" y="550" on="1"/>
        <pt x="500" y="471" on="0"/>
        <pt x="500" y="362" on="1"/>
        <pt x="500" y="188" on="0"/>
        <pt x="356" y="-34" on="0"/>
        <pt x="162" y="-34" on="0"/>
        <pt x="99" y="52" on="1"/>
        <pt x="32" y="-52" on="0"/>
        <pt x="8" y="-93" on="1"/>
        <pt x="-69" y="-64" on="1"/>
        <pt x="61" y="126" on="1"/>
        <pt x="34" y="204" on="0"/>
      </contour>
      <contour>
        <pt x="263" y="80" on="1"/>
        <pt x="305" y="80" on="0"/>
        <pt x="371" y="239" on="0"/>
        <pt x="371" y="362" on="1"/>
        <pt x="371" y="399" on="0"/>
        <pt x="368" y="429" on="1"/>
        <pt x="268" y="305" on="0"/>
        <pt x="179" y="173" on="1"/>
        <pt x="192" y="127" on="0"/>
        <pt x="236" y="80" on="0"/>
      </contour>
      <contour>
        <pt x="163" y="310" on="1"/>
        <pt x="163" y="277" on="0"/>
        <pt x="164" y="262" on="1"/>
        <pt x="264" y="401" on="0"/>
        <pt x="352" y="512" on="1"/>
        <pt x="326" y="591" on="0"/>
        <pt x="275" y="591" on="1"/>
        <pt x="230" y="591" on="0"/>
        <pt x="163" y="434" on="0"/>
      </contour>
    </TTGlyph>
    <TTGlyph name="Otilde" xMin="34" yMin="-34" xMax="500" yMax="902">
      <contour>
        <pt x="165" y="-34" on="0"/>
        <pt x="34" y="137" on="0"/>
        <pt x="34" y="486" on="0"/>
        <pt x="177" y="706" on="0"/>
        <pt x="371" y="706" on="0"/>
        <pt x="500" y="534" on="0"/>
        <pt x="500" y="188" on="0"/>
        <pt x="356" y="-34" on="0"/>
      </contour>
      <contour>
        <pt x="231" y="587" on="0"/>
        <pt x="167" y="432" on="0"/>
        <pt x="167" y="197" on="0"/>
        <pt x="222" y="84" on="0"/>
        <pt x="304" y="84" on="0"/>
        <pt x="367" y="240" on="0"/>
        <pt x="367" y="475" on="0"/>
        <pt x="314" y="587" on="0"/>
        <pt x="275" y="587" on="1"/>
      </contour>
      <contour>
        <pt x="420" y="857" on="0"/>
        <pt x="362" y="786" on="0"/>
        <pt x="303" y="786" on="0"/>
        <pt x="247" y="804" on="0"/>
        <pt x="206" y="804" on="0"/>
        <pt x="183" y="781" on="1"/>
        <pt x="123" y="813" on="1"/>
        <pt x="163" y="898" on="0"/>
        <pt x="216" y="898" on="1"/>
        <pt x="236" y="898" on="0"/>
        <pt x="296" y="870" on="0"/>
        <pt x="311" y="870" on="1"/>
        <pt x="339" y="870" on="0"/>
        <pt x="363" y="902" on="1"/>
        <pt x="423" y="897" on="1"/>
      </contour>
    </TTGlyph>
    <TTGlyph name="P" xMin="65" yMin="-30" xMax="475" yMax="709">
      <contour>
        <pt x="69" y="-17" on="1"/>
        <pt x="65" y="96" on="0"/>
        <pt x="65" y="413" on="0"/>
        <pt x="75" y="678" on="1"/>
        <pt x="159" y="709" on="0"/>
        <pt x="336" y="709" on="0"/>
        <pt x="475" y="578" on="0"/>
        <pt x="475" y="379" on="0"/>
        <pt x="324" y="234" on="0"/>
        <pt x="202" y="200" on="1"/>
        <pt x="202" y="88" on="0"/>
        <pt x="205" y="-30" on="1"/>
      </contour>
      <contour>
        <pt x="338" y="420" on="0"/>
        <pt x="338" y="526" on="0"/>
        <pt x="283" y="592" on="0"/>
        <pt x="249" y="592" on="1"/>
        <pt x="240" y="592" on="0"/>
        <pt x="208" y="587" on="1"/>
        <pt x="203" y="446" on="0"/>
        <pt x="202" y="314" on="1"/>
        <pt x="265" y="334" on="0"/>
      </contour>
    </TTGlyph>
    <TTGlyph name="Q" xMin="34" yMin="-86" xMax="518" yMax="706">
      <contour>
        <pt x="165" y="-34" on="0"/>
        <pt x="34" y="137" on="0"/>
        <pt x="34" y="486" on="0"/>
        <pt x="177" y="706" on="0"/>
        <pt x="371" y="706" on="0"/>
        <pt x="500" y="534" on="0"/>
        <pt x="500" y="182" on="0"/>
        <pt x="420" y="65" on="1"/>
        <pt x="458" y="14" on="0"/>
        <pt x="518" y="-38" on="1"/>
        <pt x="389" y="-86" on="1"/>
        <pt x="355" y="-44" on="0"/>
        <pt x="335" y="-14" on="1"/>
        <pt x="298" y="-34" on="0"/>
        <pt x="263" y="-34" on="1"/>
      </contour>
      <contour>
        <pt x="231" y="587" on="0"/>
        <pt x="167" y="432" on="0"/>
        <pt x="167" y="197" on="0"/>
        <pt x="222" y="84" on="0"/>
        <pt x="263" y="84" on="1"/>
        <pt x="268" y="84" on="0"/>
        <pt x="276" y="86" on="1"/>
        <pt x="255" y="131" on="0"/>
        <pt x="246" y="176" on="1"/>
        <pt x="338" y="169" on="1"/>
        <pt x="367" y="251" on="0"/>
        <pt x="367" y="475" on="0"/>
        <pt x="314" y="587" on="0"/>
        <pt x="275" y="587" on="1"/>
      </contour>
    </TTGlyph>
    <TTGlyph name="R" xMin="62" yMin="-45" xMax="529" yMax="718">
      <contour>
        <pt x="62" y="-9" on="1"/>
        <pt x="75" y="231" on="0"/>
        <pt x="75" y="607" on="0"/>
        <pt x="74" y="666" on="1"/>
        <pt x="184" y="718" on="0"/>
        <pt x="303" y="718" on="1"/>
        <pt x="391" y="718" on="0"/>
        <pt x="510" y="606" on="0"/>
        <pt x="510" y="504" on="1"/>
        <pt x="510" y="386" on="0"/>
        <pt x="343" y="277" on="1"/>
        <pt x="434" y="163" on="0"/>
        <pt x="529" y="26" on="1"/>
        <pt x="433" y="-45" on="1"/>
        <pt x="370" y="50" on="0"/>
        <pt x="207" y="265" on="1"/>
        <pt x="204" y="111" on="0"/>
        <pt x="198" y="-24" on="1"/>
      </contour>
      <contour>
        <pt x="284" y="368" on="0"/>
        <pt x="388" y="471" on="0"/>
        <pt x="388" y="555" on="0"/>
        <pt x="339" y="601" on="0"/>
        <pt x="259" y="601" on="0"/>
        <pt x="211" y="584" on="1"/>
        <pt x="211" y="415" on="0"/>
        <pt x="210" y="333" on="1"/>
      </contour>
    </TTGlyph>
    <TTGlyph name="Racute" xMin="62" yMin="-45" xMax="529" yMax="899">
      <contour>
        <pt x="62" y="-9" on="1"/>
        <pt x="75" y="231" on="0"/>
        <pt x="75" y="607" on="0"/>
        <pt x="74" y="666" on="1"/>
        <pt x="184" y="718" on="0"/>
        <pt x="303" y="718" on="1"/>
        <pt x="391" y="718" on="0"/>
        <pt x="510" y="606" on="0"/>
        <pt x="510" y="504" on="1"/>
        <pt x="510" y="386" on="0"/>
        <pt x="343" y="277" on="1"/>
        <pt x="434" y="163" on="0"/>
        <pt x="529" y="26" on="1"/>
        <pt x="433" y="-45" on="1"/>
        <pt x="370" y="50" on="0"/>
        <pt x="207" y="265" on="1"/>
        <pt x="204" y="111" on="0"/>
        <pt x="198" y="-24" on="1"/>
      </contour>
      <contour>
        <pt x="284" y="368" on="0"/>
        <pt x="388" y="471" on="0"/>
        <pt x="388" y="555" on="0"/>
        <pt x="339" y="601" on="0"/>
        <pt x="259" y="601" on="0"/>
        <pt x="211" y="584" on="1"/>
        <pt x="211" y="415" on="0"/>
        <pt x="210" y="333" on="1"/>
      </contour>
      <contour>
        <pt x="239" y="737" on="1"/>
        <pt x="194" y="794" on="1"/>
        <pt x="307" y="868" on="0"/>
        <pt x="378" y="899" on="1"/>
        <pt x="432" y="810" on="1"/>
        <pt x="337" y="787" on="0"/>
      </contour>
    </TTGlyph>
    <TTGlyph name="Rcaron" xMin="62" yMin="-45" xMax="529" yMax="914">
      <contour>
        <pt x="62" y="-9" on="1"/>
        <pt x="75" y="231" on="0"/>
        <pt x="75" y="607" on="0"/>
        <pt x="74" y="666" on="1"/>
        <pt x="184" y="718" on="0"/>
        <pt x="303" y="718" on="1"/>
        <pt x="391" y="718" on="0"/>
        <pt x="510" y="606" on="0"/>
        <pt x="510" y="504" on="1"/>
        <pt x="510" y="386" on="0"/>
        <pt x="343" y="277" on="1"/>
        <pt x="434" y="163" on="0"/>
        <pt x="529" y="26" on="1"/>
        <pt x="433" y="-45" on="1"/>
        <pt x="370" y="50" on="0"/>
        <pt x="207" y="265" on="1"/>
        <pt x="204" y="111" on="0"/>
        <pt x="198" y="-24" on="1"/>
      </contour>
      <contour>
        <pt x="284" y="368" on="0"/>
        <pt x="388" y="471" on="0"/>
        <pt x="388" y="555" on="0"/>
        <pt x="339" y="601" on="0"/>
        <pt x="259" y="601" on="0"/>
        <pt x="211" y="584" on="1"/>
        <pt x="211" y="415" on="0"/>
        <pt x="210" y="333" on="1"/>
      </contour>
      <contour>
        <pt x="323" y="741" on="1"/>
        <pt x="255" y="746" on="1"/>
        <pt x="224" y="776" on="0"/>
        <pt x="154" y="861" on="1"/>
        <pt x="212" y="905" on="1"/>
        <pt x="264" y="859" on="0"/>
        <pt x="293" y="835" on="1"/>
        <pt x="343" y="870" on="0"/>
        <pt x="393" y="914" on="1"/>
        <pt x="451" y="871" on="1"/>
        <pt x="379" y="790" on="0"/>
      </contour>
    </TTGlyph>
    <TTGlyph name="Rcommaaccent" xMin="62" yMin="-246" xMax="529" yMax="718">
      <contour>
        <pt x="62" y="-9" on="1"/>
        <pt x="75" y="231" on="0"/>
        <pt x="75" y="607" on="0"/>
        <pt x="74" y="666" on="1"/>
        <pt x="184" y="718" on="0"/>
        <pt x="303" y="718" on="1"/>
        <pt x="391" y="718" on="0"/>
        <pt x="510" y="606" on="0"/>
        <pt x="510" y="504" on="1"/>
        <pt x="510" y="386" on="0"/>
        <pt x="343" y="277" on="1"/>
        <pt x="434" y="163" on="0"/>
        <pt x="529" y="26" on="1"/>
        <pt x="433" y="-45" on="1"/>
        <pt x="370" y="50" on="0"/>
        <pt x="207" y="265" on="1"/>
        <pt x="204" y="111" on="0"/>
        <pt x="198" y="-24" on="1"/>
      </contour>
      <contour>
        <pt x="284" y="368" on="0"/>
        <pt x="388" y="471" on="0"/>
        <pt x="388" y="555" on="0"/>
        <pt x="339" y="601" on="0"/>
        <pt x="259" y="601" on="0"/>
        <pt x="211" y="584" on="1"/>
        <pt x="211" y="415" on="0"/>
        <pt x="210" y="333" on="1"/>
      </contour>
      <contour>
        <pt x="229" y="-61" on="1"/>
        <pt x="342" y="-92" on="1"/>
        <pt x="335" y="-128" on="0"/>
        <pt x="294" y="-195" on="0"/>
        <pt x="254" y="-246" on="1"/>
        <pt x="202" y="-238" on="1"/>
        <pt x="223" y="-136" on="0"/>
      </contour>
    </TTGlyph>
    <TTGlyph name="S" xMin="15" yMin="-32" xMax="452" yMax="712">
      <contour>
        <pt x="302" y="437" on="1"/>
        <pt x="315" y="486" on="0"/>
        <pt x="315" y="552" on="0"/>
        <pt x="279" y="595" on="0"/>
        <pt x="222" y="595" on="0"/>
        <pt x="184" y="539" on="0"/>
        <pt x="184" y="503" on="1"/>
        <pt x="184" y="433" on="0"/>
        <pt x="264" y="383" on="1"/>
        <pt x="344" y="331" on="0"/>
        <pt x="402" y="285" on="0"/>
        <pt x="414" y="266" on="1"/>
        <pt x="444" y="217" on="0"/>
        <pt x="444" y="165" on="1"/>
        <pt x="444" y="75" on="0"/>
        <pt x="323" y="-32" on="0"/>
        <pt x="247" y="-32" on="1"/>
        <pt x="157" y="-32" on="0"/>
        <pt x="96" y="44" on="1"/>
        <pt x="52" y="99" on="0"/>
        <pt x="15" y="181" on="1"/>
        <pt x="112" y="228" on="1"/>
        <pt x="135" y="168" on="0"/>
        <pt x="204" y="85" on="0"/>
        <pt x="243" y="85" on="1"/>
        <pt x="268" y="85" on="0"/>
        <pt x="308" y="117" on="0"/>
        <pt x="308" y="182" on="0"/>
        <pt x="258" y="238" on="0"/>
        <pt x="174" y="296" on="0"/>
        <pt x="128" y="333" on="0"/>
        <pt x="100" y="362" on="1"/>
        <pt x="47" y="418" on="0"/>
        <pt x="47" y="593" on="0"/>
        <pt x="169" y="712" on="0"/>
        <pt x="337" y="712" on="0"/>
        <pt x="452" y="582" on="0"/>
        <pt x="452" y="445" on="0"/>
        <pt x="426" y="396" on="1"/>
      </contour>
    </TTGlyph>
    <TTGlyph name="Scaron" xMin="15" yMin="-32" xMax="452" yMax="943">
      <contour>
        <pt x="302" y="437" on="1"/>
        <pt x="315" y="486" on="0"/>
        <pt x="315" y="552" on="0"/>
        <pt x="279" y="595" on="0"/>
        <pt x="222" y="595" on="0"/>
        <pt x="184" y="539" on="0"/>
        <pt x="184" y="503" on="1"/>
        <pt x="184" y="433" on="0"/>
        <pt x="264" y="383" on="1"/>
        <pt x="344" y="331" on="0"/>
        <pt x="402" y="285" on="0"/>
        <pt x="414" y="266" on="1"/>
        <pt x="444" y="217" on="0"/>
        <pt x="444" y="165" on="1"/>
        <pt x="444" y="75" on="0"/>
        <pt x="323" y="-32" on="0"/>
        <pt x="247" y="-32" on="1"/>
        <pt x="157" y="-32" on="0"/>
        <pt x="96" y="44" on="1"/>
        <pt x="52" y="99" on="0"/>
        <pt x="15" y="181" on="1"/>
        <pt x="112" y="228" on="1"/>
        <pt x="135" y="168" on="0"/>
        <pt x="204" y="85" on="0"/>
        <pt x="243" y="85" on="1"/>
        <pt x="268" y="85" on="0"/>
        <pt x="308" y="117" on="0"/>
        <pt x="308" y="182" on="0"/>
        <pt x="258" y="238" on="0"/>
        <pt x="174" y="296" on="0"/>
        <pt x="128" y="333" on="0"/>
        <pt x="100" y="362" on="1"/>
        <pt x="47" y="418" on="0"/>
        <pt x="47" y="593" on="0"/>
        <pt x="169" y="712" on="0"/>
        <pt x="337" y="712" on="0"/>
        <pt x="452" y="582" on="0"/>
        <pt x="452" y="445" on="0"/>
        <pt x="426" y="396" on="1"/>
      </contour>
      <contour>
        <pt x="286" y="770" on="1"/>
        <pt x="218" y="775" on="1"/>
        <pt x="187" y="805" on="0"/>
        <pt x="117" y="890" on="1"/>
        <pt x="175" y="934" on="1"/>
        <pt x="227" y="888" on="0"/>
        <pt x="256" y="864" on="1"/>
        <pt x="306" y="899" on="0"/>
        <pt x="356" y="943" on="1"/>
        <pt x="414" y="900" on="1"/>
        <pt x="342" y="819" on="0"/>
      </contour>
    </TTGlyph>
    <TTGlyph name="Scedilla" xMin="15" yMin="-232" xMax="452" yMax="712">
      <contour>
        <pt x="302" y="437" on="1"/>
        <pt x="315" y="486" on="0"/>
        <pt x="315" y="552" on="0"/>
        <pt x="279" y="595" on="0"/>
        <pt x="222" y="595" on="0"/>
        <pt x="184" y="539" on="0"/>
        <pt x="184" y="503" on="1"/>
        <pt x="184" y="433" on="0"/>
        <pt x="264" y="383" on="1"/>
        <pt x="344" y="331" on="0"/>
        <pt x="402" y="285" on="0"/>
        <pt x="414" y="266" on="1"/>
        <pt x="444" y="217" on="0"/>
        <pt x="444" y="165" on="1"/>
        <pt x="444" y="78" on="0"/>
        <pt x="332" y="-27" on="0"/>
        <pt x="258" y="-31" on="1"/>
        <pt x="260" y="-49" on="0"/>
        <pt x="266" y="-65" on="1"/>
        <pt x="278" y="-62" on="0"/>
        <pt x="289" y="-62" on="1"/>
        <pt x="323" y="-62" on="0"/>
        <pt x="374" y="-104" on="0"/>
        <pt x="374" y="-185" on="0"/>
        <pt x="308" y="-232" on="0"/>
        <pt x="170" y="-232" on="0"/>
        <pt x="113" y="-189" on="1"/>
        <pt x="131" y="-144" on="1"/>
        <pt x="200" y="-181" on="0"/>
        <pt x="246" y="-181" on="1"/>
        <pt x="263" y="-181" on="0"/>
        <pt x="288" y="-166" on="0"/>
        <pt x="288" y="-141" on="0"/>
        <pt x="268" y="-125" on="0"/>
        <pt x="239" y="-125" on="0"/>
        <pt x="225" y="-132" on="1"/>
        <pt x="197" y="-129" on="1"/>
        <pt x="198" y="-71" on="0"/>
        <pt x="214" y="-29" on="1"/>
        <pt x="97" y="-7" on="0"/>
        <pt x="15" y="181" on="1"/>
        <pt x="112" y="228" on="1"/>
        <pt x="135" y="168" on="0"/>
        <pt x="204" y="85" on="0"/>
        <pt x="243" y="85" on="1"/>
        <pt x="268" y="85" on="0"/>
        <pt x="308" y="117" on="0"/>
        <pt x="308" y="182" on="0"/>
        <pt x="258" y="238" on="0"/>
        <pt x="174" y="296" on="0"/>
        <pt x="128" y="333" on="0"/>
        <pt x="100" y="362" on="1"/>
        <pt x="47" y="418" on="0"/>
        <pt x="47" y="593" on="0"/>
        <pt x="169" y="712" on="0"/>
        <pt x="337" y="712" on="0"/>
        <pt x="452" y="582" on="0"/>
        <pt x="452" y="445" on="0"/>
        <pt x="426" y="396" on="1"/>
      </contour>
    </TTGlyph>
    <TTGlyph name="T" xMin="-3" yMin="-13" xMax="397" yMax="715">
      <contour>
        <pt x="145" y="-2" on="1"/>
        <pt x="135" y="175" on="0"/>
        <pt x="135" y="438" on="0"/>
        <pt x="141" y="581" on="1"/>
        <pt x="19" y="564" on="1"/>
        <pt x="-3" y="680" on="1"/>
        <pt x="95" y="697" on="0"/>
        <pt x="191" y="705" on="1"/>
        <pt x="378" y="715" on="1"/>
        <pt x="397" y="604" on="1"/>
        <pt x="342" y="601" on="0"/>
        <pt x="273" y="595" on="1"/>
        <pt x="267" y="451" on="0"/>
        <pt x="267" y="211" on="0"/>
        <pt x="271" y="-13" on="1"/>
      </contour>
    </TTGlyph>
    <TTGlyph name="Thorn" xMin="69" yMin="-25" xMax="475" yMax="704">
      <contour>
        <pt x="249" y="594" on="1"/>
        <pt x="336" y="594" on="0"/>
        <pt x="475" y="463" on="0"/>
        <pt x="475" y="264" on="0"/>
        <pt x="329" y="119" on="0"/>
        <pt x="212" y="85" on="1"/>
        <pt x="212" y="70" on="0"/>
        <pt x="211" y="56" on="0"/>
        <pt x="217" y="-25" on="1"/>
        <pt x="82" y="-13" on="1"/>
        <pt x="69" y="191" on="0"/>
        <pt x="69" y="520" on="0"/>
        <pt x="78" y="704" on="1"/>
        <pt x="213" y="692" on="1"/>
        <pt x="209" y="643" on="0"/>
        <pt x="207" y="591" on="1"/>
        <pt x="228" y="594" on="0"/>
      </contour>
      <contour>
        <pt x="249" y="477" on="1"/>
        <pt x="228" y="477" on="0"/>
        <pt x="204" y="465" on="1"/>
        <pt x="203" y="427" on="0"/>
        <pt x="203" y="298" on="0"/>
        <pt x="205" y="200" on="1"/>
        <pt x="266" y="220" on="0"/>
        <pt x="338" y="306" on="0"/>
        <pt x="338" y="411" on="0"/>
        <pt x="283" y="477" on="0"/>
      </contour>
    </TTGlyph>
    <TTGlyph name="U" xMin="54" yMin="-17" xMax="497" yMax="703">
      <contour>
        <pt x="191" y="235" on="1"/>
        <pt x="191" y="183" on="0"/>
        <pt x="237" y="101" on="0"/>
        <pt x="300" y="101" on="0"/>
        <pt x="338" y="157" on="0"/>
        <pt x="346" y="203" on="1"/>
        <pt x="360" y="284" on="0"/>
        <pt x="360" y="497" on="0"/>
        <pt x="347" y="703" on="1"/>
        <pt x="483" y="689" on="1"/>
        <pt x="497" y="483" on="0"/>
        <pt x="497" y="335" on="0"/>
        <pt x="493" y="276" on="0"/>
        <pt x="481" y="198" on="0"/>
        <pt x="461" y="130" on="0"/>
        <pt x="427" y="62" on="0"/>
        <pt x="404" y="38" on="1"/>
        <pt x="353" y="-17" on="0"/>
        <pt x="178" y="-17" on="0"/>
        <pt x="54" y="139" on="0"/>
        <pt x="54" y="235" on="1"/>
        <pt x="54" y="446" on="0"/>
        <pt x="77" y="685" on="1"/>
        <pt x="213" y="672" on="1"/>
        <pt x="191" y="453" on="0"/>
      </contour>
    </TTGlyph>
    <TTGlyph name="Uacute" xMin="54" yMin="-17" xMax="497" yMax="928">
      <contour>
        <pt x="191" y="235" on="1"/>
        <pt x="191" y="183" on="0"/>
        <pt x="237" y="101" on="0"/>
        <pt x="300" y="101" on="0"/>
        <pt x="338" y="157" on="0"/>
        <pt x="346" y="203" on="1"/>
        <pt x="360" y="284" on="0"/>
        <pt x="360" y="497" on="0"/>
        <pt x="347" y="703" on="1"/>
        <pt x="483" y="689" on="1"/>
        <pt x="497" y="483" on="0"/>
        <pt x="497" y="335" on="0"/>
        <pt x="493" y="276" on="0"/>
        <pt x="481" y="198" on="0"/>
        <pt x="461" y="130" on="0"/>
        <pt x="427" y="62" on="0"/>
        <pt x="404" y="38" on="1"/>
        <pt x="353" y="-17" on="0"/>
        <pt x="178" y="-17" on="0"/>
        <pt x="54" y="139" on="0"/>
        <pt x="54" y="235" on="1"/>
        <pt x="54" y="446" on="0"/>
        <pt x="77" y="685" on="1"/>
        <pt x="213" y="672" on="1"/>
        <pt x="191" y="453" on="0"/>
      </contour>
      <contour>
        <pt x="256" y="766" on="1"/>
        <pt x="211" y="823" on="1"/>
        <pt x="324" y="897" on="0"/>
        <pt x="395" y="928" on="1"/>
        <pt x="449" y="839" on="1"/>
        <pt x="354" y="816" on="0"/>
      </contour>
    </TTGlyph>
    <TTGlyph name="Ucircumflex" xMin="54" yMin="-17" xMax="497" yMax="923">
      <contour>
        <pt x="191" y="235" on="1"/>
        <pt x="191" y="183" on="0"/>
        <pt x="237" y="101" on="0"/>
        <pt x="300" y="101" on="0"/>
        <pt x="338" y="157" on="0"/>
        <pt x="346" y="203" on="1"/>
        <pt x="360" y="284" on="0"/>
        <pt x="360" y="497" on="0"/>
        <pt x="347" y="703" on="1"/>
        <pt x="483" y="689" on="1"/>
        <pt x="497" y="483" on="0"/>
        <pt x="497" y="335" on="0"/>
        <pt x="493" y="276" on="0"/>
        <pt x="481" y="198" on="0"/>
        <pt x="461" y="130" on="0"/>
        <pt x="427" y="62" on="0"/>
        <pt x="404" y="38" on="1"/>
        <pt x="353" y="-17" on="0"/>
        <pt x="178" y="-17" on="0"/>
        <pt x="54" y="139" on="0"/>
        <pt x="54" y="235" on="1"/>
        <pt x="54" y="446" on="0"/>
        <pt x="77" y="685" on="1"/>
        <pt x="213" y="672" on="1"/>
        <pt x="191" y="453" on="0"/>
      </contour>
      <contour>
        <pt x="249" y="923" on="1"/>
        <pt x="317" y="918" on="1"/>
        <pt x="348" y="888" on="0"/>
        <pt x="418" y="803" on="1"/>
        <pt x="360" y="759" on="1"/>
        <pt x="308" y="805" on="0"/>
        <pt x="279" y="829" on="1"/>
        <pt x="229" y="794" on="0"/>
        <pt x="179" y="750" on="1"/>
        <pt x="121" y="793" on="1"/>
        <pt x="193" y="874" on="0"/>
      </contour>
    </TTGlyph>
    <TTGlyph name="Udieresis" xMin="54" yMin="-17" xMax="497" yMax="910">
      <contour>
        <pt x="191" y="235" on="1"/>
        <pt x="191" y="183" on="0"/>
        <pt x="237" y="101" on="0"/>
        <pt x="300" y="101" on="0"/>
        <pt x="338" y="157" on="0"/>
        <pt x="346" y="203" on="1"/>
        <pt x="360" y="284" on="0"/>
        <pt x="360" y="497" on="0"/>
        <pt x="347" y="703" on="1"/>
        <pt x="483" y="689" on="1"/>
        <pt x="497" y="483" on="0"/>
        <pt x="497" y="335" on="0"/>
        <pt x="493" y="276" on="0"/>
        <pt x="481" y="198" on="0"/>
        <pt x="461" y="130" on="0"/>
        <pt x="427" y="62" on="0"/>
        <pt x="404" y="38" on="1"/>
        <pt x="353" y="-17" on="0"/>
        <pt x="178" y="-17" on="0"/>
        <pt x="54" y="139" on="0"/>
        <pt x="54" y="235" on="1"/>
        <pt x="54" y="446" on="0"/>
        <pt x="77" y="685" on="1"/>
        <pt x="213" y="672" on="1"/>
        <pt x="191" y="453" on="0"/>
      </contour>
      <contour>
        <pt x="249" y="900" on="1"/>
        <pt x="260" y="884" on="0"/>
        <pt x="260" y="800" on="0"/>
        <pt x="246" y="778" on="1"/>
        <pt x="151" y="788" on="1"/>
        <pt x="160" y="838" on="0"/>
        <pt x="160" y="890" on="0"/>
        <pt x="159" y="908" on="1"/>
      </contour>
      <contour>
        <pt x="404" y="902" on="1"/>
        <pt x="415" y="886" on="0"/>
        <pt x="415" y="802" on="0"/>
        <pt x="401" y="780" on="1"/>
        <pt x="306" y="790" on="1"/>
        <pt x="315" y="840" on="0"/>
        <pt x="315" y="892" on="0"/>
        <pt x="314" y="910" on="1"/>
      </contour>
    </TTGlyph>
    <TTGlyph name="Ugrave" xMin="54" yMin="-17" xMax="497" yMax="928">
      <contour>
        <pt x="191" y="235" on="1"/>
        <pt x="191" y="183" on="0"/>
        <pt x="237" y="101" on="0"/>
        <pt x="300" y="101" on="0"/>
        <pt x="338" y="157" on="0"/>
        <pt x="346" y="203" on="1"/>
        <pt x="360" y="284" on="0"/>
        <pt x="360" y="497" on="0"/>
        <pt x="347" y="703" on="1"/>
        <pt x="483" y="689" on="1"/>
        <pt x="497" y="483" on="0"/>
        <pt x="497" y="335" on="0"/>
        <pt x="493" y="276" on="0"/>
        <pt x="481" y="198" on="0"/>
        <pt x="461" y="130" on="0"/>
        <pt x="427" y="62" on="0"/>
        <pt x="404" y="38" on="1"/>
        <pt x="353" y="-17" on="0"/>
        <pt x="178" y="-17" on="0"/>
        <pt x="54" y="139" on="0"/>
        <pt x="54" y="235" on="1"/>
        <pt x="54" y="446" on="0"/>
        <pt x="77" y="685" on="1"/>
        <pt x="213" y="672" on="1"/>
        <pt x="191" y="453" on="0"/>
      </contour>
      <contour>
        <pt x="349" y="823" on="1"/>
        <pt x="304" y="766" on="1"/>
        <pt x="206" y="816" on="0"/>
        <pt x="111" y="839" on="1"/>
        <pt x="165" y="928" on="1"/>
        <pt x="236" y="897" on="0"/>
      </contour>
    </TTGlyph>
    <TTGlyph name="V" xMin="21" yMin="-6" xMax="494" yMax="716">
      <contour>
        <pt x="21" y="680" on="1"/>
        <pt x="150" y="668" on="1"/>
        <pt x="188" y="419" on="0"/>
        <pt x="245" y="189" on="1"/>
        <pt x="249" y="190" on="1"/>
        <pt x="319" y="459" on="0"/>
        <pt x="362" y="716" on="1"/>
        <pt x="494" y="705" on="1"/>
        <pt x="427" y="361" on="0"/>
        <pt x="295" y="-6" on="1"/>
        <pt x="180" y="4" on="1"/>
        <pt x="78" y="365" on="0"/>
      </contour>
    </TTGlyph>
    <TTGlyph name="W" xMin="40" yMin="-4" xMax="669" yMax="699">
      <contour>
        <pt x="299" y="626" on="1"/>
        <pt x="399" y="617" on="1"/>
        <pt x="406" y="537" on="0"/>
        <pt x="435" y="274" on="0"/>
        <pt x="441" y="219" on="1"/>
        <pt x="446" y="220" on="1"/>
        <pt x="517" y="526" on="0"/>
        <pt x="538" y="699" on="1"/>
        <pt x="669" y="688" on="1"/>
        <pt x="613" y="357" on="0"/>
        <pt x="505" y="8" on="1"/>
        <pt x="409" y="16" on="1"/>
        <pt x="375" y="134" on="0"/>
        <pt x="333" y="325" on="1"/>
        <pt x="290" y="119" on="0"/>
        <pt x="251" y="-4" on="1"/>
        <pt x="155" y="4" on="1"/>
        <pt x="70" y="428" on="0"/>
        <pt x="40" y="692" on="1"/>
        <pt x="169" y="681" on="1"/>
        <pt x="185" y="512" on="0"/>
        <pt x="219" y="219" on="1"/>
        <pt x="224" y="220" on="1"/>
        <pt x="282" y="487" on="0"/>
      </contour>
    </TTGlyph>
    <TTGlyph name="X" xMin="23" yMin="-30" xMax="478" yMax="700">
      <contour>
        <pt x="23" y="35" on="1"/>
        <pt x="87" y="192" on="0"/>
        <pt x="163" y="336" on="1"/>
        <pt x="84" y="514" on="0"/>
        <pt x="50" y="667" on="1"/>
        <pt x="189" y="655" on="1"/>
        <pt x="199" y="581" on="0"/>
        <pt x="239" y="437" on="1"/>
        <pt x="305" y="571" on="0"/>
        <pt x="381" y="700" on="1"/>
        <pt x="478" y="617" on="1"/>
        <pt x="395" y="493" on="0"/>
        <pt x="306" y="325" on="1"/>
        <pt x="363" y="186" on="0"/>
        <pt x="452" y="-8" on="1"/>
        <pt x="317" y="6" on="1"/>
        <pt x="278" y="95" on="0"/>
        <pt x="233" y="220" on="1"/>
        <pt x="154" y="50" on="0"/>
        <pt x="128" y="-30" on="1"/>
      </contour>
    </TTGlyph>
    <TTGlyph name="Y" xMin="16" yMin="-21" xMax="478" yMax="714">
      <contour>
        <pt x="161" y="191" on="1"/>
        <pt x="161" y="268" on="1"/>
        <pt x="30" y="545" on="0"/>
        <pt x="16" y="667" on="1"/>
        <pt x="141" y="655" on="1"/>
        <pt x="163" y="543" on="0"/>
        <pt x="233" y="387" on="1"/>
        <pt x="316" y="568" on="0"/>
        <pt x="362" y="714" on="1"/>
        <pt x="478" y="703" on="1"/>
        <pt x="404" y="492" on="0"/>
        <pt x="300" y="274" on="1"/>
        <pt x="298" y="184" on="0"/>
        <pt x="298" y="48" on="0"/>
        <pt x="302" y="-21" on="1"/>
        <pt x="170" y="-7" on="1"/>
        <pt x="161" y="86" on="0"/>
      </contour>
    </TTGlyph>
    <TTGlyph name="Yacute" xMin="16" yMin="-21" xMax="478" yMax="928">
      <contour>
        <pt x="161" y="191" on="1"/>
        <pt x="161" y="268" on="1"/>
        <pt x="30" y="545" on="0"/>
        <pt x="16" y="667" on="1"/>
        <pt x="141" y="655" on="1"/>
        <pt x="163" y="543" on="0"/>
        <pt x="233" y="387" on="1"/>
        <pt x="316" y="568" on="0"/>
        <pt x="362" y="714" on="1"/>
        <pt x="478" y="703" on="1"/>
        <pt x="404" y="492" on="0"/>
        <pt x="300" y="274" on="1"/>
        <pt x="298" y="184" on="0"/>
        <pt x="298" y="48" on="0"/>
        <pt x="302" y="-21" on="1"/>
        <pt x="170" y="-7" on="1"/>
        <pt x="161" y="86" on="0"/>
      </contour>
      <contour>
        <pt x="210" y="766" on="1"/>
        <pt x="165" y="823" on="1"/>
        <pt x="278" y="897" on="0"/>
        <pt x="349" y="928" on="1"/>
        <pt x="403" y="839" on="1"/>
        <pt x="308" y="816" on="0"/>
      </contour>
    </TTGlyph>
    <TTGlyph name="Ydieresis" xMin="16" yMin="-21" xMax="478" yMax="910">
      <contour>
        <pt x="161" y="191" on="1"/>
        <pt x="161" y="268" on="1"/>
        <pt x="30" y="545" on="0"/>
        <pt x="16" y="667" on="1"/>
        <pt x="141" y="655" on="1"/>
        <pt x="163" y="543" on="0"/>
        <pt x="233" y="387" on="1"/>
        <pt x="316" y="568" on="0"/>
        <pt x="362" y="714" on="1"/>
        <pt x="478" y="703" on="1"/>
        <pt x="404" y="492" on="0"/>
        <pt x="300" y="274" on="1"/>
        <pt x="298" y="184" on="0"/>
        <pt x="298" y="48" on="0"/>
        <pt x="302" y="-21" on="1"/>
        <pt x="170" y="-7" on="1"/>
        <pt x="161" y="86" on="0"/>
      </contour>
      <contour>
        <pt x="223" y="900" on="1"/>
        <pt x="234" y="884" on="0"/>
        <pt x="234" y="800" on="0"/>
        <pt x="220" y="778" on="1"/>
        <pt x="125" y="788" on="1"/>
        <pt x="134" y="838" on="0"/>
        <pt x="134" y="890" on="0"/>
        <pt x="133" y="908" on="1"/>
      </contour>
      <contour>
        <pt x="378" y="902" on="1"/>
        <pt x="389" y="886" on="0"/>
        <pt x="389" y="802" on="0"/>
        <pt x="375" y="780" on="1"/>
        <pt x="280" y="790" on="1"/>
        <pt x="289" y="840" on="0"/>
        <pt x="289" y="892" on="0"/>
        <pt x="288" y="910" on="1"/>
      </contour>
    </TTGlyph>
    <TTGlyph name="Z" xMin="39" yMin="-15" xMax="465" yMax="685">
      <contour>
        <pt x="193" y="122" on="1"/>
        <pt x="229" y="125" on="0"/>
        <pt x="347" y="125" on="0"/>
        <pt x="440" y="111" on="1"/>
        <pt x="423" y="-8" on="1"/>
        <pt x="310" y="7" on="0"/>
        <pt x="187" y="7" on="0"/>
        <pt x="55" y="-15" on="1"/>
        <pt x="39" y="90" on="1"/>
        <pt x="227" y="390" on="0"/>
        <pt x="315" y="562" on="1"/>
        <pt x="177" y="554" on="0"/>
        <pt x="74" y="539" on="1"/>
        <pt x="55" y="656" on="1"/>
        <pt x="178" y="682" on="0"/>
        <pt x="448" y="685" on="1"/>
        <pt x="465" y="598" on="1"/>
        <pt x="317" y="316" on="0"/>
      </contour>
    </TTGlyph>
    <TTGlyph name="Zcaron" xMin="39" yMin="-15" xMax="465" yMax="943">
      <contour>
        <pt x="193" y="122" on="1"/>
        <pt x="229" y="125" on="0"/>
        <pt x="347" y="125" on="0"/>
        <pt x="440" y="111" on="1"/>
        <pt x="423" y="-8" on="1"/>
        <pt x="310" y="7" on="0"/>
        <pt x="187" y="7" on="0"/>
        <pt x="55" y="-15" on="1"/>
        <pt x="39" y="90" on="1"/>
        <pt x="227" y="390" on="0"/>
        <pt x="315" y="562" on="1"/>
        <pt x="177" y="554" on="0"/>
        <pt x="74" y="539" on="1"/>
        <pt x="55" y="656" on="1"/>
        <pt x="178" y="682" on="0"/>
        <pt x="448" y="685" on="1"/>
        <pt x="465" y="598" on="1"/>
        <pt x="317" y="316" on="0"/>
      </contour>
      <contour>
        <pt x="283" y="770" on="1"/>
        <pt x="215" y="775" on="1"/>
        <pt x="184" y="805" on="0"/>
        <pt x="114" y="890" on="1"/>
        <pt x="172" y="934" on="1"/>
        <pt x="224" y="888" on="0"/>
        <pt x="253" y="864" on="1"/>
        <pt x="303" y="899" on="0"/>
        <pt x="353" y="943" on="1"/>
        <pt x="411" y="900" on="1"/>
        <pt x="339" y="819" on="0"/>
      </contour>
    </TTGlyph>
    <TTGlyph name="a" xMin="33" yMin="-22" xMax="346" yMax="482">
      <contour>
        <pt x="61" y="373" on="0"/>
        <pt x="145" y="482" on="0"/>
        <pt x="281" y="482" on="0"/>
        <pt x="346" y="369" on="0"/>
        <pt x="346" y="161" on="0"/>
        <pt x="334" y="-22" on="1"/>
        <pt x="250" y="-15" on="1"/>
        <pt x="242" y="17" on="1"/>
        <pt x="195" y="-10" on="0"/>
        <pt x="97" y="-10" on="0"/>
        <pt x="33" y="55" on="0"/>
        <pt x="33" y="177" on="0"/>
        <pt x="154" y="265" on="0"/>
        <pt x="233" y="267" on="1"/>
        <pt x="233" y="294" on="1"/>
        <pt x="233" y="373" on="0"/>
        <pt x="195" y="373" on="1"/>
        <pt x="176" y="373" on="0"/>
        <pt x="145" y="320" on="0"/>
        <pt x="138" y="286" on="1"/>
        <pt x="46" y="295" on="1"/>
      </contour>
      <contour>
        <pt x="135" y="110" on="1"/>
        <pt x="135" y="78" on="0"/>
        <pt x="173" y="78" on="1"/>
        <pt x="199" y="78" on="0"/>
        <pt x="228" y="90" on="1"/>
        <pt x="230" y="174" on="1"/>
        <pt x="183" y="170" on="0"/>
        <pt x="135" y="131" on="0"/>
      </contour>
    </TTGlyph>
    <TTGlyph name="aacute" xMin="33" yMin="-22" xMax="387" yMax="677">
      <contour>
        <pt x="61" y="373" on="0"/>
        <pt x="145" y="482" on="0"/>
        <pt x="281" y="482" on="0"/>
        <pt x="346" y="369" on="0"/>
        <pt x="346" y="161" on="0"/>
        <pt x="334" y="-22" on="1"/>
        <pt x="250" y="-15" on="1"/>
        <pt x="242" y="17" on="1"/>
        <pt x="195" y="-10" on="0"/>
        <pt x="97" y="-10" on="0"/>
        <pt x="33" y="55" on="0"/>
        <pt x="33" y="177" on="0"/>
        <pt x="154" y="265" on="0"/>
        <pt x="233" y="267" on="1"/>
        <pt x="233" y="294" on="1"/>
        <pt x="233" y="373" on="0"/>
        <pt x="195" y="373" on="1"/>
        <pt x="176" y="373" on="0"/>
        <pt x="145" y="320" on="0"/>
        <pt x="138" y="286" on="1"/>
        <pt x="46" y="295" on="1"/>
      </contour>
      <contour>
        <pt x="135" y="110" on="1"/>
        <pt x="135" y="78" on="0"/>
        <pt x="173" y="78" on="1"/>
        <pt x="199" y="78" on="0"/>
        <pt x="228" y="90" on="1"/>
        <pt x="230" y="174" on="1"/>
        <pt x="183" y="170" on="0"/>
        <pt x="135" y="131" on="0"/>
      </contour>
      <contour>
        <pt x="194" y="515" on="1"/>
        <pt x="149" y="572" on="1"/>
        <pt x="262" y="646" on="0"/>
        <pt x="333" y="677" on="1"/>
        <pt x="387" y="588" on="1"/>
        <pt x="292" y="565" on="0"/>
      </contour>
    </TTGlyph>
    <TTGlyph name="acircumflex" xMin="33" yMin="-22" xMax="356" yMax="672">
      <contour>
        <pt x="61" y="373" on="0"/>
        <pt x="145" y="482" on="0"/>
        <pt x="281" y="482" on="0"/>
        <pt x="346" y="369" on="0"/>
        <pt x="346" y="161" on="0"/>
        <pt x="334" y="-22" on="1"/>
        <pt x="250" y="-15" on="1"/>
        <pt x="242" y="17" on="1"/>
        <pt x="195" y="-10" on="0"/>
        <pt x="97" y="-10" on="0"/>
        <pt x="33" y="55" on="0"/>
        <pt x="33" y="177" on="0"/>
        <pt x="154" y="265" on="0"/>
        <pt x="233" y="267" on="1"/>
        <pt x="233" y="294" on="1"/>
        <pt x="233" y="373" on="0"/>
        <pt x="195" y="373" on="1"/>
        <pt x="176" y="373" on="0"/>
        <pt x="145" y="320" on="0"/>
        <pt x="138" y="286" on="1"/>
        <pt x="46" y="295" on="1"/>
      </contour>
      <contour>
        <pt x="135" y="110" on="1"/>
        <pt x="135" y="78" on="0"/>
        <pt x="173" y="78" on="1"/>
        <pt x="199" y="78" on="0"/>
        <pt x="228" y="90" on="1"/>
        <pt x="230" y="174" on="1"/>
        <pt x="183" y="170" on="0"/>
        <pt x="135" y="131" on="0"/>
      </contour>
      <contour>
        <pt x="187" y="672" on="1"/>
        <pt x="255" y="667" on="1"/>
        <pt x="286" y="637" on="0"/>
        <pt x="356" y="552" on="1"/>
        <pt x="298" y="508" on="1"/>
        <pt x="246" y="554" on="0"/>
        <pt x="217" y="578" on="1"/>
        <pt x="167" y="543" on="0"/>
        <pt x="117" y="499" on="1"/>
        <pt x="59" y="542" on="1"/>
        <pt x="131" y="623" on="0"/>
      </contour>
    </TTGlyph>
    <TTGlyph name="acute" xMin="185" yMin="515" xMax="423" yMax="677">
      <contour>
        <pt x="230" y="515" on="1"/>
        <pt x="185" y="572" on="1"/>
        <pt x="298" y="646" on="0"/>
        <pt x="369" y="677" on="1"/>
        <pt x="423" y="588" on="1"/>
        <pt x="328" y="565" on="0"/>
      </contour>
    </TTGlyph>
    <TTGlyph name="acute.cap" xMin="55" yMin="766" xMax="293" yMax="928">
      <contour>
        <pt x="100" y="766" on="1"/>
        <pt x="55" y="823" on="1"/>
        <pt x="168" y="897" on="0"/>
        <pt x="239" y="928" on="1"/>
        <pt x="293" y="839" on="1"/>
        <pt x="198" y="816" on="0"/>
      </contour>
    </TTGlyph>
    <TTGlyph name="adieresis" xMin="33" yMin="-22" xMax="346" yMax="659">
      <contour>
        <pt x="61" y="373" on="0"/>
        <pt x="145" y="482" on="0"/>
        <pt x="281" y="482" on="0"/>
        <pt x="346" y="369" on="0"/>
        <pt x="346" y="161" on="0"/>
        <pt x="334" y="-22" on="1"/>
        <pt x="250" y="-15" on="1"/>
        <pt x="242" y="17" on="1"/>
        <pt x="195" y="-10" on="0"/>
        <pt x="97" y="-10" on="0"/>
        <pt x="33" y="55" on="0"/>
        <pt x="33" y="177" on="0"/>
        <pt x="154" y="265" on="0"/>
        <pt x="233" y="267" on="1"/>
        <pt x="233" y="294" on="1"/>
        <pt x="233" y="373" on="0"/>
        <pt x="195" y="373" on="1"/>
        <pt x="176" y="373" on="0"/>
        <pt x="145" y="320" on="0"/>
        <pt x="138" y="286" on="1"/>
        <pt x="46" y="295" on="1"/>
      </contour>
      <contour>
        <pt x="135" y="110" on="1"/>
        <pt x="135" y="78" on="0"/>
        <pt x="173" y="78" on="1"/>
        <pt x="199" y="78" on="0"/>
        <pt x="228" y="90" on="1"/>
        <pt x="230" y="174" on="1"/>
        <pt x="183" y="170" on="0"/>
        <pt x="135" y="131" on="0"/>
      </contour>
      <contour>
        <pt x="177" y="649" on="1"/>
        <pt x="188" y="633" on="0"/>
        <pt x="188" y="549" on="0"/>
        <pt x="174" y="527" on="1"/>
        <pt x="79" y="537" on="1"/>
        <pt x="88" y="586" on="0"/>
        <pt x="88" y="639" on="0"/>
        <pt x="87" y="657" on="1"/>
      </contour>
      <contour>
        <pt x="332" y="651" on="1"/>
        <pt x="343" y="635" on="0"/>
        <pt x="343" y="551" on="0"/>
        <pt x="329" y="529" on="1"/>
        <pt x="234" y="539" on="1"/>
        <pt x="243" y="588" on="0"/>
        <pt x="243" y="641" on="0"/>
        <pt x="242" y="659" on="1"/>
      </contour>
    </TTGlyph>
    <TTGlyph name="ae" xMin="33" yMin="-21" xMax="544" yMax="482">
      <contour>
        <pt x="61" y="373" on="0"/>
        <pt x="145" y="482" on="0"/>
        <pt x="266" y="482" on="0"/>
        <pt x="301" y="437" on="1"/>
        <pt x="341" y="477" on="0"/>
        <pt x="399" y="477" on="1"/>
        <pt x="454" y="477" on="0"/>
        <pt x="492" y="436" on="1"/>
        <pt x="516" y="410" on="0"/>
        <pt x="532" y="342" on="1"/>
        <pt x="544" y="293" on="0"/>
        <pt x="544" y="200" on="1"/>
        <pt x="464" y="178" on="0"/>
        <pt x="337" y="160" on="1"/>
        <pt x="340" y="120" on="0"/>
        <pt x="362" y="72" on="0"/>
        <pt x="377" y="72" on="1"/>
        <pt x="415" y="72" on="0"/>
        <pt x="458" y="145" on="1"/>
        <pt x="534" y="100" on="1"/>
        <pt x="515" y="67" on="0"/>
        <pt x="480" y="21" on="0"/>
        <pt x="410" y="-21" on="0"/>
        <pt x="312" y="-21" on="0"/>
        <pt x="273" y="24" on="1"/>
        <pt x="230" y="-10" on="0"/>
        <pt x="97" y="-10" on="0"/>
        <pt x="33" y="55" on="0"/>
        <pt x="33" y="177" on="0"/>
        <pt x="154" y="265" on="0"/>
        <pt x="233" y="267" on="1"/>
        <pt x="233" y="294" on="1"/>
        <pt x="233" y="373" on="0"/>
        <pt x="195" y="373" on="1"/>
        <pt x="176" y="373" on="0"/>
        <pt x="145" y="320" on="0"/>
        <pt x="138" y="286" on="1"/>
        <pt x="46" y="295" on="1"/>
      </contour>
      <contour>
        <pt x="399" y="379" on="1"/>
        <pt x="377" y="379" on="0"/>
        <pt x="342" y="291" on="0"/>
        <pt x="339" y="233" on="1"/>
        <pt x="392" y="244" on="0"/>
        <pt x="431" y="254" on="1"/>
        <pt x="431" y="379" on="0"/>
      </contour>
      <contour>
        <pt x="135" y="110" on="1"/>
        <pt x="135" y="78" on="0"/>
        <pt x="173" y="78" on="1"/>
        <pt x="199" y="78" on="0"/>
        <pt x="228" y="90" on="1"/>
        <pt x="230" y="174" on="1"/>
        <pt x="183" y="170" on="0"/>
        <pt x="135" y="131" on="0"/>
      </contour>
    </TTGlyph>
    <TTGlyph name="agrave" xMin="33" yMin="-22" xMax="346" yMax="677">
      <contour>
        <pt x="61" y="373" on="0"/>
        <pt x="145" y="482" on="0"/>
        <pt x="281" y="482" on="0"/>
        <pt x="346" y="369" on="0"/>
        <pt x="346" y="161" on="0"/>
        <pt x="334" y="-22" on="1"/>
        <pt x="250" y="-15" on="1"/>
        <pt x="242" y="17" on="1"/>
        <pt x="195" y="-10" on="0"/>
        <pt x="97" y="-10" on="0"/>
        <pt x="33" y="55" on="0"/>
        <pt x="33" y="177" on="0"/>
        <pt x="154" y="265" on="0"/>
        <pt x="233" y="267" on="1"/>
        <pt x="233" y="294" on="1"/>
        <pt x="233" y="373" on="0"/>
        <pt x="195" y="373" on="1"/>
        <pt x="176" y="373" on="0"/>
        <pt x="145" y="320" on="0"/>
        <pt x="138" y="286" on="1"/>
        <pt x="46" y="295" on="1"/>
      </contour>
      <contour>
        <pt x="135" y="110" on="1"/>
        <pt x="135" y="78" on="0"/>
        <pt x="173" y="78" on="1"/>
        <pt x="199" y="78" on="0"/>
        <pt x="228" y="90" on="1"/>
        <pt x="230" y="174" on="1"/>
        <pt x="183" y="170" on="0"/>
        <pt x="135" y="131" on="0"/>
      </contour>
      <contour>
        <pt x="287" y="572" on="1"/>
        <pt x="242" y="515" on="1"/>
        <pt x="144" y="565" on="0"/>
        <pt x="49" y="588" on="1"/>
        <pt x="103" y="677" on="1"/>
        <pt x="174" y="646" on="0"/>
      </contour>
    </TTGlyph>
    <TTGlyph name="ampersand" xMin="19" yMin="-49" xMax="570" yMax="692">
      <contour>
        <pt x="465" y="-49" on="1"/>
        <pt x="443" y="-27" on="0"/>
        <pt x="367" y="45" on="1"/>
        <pt x="262" y="-10" on="0"/>
        <pt x="205" y="-10" on="1"/>
        <pt x="124" y="-10" on="0"/>
        <pt x="19" y="73" on="0"/>
        <pt x="19" y="140" on="1"/>
        <pt x="19" y="187" on="0"/>
        <pt x="81" y="265" on="0"/>
        <pt x="141" y="312" on="1"/>
        <pt x="86" y="405" on="0"/>
        <pt x="86" y="474" on="1"/>
        <pt x="86" y="565" on="0"/>
        <pt x="216" y="692" on="0"/>
        <pt x="378" y="692" on="0"/>
        <pt x="478" y="598" on="0"/>
        <pt x="478" y="531" on="1"/>
        <pt x="478" y="448" on="0"/>
        <pt x="403" y="378" on="1"/>
        <pt x="368" y="345" on="0"/>
        <pt x="305" y="296" on="1"/>
        <pt x="337" y="254" on="0"/>
        <pt x="392" y="194" on="1"/>
        <pt x="420" y="213" on="0"/>
        <pt x="484" y="258" on="1"/>
        <pt x="570" y="178" on="1"/>
        <pt x="539" y="154" on="0"/>
        <pt x="474" y="109" on="1"/>
        <pt x="489" y="94" on="0"/>
        <pt x="553" y="33" on="0"/>
        <pt x="565" y="21" on="1"/>
      </contour>
      <contour>
        <pt x="258" y="577" on="0"/>
        <pt x="216" y="524" on="0"/>
        <pt x="216" y="443" on="0"/>
        <pt x="244" y="390" on="1"/>
        <pt x="353" y="471" on="0"/>
        <pt x="353" y="511" on="1"/>
        <pt x="353" y="541" on="0"/>
        <pt x="317" y="577" on="0"/>
      </contour>
      <contour>
        <pt x="149" y="129" on="0"/>
        <pt x="181" y="100" on="0"/>
        <pt x="228" y="100" on="0"/>
        <pt x="285" y="130" on="1"/>
        <pt x="242" y="174" on="0"/>
        <pt x="205" y="222" on="1"/>
        <pt x="149" y="178" on="0"/>
      </contour>
    </TTGlyph>
    <TTGlyph name="apple" xMin="55" yMin="-17" xMax="735" yMax="788">
      <contour>
        <pt x="408" y="594" on="1"/>
        <pt x="408" y="594" on="0"/>
        <pt x="407" y="612" on="1"/>
        <pt x="407" y="674" on="0"/>
        <pt x="505" y="779" on="0"/>
        <pt x="569" y="788" on="1"/>
        <pt x="570" y="758" on="1"/>
        <pt x="570" y="702" on="0"/>
        <pt x="475" y="593" on="0"/>
        <pt x="420" y="593" on="1"/>
        <pt x="413" y="593" on="0"/>
      </contour>
      <contour>
        <pt x="535" y="-17" on="1"/>
        <pt x="510" y="-17" on="0"/>
        <pt x="432" y="15" on="0"/>
        <pt x="388" y="15" on="0"/>
        <pt x="306" y="-17" on="0"/>
        <pt x="285" y="-17" on="1"/>
        <pt x="224" y="-17" on="0"/>
        <pt x="159" y="69" on="1"/>
        <pt x="55" y="210" on="0"/>
        <pt x="55" y="360" on="1"/>
        <pt x="55" y="463" on="0"/>
        <pt x="174" y="601" on="0"/>
        <pt x="274" y="601" on="1"/>
        <pt x="306" y="601" on="0"/>
        <pt x="391" y="568" on="0"/>
        <pt x="426" y="568" on="0"/>
        <pt x="514" y="602" on="0"/>
        <pt x="544" y="602" on="1"/>
        <pt x="651" y="602" on="0"/>
        <pt x="719" y="522" on="1"/>
        <pt x="621" y="459" on="0"/>
        <pt x="621" y="362" on="1"/>
        <pt x="621" y="249" on="0"/>
        <pt x="735" y="197" on="1"/>
        <pt x="680" y="76" on="0"/>
        <pt x="634" y="29" on="1"/>
        <pt x="591" y="-17" on="0"/>
      </contour>
    </TTGlyph>
    <TTGlyph name="approxequal" xMin="85" yMin="95" xMax="748" yMax="511">
      <contour>
        <pt x="97" y="383" on="0"/>
        <pt x="206" y="496" on="0"/>
        <pt x="325" y="496" on="0"/>
        <pt x="483" y="454" on="0"/>
        <pt x="520" y="454" on="1"/>
        <pt x="608" y="454" on="0"/>
        <pt x="660" y="511" on="1"/>
        <pt x="748" y="504" on="1"/>
        <pt x="734" y="421" on="0"/>
        <pt x="623" y="328" on="0"/>
        <pt x="538" y="328" on="1"/>
        <pt x="476" y="328" on="0"/>
        <pt x="315" y="378" on="0"/>
        <pt x="252" y="378" on="0"/>
        <pt x="205" y="336" on="0"/>
        <pt x="197" y="307" on="1"/>
        <pt x="85" y="318" on="1"/>
      </contour>
      <contour>
        <pt x="97" y="171" on="0"/>
        <pt x="206" y="284" on="0"/>
        <pt x="325" y="284" on="0"/>
        <pt x="483" y="242" on="0"/>
        <pt x="520" y="242" on="1"/>
        <pt x="608" y="242" on="0"/>
        <pt x="660" y="299" on="1"/>
        <pt x="748" y="292" on="1"/>
        <pt x="734" y="209" on="0"/>
        <pt x="623" y="116" on="0"/>
        <pt x="538" y="116" on="1"/>
        <pt x="476" y="116" on="0"/>
        <pt x="315" y="166" on="0"/>
        <pt x="252" y="166" on="0"/>
        <pt x="205" y="124" on="0"/>
        <pt x="197" y="95" on="1"/>
        <pt x="85" y="106" on="1"/>
      </contour>
    </TTGlyph>
    <TTGlyph name="aring" xMin="33" yMin="-22" xMax="346" yMax="726">
      <contour>
        <pt x="61" y="373" on="0"/>
        <pt x="145" y="482" on="0"/>
        <pt x="281" y="482" on="0"/>
        <pt x="346" y="369" on="0"/>
        <pt x="346" y="161" on="0"/>
        <pt x="334" y="-22" on="1"/>
        <pt x="250" y="-15" on="1"/>
        <pt x="242" y="17" on="1"/>
        <pt x="195" y="-10" on="0"/>
        <pt x="97" y="-10" on="0"/>
        <pt x="33" y="55" on="0"/>
        <pt x="33" y="177" on="0"/>
        <pt x="154" y="265" on="0"/>
        <pt x="233" y="267" on="1"/>
        <pt x="233" y="294" on="1"/>
        <pt x="233" y="373" on="0"/>
        <pt x="195" y="373" on="1"/>
        <pt x="176" y="373" on="0"/>
        <pt x="145" y="320" on="0"/>
        <pt x="138" y="286" on="1"/>
        <pt x="46" y="295" on="1"/>
      </contour>
      <contour>
        <pt x="135" y="110" on="1"/>
        <pt x="135" y="78" on="0"/>
        <pt x="173" y="78" on="1"/>
        <pt x="199" y="78" on="0"/>
        <pt x="228" y="90" on="1"/>
        <pt x="230" y="174" on="1"/>
        <pt x="183" y="170" on="0"/>
        <pt x="135" y="131" on="0"/>
      </contour>
      <contour>
        <pt x="169" y="589" on="0"/>
        <pt x="191" y="566" on="0"/>
        <pt x="232" y="566" on="0"/>
        <pt x="261" y="605" on="0"/>
        <pt x="261" y="649" on="0"/>
        <pt x="239" y="671" on="0"/>
        <pt x="198" y="671" on="0"/>
        <pt x="169" y="633" on="0"/>
      </contour>
      <contour>
        <pt x="331" y="585" on="0"/>
        <pt x="261" y="511" on="0"/>
        <pt x="160" y="511" on="0"/>
        <pt x="99" y="564" on="0"/>
        <pt x="99" y="652" on="0"/>
        <pt x="169" y="726" on="0"/>
        <pt x="270" y="726" on="0"/>
        <pt x="331" y="673" on="0"/>
      </contour>
    </TTGlyph>
    <TTGlyph name="asciicircum" xMin="186" yMin="355" xMax="827" yMax="742">
      <contour>
        <pt x="452" y="742" on="1"/>
        <pt x="561" y="731" on="1"/>
        <pt x="675" y="551" on="0"/>
        <pt x="827" y="395" on="1"/>
        <pt x="692" y="360" on="1"/>
        <pt x="574" y="494" on="0"/>
        <pt x="500" y="614" on="1"/>
        <pt x="374" y="479" on="0"/>
        <pt x="307" y="355" on="1"/>
        <pt x="186" y="391" on="1"/>
        <pt x="266" y="559" on="0"/>
      </contour>
    </TTGlyph>
    <TTGlyph name="asciitilde" xMin="85" yMin="203" xMax="748" yMax="407">
      <contour>
        <pt x="97" y="279" on="0"/>
        <pt x="206" y="392" on="0"/>
        <pt x="325" y="392" on="0"/>
        <pt x="483" y="350" on="0"/>
        <pt x="520" y="350" on="1"/>
        <pt x="608" y="350" on="0"/>
        <pt x="660" y="407" on="1"/>
        <pt x="748" y="400" on="1"/>
        <pt x="734" y="317" on="0"/>
        <pt x="623" y="224" on="0"/>
        <pt x="538" y="224" on="1"/>
        <pt x="476" y="224" on="0"/>
        <pt x="315" y="274" on="0"/>
        <pt x="252" y="274" on="0"/>
        <pt x="205" y="232" on="0"/>
        <pt x="197" y="203" on="1"/>
        <pt x="85" y="214" on="1"/>
      </contour>
    </TTGlyph>
    <TTGlyph name="asterisk" xMin="41" yMin="311" xMax="439" yMax="703">
      <contour>
        <pt x="268" y="703" on="1"/>
        <pt x="278" y="682" on="0"/>
        <pt x="278" y="642" on="0"/>
        <pt x="262" y="561" on="0"/>
        <pt x="259" y="536" on="1"/>
        <pt x="310" y="564" on="0"/>
        <pt x="370" y="628" on="1"/>
        <pt x="408" y="595" on="0"/>
        <pt x="439" y="528" on="1"/>
        <pt x="421" y="511" on="0"/>
        <pt x="381" y="499" on="0"/>
        <pt x="300" y="489" on="0"/>
        <pt x="278" y="485" on="1"/>
        <pt x="323" y="442" on="0"/>
        <pt x="399" y="408" on="1"/>
        <pt x="380" y="362" on="0"/>
        <pt x="325" y="311" on="1"/>
        <pt x="305" y="322" on="0"/>
        <pt x="280" y="356" on="0"/>
        <pt x="246" y="431" on="0"/>
        <pt x="235" y="451" on="1"/>
        <pt x="208" y="398" on="0"/>
        <pt x="199" y="312" on="1"/>
        <pt x="147" y="317" on="0"/>
        <pt x="84" y="353" on="1"/>
        <pt x="88" y="375" on="0"/>
        <pt x="112" y="409" on="0"/>
        <pt x="172" y="463" on="0"/>
        <pt x="189" y="481" on="1"/>
        <pt x="165" y="484" on="0"/>
        <pt x="103" y="484" on="0"/>
        <pt x="46" y="473" on="1"/>
        <pt x="41" y="493" on="0"/>
        <pt x="41" y="557" on="0"/>
        <pt x="49" y="595" on="1"/>
        <pt x="53" y="596" on="0"/>
        <pt x="84" y="596" on="0"/>
        <pt x="129" y="577" on="0"/>
        <pt x="188" y="542" on="0"/>
        <pt x="203" y="535" on="1"/>
        <pt x="192" y="595" on="0"/>
        <pt x="152" y="668" on="1"/>
        <pt x="195" y="694" on="0"/>
      </contour>
    </TTGlyph>
    <TTGlyph name="at" xMin="34" yMin="-154" xMax="800" yMax="726">
      <contour>
        <pt x="531" y="-129" on="1"/>
        <pt x="470" y="-154" on="0"/>
        <pt x="337" y="-154" on="0"/>
        <pt x="204" y="-106" on="0"/>
        <pt x="96" y="-10" on="0"/>
        <pt x="34" y="153" on="0"/>
        <pt x="34" y="364" on="0"/>
        <pt x="99" y="541" on="0"/>
        <pt x="207" y="660" on="0"/>
        <pt x="348" y="726" on="0"/>
        <pt x="501" y="726" on="0"/>
        <pt x="632" y="678" on="0"/>
        <pt x="738" y="581" on="0"/>
        <pt x="800" y="418" on="0"/>
        <pt x="800" y="203" on="0"/>
        <pt x="685" y="59" on="0"/>
        <pt x="600" y="59" on="1"/>
        <pt x="553" y="59" on="0"/>
        <pt x="484" y="114" on="0"/>
        <pt x="474" y="167" on="1"/>
        <pt x="426" y="71" on="0"/>
        <pt x="371" y="71" on="1"/>
        <pt x="294" y="71" on="0"/>
        <pt x="234" y="157" on="0"/>
        <pt x="234" y="323" on="0"/>
        <pt x="313" y="506" on="0"/>
        <pt x="363" y="506" on="1"/>
        <pt x="408" y="506" on="0"/>
        <pt x="458" y="482" on="1"/>
        <pt x="458" y="490" on="0"/>
        <pt x="456" y="512" on="1"/>
        <pt x="573" y="502" on="1"/>
        <pt x="573" y="334" on="0"/>
        <pt x="566" y="204" on="1"/>
        <pt x="570" y="183" on="0"/>
        <pt x="593" y="162" on="0"/>
        <pt x="607" y="162" on="1"/>
        <pt x="647" y="162" on="0"/>
        <pt x="692" y="254" on="0"/>
        <pt x="692" y="399" on="0"/>
        <pt x="648" y="527" on="0"/>
        <pt x="610" y="564" on="1"/>
        <pt x="536" y="639" on="0"/>
        <pt x="310" y="639" on="0"/>
        <pt x="142" y="427" on="0"/>
        <pt x="142" y="95" on="0"/>
        <pt x="298" y="-68" on="0"/>
        <pt x="413" y="-68" on="1"/>
        <pt x="454" y="-68" on="0"/>
        <pt x="498" y="-49" on="1"/>
      </contour>
      <contour>
        <pt x="461" y="389" on="1"/>
        <pt x="438" y="408" on="0"/>
        <pt x="387" y="408" on="0"/>
        <pt x="351" y="292" on="0"/>
        <pt x="351" y="179" on="0"/>
        <pt x="385" y="179" on="1"/>
        <pt x="398" y="179" on="0"/>
        <pt x="442" y="254" on="0"/>
        <pt x="460" y="313" on="1"/>
      </contour>
    </TTGlyph>
    <TTGlyph name="atilde" xMin="33" yMin="-22" xMax="369" yMax="651">
      <contour>
        <pt x="61" y="373" on="0"/>
        <pt x="145" y="482" on="0"/>
        <pt x="281" y="482" on="0"/>
        <pt x="346" y="369" on="0"/>
        <pt x="346" y="161" on="0"/>
        <pt x="334" y="-22" on="1"/>
        <pt x="250" y="-15" on="1"/>
        <pt x="242" y="17" on="1"/>
        <pt x="195" y="-10" on="0"/>
        <pt x="97" y="-10" on="0"/>
        <pt x="33" y="55" on="0"/>
        <pt x="33" y="177" on="0"/>
        <pt x="154" y="265" on="0"/>
        <pt x="233" y="267" on="1"/>
        <pt x="233" y="294" on="1"/>
        <pt x="233" y="373" on="0"/>
        <pt x="195" y="373" on="1"/>
        <pt x="176" y="373" on="0"/>
        <pt x="145" y="320" on="0"/>
        <pt x="138" y="286" on="1"/>
        <pt x="46" y="295" on="1"/>
      </contour>
      <contour>
        <pt x="135" y="110" on="1"/>
        <pt x="135" y="78" on="0"/>
        <pt x="173" y="78" on="1"/>
        <pt x="199" y="78" on="0"/>
        <pt x="228" y="90" on="1"/>
        <pt x="230" y="174" on="1"/>
        <pt x="183" y="170" on="0"/>
        <pt x="135" y="131" on="0"/>
      </contour>
      <contour>
        <pt x="366" y="606" on="0"/>
        <pt x="308" y="535" on="0"/>
        <pt x="249" y="535" on="0"/>
        <pt x="193" y="553" on="0"/>
        <pt x="152" y="553" on="0"/>
        <pt x="129" y="530" on="1"/>
        <pt x="69" y="562" on="1"/>
        <pt x="109" y="647" on="0"/>
        <pt x="162" y="647" on="1"/>
        <pt x="182" y="647" on="0"/>
        <pt x="242" y="619" on="0"/>
        <pt x="257" y="619" on="1"/>
        <pt x="285" y="619" on="0"/>
        <pt x="309" y="651" on="1"/>
        <pt x="369" y="646" on="1"/>
      </contour>
    </TTGlyph>
    <TTGlyph name="b" xMin="63" yMin="-21" xMax="400" yMax="733">
      <contour>
        <pt x="305" y="471" on="1"/>
        <pt x="353" y="471" on="0"/>
        <pt x="400" y="365" on="0"/>
        <pt x="400" y="220" on="0"/>
        <pt x="369" y="78" on="0"/>
        <pt x="302" y="-21" on="0"/>
        <pt x="259" y="-21" on="1"/>
        <pt x="196" y="-21" on="0"/>
        <pt x="155" y="35" on="1"/>
        <pt x="155" y="21" on="0"/>
        <pt x="157" y="-5" on="1"/>
        <pt x="69" y="4" on="1"/>
        <pt x="63" y="124" on="0"/>
        <pt x="63" y="529" on="0"/>
        <pt x="74" y="733" on="1"/>
        <pt x="188" y="723" on="1"/>
        <pt x="176" y="526" on="0"/>
        <pt x="176" y="365" on="1"/>
        <pt x="243" y="471" on="0"/>
      </contour>
      <contour>
        <pt x="176" y="194" on="1"/>
        <pt x="177" y="116" on="1"/>
        <pt x="189" y="99" on="0"/>
        <pt x="207" y="86" on="0"/>
        <pt x="225" y="86" on="1"/>
        <pt x="250" y="86" on="0"/>
        <pt x="288" y="197" on="0"/>
        <pt x="288" y="297" on="0"/>
        <pt x="277" y="341" on="0"/>
        <pt x="259" y="341" on="1"/>
        <pt x="221" y="341" on="0"/>
      </contour>
    </TTGlyph>
    <TTGlyph name="backslash" xMin="-2" yMin="-83" xMax="440" yMax="731">
      <contour>
        <pt x="440" y="-73" on="1"/>
        <pt x="340" y="-83" on="1"/>
        <pt x="320" y="-36" on="0"/>
        <pt x="171" y="342" on="0"/>
        <pt x="54" y="598" on="0"/>
        <pt x="-2" y="684" on="1"/>
        <pt x="86" y="731" on="1"/>
        <pt x="178" y="566" on="0"/>
        <pt x="274" y="334" on="1"/>
        <pt x="306" y="259" on="0"/>
        <pt x="423" y="-31" on="0"/>
      </contour>
    </TTGlyph>
    <TTGlyph name="bar" xMin="201" yMin="-245" xMax="292" yMax="760">
      <contour>
        <pt x="284" y="760" on="1"/>
        <pt x="292" y="210" on="1"/>
        <pt x="292" y="-71" on="0"/>
        <pt x="281" y="-245" on="1"/>
        <pt x="201" y="-238" on="1"/>
        <pt x="212" y="-72" on="0"/>
        <pt x="212" y="200" on="1"/>
        <pt x="204" y="760" on="1"/>
      </contour>
    </TTGlyph>
    <TTGlyph name="braceleft" xMin="52" yMin="-245" xMax="385" yMax="734">
      <contour>
        <pt x="273" y="121" on="1"/>
        <pt x="273" y="95" on="0"/>
        <pt x="251" y="-12" on="0"/>
        <pt x="251" y="-34" on="1"/>
        <pt x="251" y="-74" on="0"/>
        <pt x="308" y="-123" on="0"/>
        <pt x="360" y="-130" on="1"/>
        <pt x="340" y="-245" on="1"/>
        <pt x="241" y="-240" on="0"/>
        <pt x="121" y="-130" on="0"/>
        <pt x="121" y="-49" on="1"/>
        <pt x="121" y="-21" on="0"/>
        <pt x="143" y="88" on="0"/>
        <pt x="143" y="116" on="1"/>
        <pt x="143" y="178" on="0"/>
        <pt x="67" y="180" on="1"/>
        <pt x="52" y="289" on="1"/>
        <pt x="104" y="290" on="0"/>
        <pt x="143" y="331" on="0"/>
        <pt x="143" y="390" on="0"/>
        <pt x="126" y="492" on="0"/>
        <pt x="126" y="518" on="1"/>
        <pt x="126" y="608" on="0"/>
        <pt x="268" y="729" on="0"/>
        <pt x="385" y="734" on="1"/>
        <pt x="385" y="634" on="1"/>
        <pt x="317" y="623" on="0"/>
        <pt x="256" y="557" on="0"/>
        <pt x="256" y="498" on="1"/>
        <pt x="256" y="479" on="0"/>
        <pt x="273" y="390" on="0"/>
        <pt x="273" y="368" on="1"/>
        <pt x="273" y="292" on="0"/>
        <pt x="187" y="245" on="1"/>
        <pt x="273" y="198" on="0"/>
      </contour>
    </TTGlyph>
    <TTGlyph name="braceright" xMin="32" yMin="-245" xMax="365" yMax="734">
      <contour>
        <pt x="144" y="368" on="1"/>
        <pt x="144" y="394" on="0"/>
        <pt x="166" y="501" on="0"/>
        <pt x="166" y="523" on="1"/>
        <pt x="166" y="563" on="0"/>
        <pt x="109" y="612" on="0"/>
        <pt x="57" y="619" on="1"/>
        <pt x="77" y="734" on="1"/>
        <pt x="176" y="729" on="0"/>
        <pt x="296" y="619" on="0"/>
        <pt x="296" y="538" on="1"/>
        <pt x="296" y="510" on="0"/>
        <pt x="274" y="401" on="0"/>
        <pt x="274" y="374" on="1"/>
        <pt x="274" y="311" on="0"/>
        <pt x="350" y="309" on="1"/>
        <pt x="365" y="200" on="1"/>
        <pt x="313" y="199" on="0"/>
        <pt x="274" y="158" on="0"/>
        <pt x="274" y="99" on="0"/>
        <pt x="291" y="-3" on="0"/>
        <pt x="291" y="-29" on="1"/>
        <pt x="291" y="-119" on="0"/>
        <pt x="149" y="-240" on="0"/>
        <pt x="32" y="-245" on="1"/>
        <pt x="32" y="-145" on="1"/>
        <pt x="100" y="-134" on="0"/>
        <pt x="161" y="-68" on="0"/>
        <pt x="161" y="-9" on="1"/>
        <pt x="161" y="10" on="0"/>
        <pt x="144" y="99" on="0"/>
        <pt x="144" y="121" on="1"/>
        <pt x="144" y="197" on="0"/>
        <pt x="230" y="244" on="1"/>
        <pt x="144" y="291" on="0"/>
      </contour>
    </TTGlyph>
    <TTGlyph name="bracketleft" xMin="65" yMin="-238" xMax="379" yMax="724">
      <contour>
        <pt x="209" y="-121" on="1"/>
        <pt x="366" y="-112" on="1"/>
        <pt x="372" y="-210" on="1"/>
        <pt x="291" y="-233" on="0"/>
        <pt x="180" y="-238" on="1"/>
        <pt x="65" y="-227" on="1"/>
        <pt x="77" y="95" on="0"/>
        <pt x="77" y="522" on="0"/>
        <pt x="65" y="710" on="1"/>
        <pt x="162" y="724" on="0"/>
        <pt x="310" y="724" on="0"/>
        <pt x="349" y="715" on="1"/>
        <pt x="379" y="615" on="1"/>
        <pt x="327" y="619" on="0"/>
        <pt x="261" y="619" on="1"/>
        <pt x="213" y="616" on="1"/>
        <pt x="197" y="351" on="0"/>
        <pt x="197" y="31" on="0"/>
      </contour>
    </TTGlyph>
    <TTGlyph name="bracketright" xMin="15" yMin="-238" xMax="329" yMax="724">
      <contour>
        <pt x="185" y="607" on="1"/>
        <pt x="28" y="598" on="1"/>
        <pt x="22" y="696" on="1"/>
        <pt x="103" y="719" on="0"/>
        <pt x="214" y="724" on="1"/>
        <pt x="329" y="713" on="1"/>
        <pt x="317" y="391" on="0"/>
        <pt x="317" y="-37" on="0"/>
        <pt x="329" y="-224" on="1"/>
        <pt x="232" y="-238" on="0"/>
        <pt x="84" y="-238" on="0"/>
        <pt x="45" y="-229" on="1"/>
        <pt x="15" y="-129" on="1"/>
        <pt x="67" y="-133" on="0"/>
        <pt x="133" y="-133" on="1"/>
        <pt x="181" y="-130" on="1"/>
        <pt x="197" y="135" on="0"/>
        <pt x="197" y="455" on="0"/>
      </contour>
    </TTGlyph>
    <TTGlyph name="breve" xMin="120" yMin="521" xMax="381" yMax="661">
      <contour>
        <pt x="195" y="625" on="0"/>
        <pt x="221" y="593" on="0"/>
        <pt x="268" y="593" on="0"/>
        <pt x="306" y="633" on="0"/>
        <pt x="306" y="661" on="1"/>
        <pt x="381" y="655" on="1"/>
        <pt x="381" y="603" on="0"/>
        <pt x="297" y="521" on="0"/>
        <pt x="186" y="521" on="0"/>
        <pt x="120" y="595" on="0"/>
        <pt x="120" y="655" on="1"/>
        <pt x="195" y="649" on="1"/>
      </contour>
    </TTGlyph>
    <TTGlyph name="brokenbar" xMin="201" yMin="-245" xMax="292" yMax="760">
      <contour>
        <pt x="284" y="760" on="1"/>
        <pt x="284" y="667" on="0"/>
        <pt x="290" y="421" on="1"/>
        <pt x="209" y="426" on="1"/>
        <pt x="204" y="701" on="0"/>
        <pt x="204" y="760" on="1"/>
      </contour>
      <contour>
        <pt x="212" y="140" on="1"/>
        <pt x="292" y="133" on="1"/>
        <pt x="290" y="-89" on="0"/>
        <pt x="281" y="-245" on="1"/>
        <pt x="201" y="-238" on="1"/>
        <pt x="210" y="-101" on="0"/>
      </contour>
    </TTGlyph>
    <TTGlyph name="bullet" xMin="172" yMin="239" xMax="419" yMax="503">
      <contour>
        <pt x="402" y="484" on="1"/>
        <pt x="419" y="453" on="0"/>
        <pt x="419" y="326" on="0"/>
        <pt x="399" y="239" on="1"/>
        <pt x="172" y="260" on="1"/>
        <pt x="183" y="359" on="0"/>
        <pt x="183" y="470" on="0"/>
        <pt x="182" y="503" on="1"/>
      </contour>
    </TTGlyph>
    <TTGlyph name="c" xMin="32" yMin="-21" xMax="345" yMax="477">
      <contour>
        <pt x="232" y="256" on="1"/>
        <pt x="234" y="270" on="0"/>
        <pt x="234" y="314" on="0"/>
        <pt x="216" y="360" on="0"/>
        <pt x="202" y="360" on="1"/>
        <pt x="174" y="360" on="0"/>
        <pt x="149" y="231" on="0"/>
        <pt x="149" y="177" on="1"/>
        <pt x="149" y="86" on="0"/>
        <pt x="186" y="86" on="1"/>
        <pt x="216" y="86" on="0"/>
        <pt x="271" y="191" on="1"/>
        <pt x="345" y="138" on="1"/>
        <pt x="318" y="65" on="0"/>
        <pt x="237" y="-21" on="0"/>
        <pt x="123" y="-21" on="0"/>
        <pt x="32" y="69" on="0"/>
        <pt x="32" y="161" on="1"/>
        <pt x="32" y="259" on="0"/>
        <pt x="64" y="356" on="1"/>
        <pt x="82" y="409" on="0"/>
        <pt x="153" y="477" on="0"/>
        <pt x="263" y="477" on="0"/>
        <pt x="336" y="365" on="0"/>
        <pt x="336" y="297" on="1"/>
        <pt x="336" y="268" on="0"/>
        <pt x="327" y="247" on="1"/>
      </contour>
    </TTGlyph>
    <TTGlyph name="cacute" xMin="32" yMin="-21" xMax="369" yMax="677">
      <contour>
        <pt x="232" y="256" on="1"/>
        <pt x="234" y="270" on="0"/>
        <pt x="234" y="314" on="0"/>
        <pt x="216" y="360" on="0"/>
        <pt x="202" y="360" on="1"/>
        <pt x="174" y="360" on="0"/>
        <pt x="149" y="231" on="0"/>
        <pt x="149" y="177" on="1"/>
        <pt x="149" y="86" on="0"/>
        <pt x="186" y="86" on="1"/>
        <pt x="216" y="86" on="0"/>
        <pt x="271" y="191" on="1"/>
        <pt x="345" y="138" on="1"/>
        <pt x="318" y="65" on="0"/>
        <pt x="237" y="-21" on="0"/>
        <pt x="123" y="-21" on="0"/>
        <pt x="32" y="69" on="0"/>
        <pt x="32" y="161" on="1"/>
        <pt x="32" y="259" on="0"/>
        <pt x="64" y="356" on="1"/>
        <pt x="82" y="409" on="0"/>
        <pt x="153" y="477" on="0"/>
        <pt x="263" y="477" on="0"/>
        <pt x="336" y="365" on="0"/>
        <pt x="336" y="297" on="1"/>
        <pt x="336" y="268" on="0"/>
        <pt x="327" y="247" on="1"/>
      </contour>
      <contour>
        <pt x="176" y="515" on="1"/>
        <pt x="131" y="572" on="1"/>
        <pt x="244" y="646" on="0"/>
        <pt x="315" y="677" on="1"/>
        <pt x="369" y="588" on="1"/>
        <pt x="274" y="565" on="0"/>
      </contour>
    </TTGlyph>
    <TTGlyph name="caron" xMin="107" yMin="519" xMax="404" yMax="692">
      <contour>
        <pt x="276" y="519" on="1"/>
        <pt x="208" y="524" on="1"/>
        <pt x="177" y="554" on="0"/>
        <pt x="107" y="639" on="1"/>
        <pt x="165" y="683" on="1"/>
        <pt x="217" y="637" on="0"/>
        <pt x="246" y="613" on="1"/>
        <pt x="296" y="648" on="0"/>
        <pt x="346" y="692" on="1"/>
        <pt x="404" y="649" on="1"/>
        <pt x="332" y="568" on="0"/>
      </contour>
    </TTGlyph>
    <TTGlyph name="caron.cap" xMin="55" yMin="770" xMax="352" yMax="943">
      <contour>
        <pt x="224" y="770" on="1"/>
        <pt x="156" y="775" on="1"/>
        <pt x="125" y="805" on="0"/>
        <pt x="55" y="890" on="1"/>
        <pt x="113" y="934" on="1"/>
        <pt x="165" y="888" on="0"/>
        <pt x="194" y="864" on="1"/>
        <pt x="244" y="899" on="0"/>
        <pt x="294" y="943" on="1"/>
        <pt x="352" y="900" on="1"/>
        <pt x="280" y="819" on="0"/>
      </contour>
    </TTGlyph>
    <TTGlyph name="ccaron" xMin="32" yMin="-21" xMax="352" yMax="692">
      <contour>
        <pt x="232" y="256" on="1"/>
        <pt x="234" y="270" on="0"/>
        <pt x="234" y="314" on="0"/>
        <pt x="216" y="360" on="0"/>
        <pt x="202" y="360" on="1"/>
        <pt x="174" y="360" on="0"/>
        <pt x="149" y="231" on="0"/>
        <pt x="149" y="177" on="1"/>
        <pt x="149" y="86" on="0"/>
        <pt x="186" y="86" on="1"/>
        <pt x="216" y="86" on="0"/>
        <pt x="271" y="191" on="1"/>
        <pt x="345" y="138" on="1"/>
        <pt x="318" y="65" on="0"/>
        <pt x="237" y="-21" on="0"/>
        <pt x="123" y="-21" on="0"/>
        <pt x="32" y="69" on="0"/>
        <pt x="32" y="161" on="1"/>
        <pt x="32" y="259" on="0"/>
        <pt x="64" y="356" on="1"/>
        <pt x="82" y="409" on="0"/>
        <pt x="153" y="477" on="0"/>
        <pt x="263" y="477" on="0"/>
        <pt x="336" y="365" on="0"/>
        <pt x="336" y="297" on="1"/>
        <pt x="336" y="268" on="0"/>
        <pt x="327" y="247" on="1"/>
      </contour>
      <contour>
        <pt x="224" y="519" on="1"/>
        <pt x="156" y="524" on="1"/>
        <pt x="125" y="554" on="0"/>
        <pt x="55" y="639" on="1"/>
        <pt x="113" y="683" on="1"/>
        <pt x="165" y="637" on="0"/>
        <pt x="194" y="613" on="1"/>
        <pt x="244" y="648" on="0"/>
        <pt x="294" y="692" on="1"/>
        <pt x="352" y="649" on="1"/>
        <pt x="280" y="568" on="0"/>
      </contour>
    </TTGlyph>
    <TTGlyph name="ccedilla" xMin="32" yMin="-232" xMax="345" yMax="477">
      <contour>
        <pt x="232" y="256" on="1"/>
        <pt x="234" y="270" on="0"/>
        <pt x="234" y="314" on="0"/>
        <pt x="216" y="360" on="0"/>
        <pt x="202" y="360" on="1"/>
        <pt x="174" y="360" on="0"/>
        <pt x="149" y="231" on="0"/>
        <pt x="149" y="177" on="1"/>
        <pt x="149" y="86" on="0"/>
        <pt x="186" y="86" on="1"/>
        <pt x="216" y="86" on="0"/>
        <pt x="271" y="191" on="1"/>
        <pt x="345" y="138" on="1"/>
        <pt x="289" y="-14" on="0"/>
        <pt x="194" y="-21" on="1"/>
        <pt x="194" y="-41" on="0"/>
        <pt x="202" y="-65" on="1"/>
        <pt x="214" y="-62" on="0"/>
        <pt x="225" y="-62" on="1"/>
        <pt x="259" y="-62" on="0"/>
        <pt x="310" y="-104" on="0"/>
        <pt x="310" y="-185" on="0"/>
        <pt x="244" y="-232" on="0"/>
        <pt x="106" y="-232" on="0"/>
        <pt x="49" y="-189" on="1"/>
        <pt x="67" y="-144" on="1"/>
        <pt x="136" y="-181" on="0"/>
        <pt x="182" y="-181" on="1"/>
        <pt x="199" y="-181" on="0"/>
        <pt x="224" y="-166" on="0"/>
        <pt x="224" y="-141" on="0"/>
        <pt x="204" y="-125" on="0"/>
        <pt x="175" y="-125" on="0"/>
        <pt x="161" y="-132" on="1"/>
        <pt x="133" y="-129" on="1"/>
        <pt x="134" y="-65" on="0"/>
        <pt x="154" y="-18" on="1"/>
        <pt x="101" y="-7" on="0"/>
        <pt x="32" y="82" on="0"/>
        <pt x="32" y="161" on="1"/>
        <pt x="32" y="259" on="0"/>
        <pt x="64" y="356" on="1"/>
        <pt x="82" y="409" on="0"/>
        <pt x="153" y="477" on="0"/>
        <pt x="263" y="477" on="0"/>
        <pt x="336" y="365" on="0"/>
        <pt x="336" y="297" on="1"/>
        <pt x="336" y="268" on="0"/>
        <pt x="327" y="247" on="1"/>
      </contour>
    </TTGlyph>
    <TTGlyph name="cedilla" xMin="122" yMin="-232" xMax="383" yMax="-6">
      <contour>
        <pt x="267" y="-6" on="1"/>
        <pt x="267" y="-41" on="0"/>
        <pt x="275" y="-65" on="1"/>
        <pt x="287" y="-62" on="0"/>
        <pt x="298" y="-62" on="1"/>
        <pt x="332" y="-62" on="0"/>
        <pt x="383" y="-104" on="0"/>
        <pt x="383" y="-185" on="0"/>
        <pt x="317" y="-232" on="0"/>
        <pt x="179" y="-232" on="0"/>
        <pt x="122" y="-189" on="1"/>
        <pt x="140" y="-144" on="1"/>
        <pt x="209" y="-181" on="0"/>
        <pt x="255" y="-181" on="1"/>
        <pt x="272" y="-181" on="0"/>
        <pt x="297" y="-166" on="0"/>
        <pt x="297" y="-141" on="0"/>
        <pt x="277" y="-125" on="0"/>
        <pt x="248" y="-125" on="0"/>
        <pt x="234" y="-132" on="1"/>
        <pt x="206" y="-129" on="1"/>
        <pt x="207" y="-63" on="0"/>
        <pt x="232" y="-6" on="1"/>
      </contour>
    </TTGlyph>
    <TTGlyph name="cent" xMin="98" yMin="-26" xMax="411" yMax="682">
      <contour>
        <pt x="303" y="354" on="1"/>
        <pt x="305" y="368" on="0"/>
        <pt x="305" y="412" on="0"/>
        <pt x="284" y="458" on="0"/>
        <pt x="268" y="458" on="1"/>
        <pt x="240" y="458" on="0"/>
        <pt x="215" y="329" on="0"/>
        <pt x="215" y="275" on="1"/>
        <pt x="215" y="184" on="0"/>
        <pt x="252" y="184" on="1"/>
        <pt x="282" y="184" on="0"/>
        <pt x="337" y="289" on="1"/>
        <pt x="411" y="236" on="1"/>
        <pt x="368" y="120" on="0"/>
        <pt x="302" y="88" on="1"/>
        <pt x="301" y="37" on="0"/>
        <pt x="291" y="-26" on="1"/>
        <pt x="191" y="-17" on="1"/>
        <pt x="200" y="43" on="0"/>
        <pt x="201" y="85" on="1"/>
        <pt x="155" y="101" on="0"/>
        <pt x="98" y="187" on="0"/>
        <pt x="98" y="312" on="0"/>
        <pt x="116" y="425" on="0"/>
        <pt x="173" y="543" on="0"/>
        <pt x="217" y="564" on="1"/>
        <pt x="214" y="624" on="0"/>
        <pt x="214" y="682" on="1"/>
        <pt x="314" y="674" on="1"/>
        <pt x="314" y="645" on="0"/>
        <pt x="318" y="563" on="1"/>
        <pt x="360" y="543" on="0"/>
        <pt x="407" y="447" on="0"/>
        <pt x="407" y="359" on="0"/>
        <pt x="398" y="345" on="1"/>
      </contour>
    </TTGlyph>
    <TTGlyph name="circumflex" xMin="95" yMin="499" xMax="392" yMax="672">
      <contour>
        <pt x="223" y="672" on="1"/>
        <pt x="291" y="667" on="1"/>
        <pt x="322" y="637" on="0"/>
        <pt x="392" y="552" on="1"/>
        <pt x="334" y="508" on="1"/>
        <pt x="282" y="554" on="0"/>
        <pt x="253" y="578" on="1"/>
        <pt x="203" y="543" on="0"/>
        <pt x="153" y="499" on="1"/>
        <pt x="95" y="542" on="1"/>
        <pt x="167" y="623" on="0"/>
      </contour>
    </TTGlyph>
    <TTGlyph name="circumflex.cap" xMin="55" yMin="750" xMax="352" yMax="923">
      <contour>
        <pt x="183" y="923" on="1"/>
        <pt x="251" y="918" on="1"/>
        <pt x="282" y="888" on="0"/>
        <pt x="352" y="803" on="1"/>
        <pt x="294" y="759" on="1"/>
        <pt x="242" y="805" on="0"/>
        <pt x="213" y="829" on="1"/>
        <pt x="163" y="794" on="0"/>
        <pt x="113" y="750" on="1"/>
        <pt x="55" y="793" on="1"/>
        <pt x="127" y="874" on="0"/>
      </contour>
    </TTGlyph>
    <TTGlyph name="colon" xMin="50" yMin="-21" xMax="205" yMax="477">
      <contour>
        <pt x="188" y="159" on="1"/>
        <pt x="199" y="124" on="0"/>
        <pt x="199" y="15" on="0"/>
        <pt x="185" y="-21" on="1"/>
        <pt x="50" y="-10" on="1"/>
        <pt x="59" y="66" on="0"/>
        <pt x="59" y="147" on="0"/>
        <pt x="58" y="171" on="1"/>
      </contour>
      <contour>
        <pt x="194" y="465" on="1"/>
        <pt x="205" y="430" on="0"/>
        <pt x="205" y="321" on="0"/>
        <pt x="191" y="285" on="1"/>
        <pt x="56" y="296" on="1"/>
        <pt x="65" y="372" on="0"/>
        <pt x="65" y="453" on="0"/>
        <pt x="64" y="477" on="1"/>
      </contour>
    </TTGlyph>
    <TTGlyph name="comma" xMin="38" yMin="-120" xMax="208" yMax="197">
      <contour>
        <pt x="75" y="197" on="1"/>
        <pt x="208" y="153" on="1"/>
        <pt x="198" y="62" on="0"/>
        <pt x="130" y="-120" on="1"/>
        <pt x="38" y="-113" on="1"/>
        <pt x="65" y="51" on="0"/>
      </contour>
    </TTGlyph>
    <TTGlyph name="commaaccent" xMin="42" yMin="-246" xMax="182" yMax="-61">
      <contour>
        <pt x="69" y="-61" on="1"/>
        <pt x="182" y="-92" on="1"/>
        <pt x="175" y="-128" on="0"/>
        <pt x="134" y="-195" on="0"/>
        <pt x="94" y="-246" on="1"/>
        <pt x="42" y="-238" on="1"/>
        <pt x="63" y="-136" on="0"/>
      </contour>
    </TTGlyph>
    <TTGlyph name="copyright" xMin="50" yMin="-14" xMax="696" yMax="726">
      <contour>
        <pt x="696" y="382" on="1"/>
        <pt x="696" y="280" on="0"/>
        <pt x="618" y="100" on="0"/>
        <pt x="466" y="-14" on="0"/>
        <pt x="369" y="-14" on="1"/>
        <pt x="232" y="-14" on="0"/>
        <pt x="50" y="157" on="0"/>
        <pt x="50" y="506" on="0"/>
        <pt x="245" y="726" on="0"/>
        <pt x="516" y="726" on="0"/>
        <pt x="696" y="554" on="0"/>
      </contour>
      <contour>
        <pt x="369" y="72" on="1"/>
        <pt x="438" y="72" on="0"/>
        <pt x="488" y="116" on="1"/>
        <pt x="588" y="203" on="0"/>
        <pt x="588" y="385" on="1"/>
        <pt x="588" y="513" on="0"/>
        <pt x="471" y="639" on="0"/>
        <pt x="290" y="639" on="0"/>
        <pt x="158" y="466" on="0"/>
        <pt x="158" y="200" on="0"/>
        <pt x="278" y="72" on="0"/>
      </contour>
      <contour>
        <pt x="401" y="491" on="0"/>
        <pt x="357" y="491" on="0"/>
        <pt x="324" y="370" on="0"/>
        <pt x="324" y="320" on="1"/>
        <pt x="324" y="229" on="0"/>
        <pt x="369" y="229" on="1"/>
        <pt x="398" y="229" on="0"/>
        <pt x="414" y="299" on="1"/>
        <pt x="519" y="291" on="1"/>
        <pt x="502" y="219" on="0"/>
        <pt x="432" y="143" on="0"/>
        <pt x="295" y="143" on="0"/>
        <pt x="215" y="240" on="0"/>
        <pt x="215" y="371" on="0"/>
        <pt x="247" y="486" on="0"/>
        <pt x="328" y="577" on="0"/>
        <pt x="385" y="577" on="1"/>
        <pt x="417" y="577" on="0"/>
        <pt x="464" y="552" on="0"/>
        <pt x="488" y="518" on="0"/>
        <pt x="496" y="490" on="1"/>
        <pt x="505" y="454" on="0"/>
        <pt x="507" y="388" on="1"/>
        <pt x="401" y="398" on="1"/>
      </contour>
    </TTGlyph>
    <TTGlyph name="currency" xMin="7" yMin="144" xMax="596" yMax="722">
      <contour>
        <pt x="20" y="232" on="1"/>
        <pt x="104" y="322" on="1"/>
        <pt x="91" y="357" on="0"/>
        <pt x="91" y="476" on="0"/>
        <pt x="117" y="535" on="1"/>
        <pt x="46" y="610" on="0"/>
        <pt x="7" y="658" on="1"/>
        <pt x="103" y="720" on="1"/>
        <pt x="145" y="671" on="0"/>
        <pt x="188" y="626" on="1"/>
        <pt x="239" y="663" on="0"/>
        <pt x="373" y="663" on="0"/>
        <pt x="418" y="634" on="1"/>
        <pt x="472" y="682" on="0"/>
        <pt x="524" y="722" on="1"/>
        <pt x="596" y="625" on="1"/>
        <pt x="547" y="589" on="0"/>
        <pt x="490" y="539" on="1"/>
        <pt x="507" y="494" on="0"/>
        <pt x="507" y="386" on="0"/>
        <pt x="486" y="334" on="1"/>
        <pt x="591" y="229" on="1"/>
        <pt x="506" y="144" on="1"/>
        <pt x="448" y="206" on="0"/>
        <pt x="414" y="240" on="1"/>
        <pt x="362" y="204" on="0"/>
        <pt x="228" y="204" on="0"/>
        <pt x="180" y="230" on="1"/>
        <pt x="95" y="147" on="1"/>
      </contour>
      <contour>
        <pt x="261" y="570" on="0"/>
        <pt x="208" y="462" on="0"/>
        <pt x="208" y="349" on="0"/>
        <pt x="259" y="297" on="0"/>
        <pt x="291" y="297" on="1"/>
        <pt x="339" y="297" on="0"/>
        <pt x="390" y="398" on="0"/>
        <pt x="390" y="498" on="0"/>
        <pt x="352" y="570" on="0"/>
      </contour>
    </TTGlyph>
    <TTGlyph name="d" xMin="26" yMin="-14" xMax="367" yMax="734">
      <contour>
        <pt x="250" y="453" on="1"/>
        <pt x="251" y="577" on="1"/>
        <pt x="251" y="646" on="0"/>
        <pt x="248" y="734" on="1"/>
        <pt x="365" y="724" on="1"/>
        <pt x="367" y="653" on="0"/>
        <pt x="367" y="280" on="0"/>
        <pt x="351" y="-14" on="1"/>
        <pt x="262" y="-6" on="1"/>
        <pt x="259" y="34" on="0"/>
        <pt x="256" y="88" on="1"/>
        <pt x="213" y="2" on="0"/>
        <pt x="163" y="2" on="1"/>
        <pt x="86" y="2" on="0"/>
        <pt x="26" y="98" on="0"/>
        <pt x="26" y="281" on="0"/>
        <pt x="105" y="477" on="0"/>
        <pt x="155" y="477" on="1"/>
        <pt x="200" y="477" on="0"/>
      </contour>
      <contour>
        <pt x="253" y="360" on="1"/>
        <pt x="228" y="379" on="0"/>
        <pt x="179" y="379" on="0"/>
        <pt x="143" y="250" on="0"/>
        <pt x="143" y="110" on="0"/>
        <pt x="177" y="110" on="1"/>
        <pt x="190" y="110" on="0"/>
        <pt x="234" y="197" on="0"/>
        <pt x="252" y="264" on="1"/>
      </contour>
    </TTGlyph>
    <TTGlyph name="dagger" xMin="38" yMin="-132" xMax="471" yMax="711">
      <contour>
        <pt x="38" y="489" on="1"/>
        <pt x="177" y="496" on="1"/>
        <pt x="180" y="628" on="0"/>
        <pt x="188" y="711" on="1"/>
        <pt x="328" y="698" on="1"/>
        <pt x="320" y="608" on="0"/>
        <pt x="318" y="497" on="1"/>
        <pt x="402" y="495" on="0"/>
        <pt x="467" y="490" on="1"/>
        <pt x="471" y="382" on="1"/>
        <pt x="408" y="387" on="0"/>
        <pt x="316" y="389" on="1"/>
        <pt x="316" y="323" on="1"/>
        <pt x="316" y="16" on="0"/>
        <pt x="327" y="-132" on="1"/>
        <pt x="189" y="-119" on="1"/>
        <pt x="176" y="49" on="0"/>
        <pt x="176" y="323" on="1"/>
        <pt x="176" y="388" on="1"/>
        <pt x="78" y="381" on="0"/>
        <pt x="50" y="381" on="1"/>
      </contour>
    </TTGlyph>
    <TTGlyph name="daggerdbl" xMin="38" yMin="-132" xMax="471" yMax="711">
      <contour>
        <pt x="38" y="219" on="1"/>
        <pt x="99" y="219" on="0"/>
        <pt x="176" y="226" on="1"/>
        <pt x="176" y="263" on="1"/>
        <pt x="176" y="346" on="0"/>
        <pt x="177" y="388" on="1"/>
        <pt x="79" y="381" on="0"/>
        <pt x="50" y="381" on="1"/>
        <pt x="38" y="489" on="1"/>
        <pt x="177" y="496" on="1"/>
        <pt x="180" y="628" on="0"/>
        <pt x="188" y="711" on="1"/>
        <pt x="328" y="698" on="1"/>
        <pt x="320" y="608" on="0"/>
        <pt x="318" y="497" on="1"/>
        <pt x="402" y="495" on="0"/>
        <pt x="467" y="490" on="1"/>
        <pt x="471" y="382" on="1"/>
        <pt x="408" y="387" on="0"/>
        <pt x="316" y="389" on="1"/>
        <pt x="316" y="227" on="1"/>
        <pt x="402" y="225" on="0"/>
        <pt x="467" y="220" on="1"/>
        <pt x="471" y="112" on="1"/>
        <pt x="410" y="117" on="0"/>
        <pt x="317" y="119" on="1"/>
        <pt x="319" y="-16" on="0"/>
        <pt x="327" y="-132" on="1"/>
        <pt x="189" y="-119" on="1"/>
        <pt x="181" y="-22" on="0"/>
        <pt x="178" y="118" on="1"/>
        <pt x="80" y="111" on="0"/>
        <pt x="50" y="111" on="1"/>
      </contour>
    </TTGlyph>
    <TTGlyph name="degree" xMin="12" yMin="411" xMax="317" yMax="716">
      <contour>
        <pt x="95" y="519" on="0"/>
        <pt x="128" y="487" on="0"/>
        <pt x="191" y="487" on="0"/>
        <pt x="234" y="546" on="0"/>
        <pt x="234" y="610" on="0"/>
        <pt x="201" y="640" on="0"/>
        <pt x="137" y="640" on="0"/>
        <pt x="95" y="584" on="0"/>
      </contour>
      <contour>
        <pt x="317" y="516" on="0"/>
        <pt x="225" y="411" on="0"/>
        <pt x="91" y="411" on="0"/>
        <pt x="12" y="486" on="0"/>
        <pt x="12" y="612" on="0"/>
        <pt x="104" y="716" on="0"/>
        <pt x="238" y="716" on="0"/>
        <pt x="317" y="641" on="0"/>
      </contour>
    </TTGlyph>
    <TTGlyph name="dieresis" xMin="115" yMin="527" xMax="379" yMax="659">
      <contour>
        <pt x="213" y="649" on="1"/>
        <pt x="224" y="633" on="0"/>
        <pt x="224" y="549" on="0"/>
        <pt x="210" y="527" on="1"/>
        <pt x="115" y="537" on="1"/>
        <pt x="124" y="586" on="0"/>
        <pt x="124" y="639" on="0"/>
        <pt x="123" y="657" on="1"/>
      </contour>
      <contour>
        <pt x="368" y="651" on="1"/>
        <pt x="379" y="635" on="0"/>
        <pt x="379" y="551" on="0"/>
        <pt x="365" y="529" on="1"/>
        <pt x="270" y="539" on="1"/>
        <pt x="279" y="588" on="0"/>
        <pt x="279" y="641" on="0"/>
        <pt x="278" y="659" on="1"/>
      </contour>
    </TTGlyph>
    <TTGlyph name="dieresis.cap" xMin="55" yMin="778" xMax="319" yMax="910">
      <contour>
        <pt x="153" y="900" on="1"/>
        <pt x="164" y="884" on="0"/>
        <pt x="164" y="800" on="0"/>
        <pt x="150" y="778" on="1"/>
        <pt x="55" y="788" on="1"/>
        <pt x="64" y="838" on="0"/>
        <pt x="64" y="890" on="0"/>
        <pt x="63" y="908" on="1"/>
      </contour>
      <contour>
        <pt x="308" y="902" on="1"/>
        <pt x="319" y="886" on="0"/>
        <pt x="319" y="802" on="0"/>
        <pt x="305" y="780" on="1"/>
        <pt x="210" y="790" on="1"/>
        <pt x="219" y="840" on="0"/>
        <pt x="219" y="892" on="0"/>
        <pt x="218" y="910" on="1"/>
      </contour>
    </TTGlyph>
    <TTGlyph name="divide" xMin="123" yMin="22" xMax="720" yMax="576">
      <contour>
        <pt x="123" y="355" on="1"/>
        <pt x="479" y="363" on="1"/>
        <pt x="628" y="363" on="0"/>
        <pt x="720" y="352" on="1"/>
        <pt x="702" y="232" on="1"/>
        <pt x="621" y="243" on="0"/>
        <pt x="489" y="243" on="1"/>
        <pt x="123" y="235" on="1"/>
      </contour>
      <contour>
        <pt x="476" y="168" on="1"/>
        <pt x="486" y="130" on="0"/>
        <pt x="486" y="44" on="0"/>
        <pt x="473" y="22" on="1"/>
        <pt x="343" y="32" on="1"/>
        <pt x="351" y="70" on="0"/>
        <pt x="351" y="154" on="0"/>
        <pt x="350" y="179" on="1"/>
      </contour>
      <contour>
        <pt x="476" y="565" on="1"/>
        <pt x="486" y="527" on="0"/>
        <pt x="486" y="441" on="0"/>
        <pt x="473" y="419" on="1"/>
        <pt x="343" y="429" on="1"/>
        <pt x="351" y="467" on="0"/>
        <pt x="351" y="551" on="0"/>
        <pt x="350" y="576" on="1"/>
      </contour>
    </TTGlyph>
    <TTGlyph name="dollar" xMin="57" yMin="-116" xMax="440" yMax="732">
      <contour>
        <pt x="216" y="617" on="1"/>
        <pt x="214" y="732" on="1"/>
        <pt x="314" y="724" on="1"/>
        <pt x="314" y="645" on="0"/>
        <pt x="316" y="616" on="1"/>
        <pt x="370" y="599" on="0"/>
        <pt x="440" y="505" on="0"/>
        <pt x="440" y="467" on="1"/>
        <pt x="440" y="405" on="0"/>
        <pt x="419" y="362" on="1"/>
        <pt x="306" y="396" on="1"/>
        <pt x="317" y="424" on="0"/>
        <pt x="317" y="466" on="0"/>
        <pt x="287" y="497" on="0"/>
        <pt x="247" y="497" on="0"/>
        <pt x="218" y="471" on="0"/>
        <pt x="218" y="424" on="0"/>
        <pt x="250" y="376" on="0"/>
        <pt x="274" y="361" on="1"/>
        <pt x="358" y="310" on="0"/>
        <pt x="434" y="231" on="0"/>
        <pt x="434" y="111" on="0"/>
        <pt x="366" y="28" on="0"/>
        <pt x="312" y="13" on="1"/>
        <pt x="312" y="-44" on="0"/>
        <pt x="301" y="-116" on="1"/>
        <pt x="201" y="-107" on="1"/>
        <pt x="211" y="-38" on="0"/>
        <pt x="212" y="11" on="1"/>
        <pt x="124" y="32" on="0"/>
        <pt x="57" y="143" on="1"/>
        <pt x="118" y="202" on="1"/>
        <pt x="202" y="124" on="0"/>
        <pt x="254" y="124" on="1"/>
        <pt x="291" y="124" on="0"/>
        <pt x="291" y="154" on="1"/>
        <pt x="291" y="176" on="0"/>
        <pt x="255" y="216" on="0"/>
        <pt x="213" y="246" on="1"/>
        <pt x="84" y="339" on="0"/>
        <pt x="84" y="448" on="1"/>
        <pt x="84" y="513" on="0"/>
        <pt x="159" y="602" on="0"/>
      </contour>
    </TTGlyph>
    <TTGlyph name="dotaccent" xMin="186" yMin="529" xMax="310" yMax="659">
      <contour>
        <pt x="299" y="650" on="1"/>
        <pt x="310" y="634" on="0"/>
        <pt x="310" y="553" on="0"/>
        <pt x="296" y="529" on="1"/>
        <pt x="186" y="539" on="1"/>
        <pt x="195" y="588" on="0"/>
        <pt x="195" y="641" on="0"/>
        <pt x="194" y="659" on="1"/>
      </contour>
    </TTGlyph>
    <TTGlyph name="dotaccentcmb" xMin="186" yMin="529" xMax="310" yMax="659">
      <contour>
        <pt x="299" y="650" on="1"/>
        <pt x="310" y="634" on="0"/>
        <pt x="310" y="553" on="0"/>
        <pt x="296" y="529" on="1"/>
        <pt x="186" y="539" on="1"/>
        <pt x="195" y="588" on="0"/>
        <pt x="195" y="641" on="0"/>
        <pt x="194" y="659" on="1"/>
      </contour>
    </TTGlyph>
    <TTGlyph name="dotaccentcmb.cap" xMin="55" yMin="780" xMax="179" yMax="910">
      <contour>
        <pt x="168" y="901" on="1"/>
        <pt x="179" y="885" on="0"/>
        <pt x="179" y="804" on="0"/>
        <pt x="165" y="780" on="1"/>
        <pt x="55" y="790" on="1"/>
        <pt x="64" y="840" on="0"/>
        <pt x="64" y="892" on="0"/>
        <pt x="63" y="910" on="1"/>
      </contour>
    </TTGlyph>
    <TTGlyph name="dotlessi" xMin="69" yMin="-14" xMax="183" yMax="477">
      <contour>
        <pt x="69" y="477" on="1"/>
        <pt x="183" y="466" on="1"/>
        <pt x="183" y="-14" on="1"/>
        <pt x="69" y="-3" on="1"/>
      </contour>
    </TTGlyph>
    <TTGlyph name="dotlessj" xMin="-51" yMin="-245" xMax="203" yMax="468">
      <contour>
        <pt x="203" y="-5" on="1"/>
        <pt x="203" y="-120" on="0"/>
        <pt x="125" y="-245" on="0"/>
        <pt x="70" y="-245" on="1"/>
        <pt x="46" y="-245" on="0"/>
        <pt x="-25" y="-207" on="0"/>
        <pt x="-51" y="-175" on="1"/>
        <pt x="-16" y="-98" on="1"/>
        <pt x="23" y="-128" on="0"/>
        <pt x="62" y="-128" on="0"/>
        <pt x="91" y="-69" on="0"/>
        <pt x="91" y="-15" on="1"/>
        <pt x="91" y="326" on="0"/>
        <pt x="86" y="468" on="1"/>
        <pt x="194" y="457" on="1"/>
        <pt x="203" y="306" on="0"/>
      </contour>
    </TTGlyph>
    <TTGlyph name="dslash" xMin="26" yMin="-14" xMax="455" yMax="734">
      <contour>
        <pt x="250" y="637" on="1"/>
        <pt x="248" y="734" on="1"/>
        <pt x="367" y="724" on="1"/>
        <pt x="367" y="637" on="1"/>
        <pt x="397" y="637" on="0"/>
        <pt x="451" y="635" on="1"/>
        <pt x="455" y="547" on="1"/>
        <pt x="400" y="553" on="0"/>
        <pt x="367" y="554" on="1"/>
        <pt x="367" y="520" on="1"/>
        <pt x="367" y="280" on="0"/>
        <pt x="351" y="-14" on="1"/>
        <pt x="262" y="-6" on="1"/>
        <pt x="259" y="34" on="0"/>
        <pt x="256" y="88" on="1"/>
        <pt x="213" y="2" on="0"/>
        <pt x="163" y="2" on="1"/>
        <pt x="86" y="2" on="0"/>
        <pt x="26" y="98" on="0"/>
        <pt x="26" y="281" on="0"/>
        <pt x="105" y="477" on="0"/>
        <pt x="155" y="477" on="1"/>
        <pt x="200" y="477" on="0"/>
        <pt x="250" y="453" on="1"/>
        <pt x="250" y="453" on="0"/>
        <pt x="251" y="553" on="1"/>
        <pt x="233" y="552" on="0"/>
        <pt x="197" y="548" on="1"/>
        <pt x="120" y="541" on="0"/>
        <pt x="79" y="541" on="1"/>
        <pt x="67" y="630" on="1"/>
      </contour>
      <contour>
        <pt x="253" y="360" on="1"/>
        <pt x="228" y="379" on="0"/>
        <pt x="179" y="379" on="0"/>
        <pt x="143" y="250" on="0"/>
        <pt x="143" y="110" on="0"/>
        <pt x="177" y="110" on="1"/>
        <pt x="190" y="110" on="0"/>
        <pt x="234" y="197" on="0"/>
        <pt x="252" y="264" on="1"/>
      </contour>
    </TTGlyph>
    <TTGlyph name="e" xMin="25" yMin="-21" xMax="351" yMax="477">
      <contour>
        <pt x="184" y="72" on="1"/>
        <pt x="222" y="72" on="0"/>
        <pt x="265" y="145" on="1"/>
        <pt x="341" y="100" on="1"/>
        <pt x="322" y="67" on="0"/>
        <pt x="287" y="21" on="0"/>
        <pt x="217" y="-21" on="0"/>
        <pt x="174" y="-21" on="1"/>
        <pt x="111" y="-21" on="0"/>
        <pt x="25" y="86" on="0"/>
        <pt x="25" y="177" on="1"/>
        <pt x="25" y="281" on="0"/>
        <pt x="62" y="371" on="1"/>
        <pt x="82" y="418" on="0"/>
        <pt x="157" y="477" on="0"/>
        <pt x="236" y="477" on="0"/>
        <pt x="284" y="452" on="0"/>
        <pt x="313" y="421" on="0"/>
        <pt x="335" y="361" on="0"/>
        <pt x="344" y="323" on="0"/>
        <pt x="347" y="287" on="1"/>
        <pt x="351" y="239" on="0"/>
        <pt x="351" y="200" on="1"/>
        <pt x="271" y="178" on="0"/>
        <pt x="144" y="160" on="1"/>
        <pt x="147" y="120" on="0"/>
        <pt x="169" y="72" on="0"/>
      </contour>
      <contour>
        <pt x="206" y="379" on="1"/>
        <pt x="184" y="379" on="0"/>
        <pt x="149" y="291" on="0"/>
        <pt x="146" y="233" on="1"/>
        <pt x="199" y="244" on="0"/>
        <pt x="238" y="254" on="1"/>
        <pt x="238" y="379" on="0"/>
      </contour>
    </TTGlyph>
    <TTGlyph name="eacute" xMin="25" yMin="-21" xMax="378" yMax="677">
      <contour>
        <pt x="184" y="72" on="1"/>
        <pt x="222" y="72" on="0"/>
        <pt x="265" y="145" on="1"/>
        <pt x="341" y="100" on="1"/>
        <pt x="322" y="67" on="0"/>
        <pt x="287" y="21" on="0"/>
        <pt x="217" y="-21" on="0"/>
        <pt x="174" y="-21" on="1"/>
        <pt x="111" y="-21" on="0"/>
        <pt x="25" y="86" on="0"/>
        <pt x="25" y="177" on="1"/>
        <pt x="25" y="281" on="0"/>
        <pt x="62" y="371" on="1"/>
        <pt x="82" y="418" on="0"/>
        <pt x="157" y="477" on="0"/>
        <pt x="236" y="477" on="0"/>
        <pt x="284" y="452" on="0"/>
        <pt x="313" y="421" on="0"/>
        <pt x="335" y="361" on="0"/>
        <pt x="344" y="323" on="0"/>
        <pt x="347" y="287" on="1"/>
        <pt x="351" y="239" on="0"/>
        <pt x="351" y="200" on="1"/>
        <pt x="271" y="178" on="0"/>
        <pt x="144" y="160" on="1"/>
        <pt x="147" y="120" on="0"/>
        <pt x="169" y="72" on="0"/>
      </contour>
      <contour>
        <pt x="206" y="379" on="1"/>
        <pt x="184" y="379" on="0"/>
        <pt x="149" y="291" on="0"/>
        <pt x="146" y="233" on="1"/>
        <pt x="199" y="244" on="0"/>
        <pt x="238" y="254" on="1"/>
        <pt x="238" y="379" on="0"/>
      </contour>
      <contour>
        <pt x="185" y="515" on="1"/>
        <pt x="140" y="572" on="1"/>
        <pt x="253" y="646" on="0"/>
        <pt x="324" y="677" on="1"/>
        <pt x="378" y="588" on="1"/>
        <pt x="283" y="565" on="0"/>
      </contour>
    </TTGlyph>
    <TTGlyph name="ecircumflex" xMin="25" yMin="-21" xMax="351" yMax="672">
      <contour>
        <pt x="184" y="72" on="1"/>
        <pt x="222" y="72" on="0"/>
        <pt x="265" y="145" on="1"/>
        <pt x="341" y="100" on="1"/>
        <pt x="322" y="67" on="0"/>
        <pt x="287" y="21" on="0"/>
        <pt x="217" y="-21" on="0"/>
        <pt x="174" y="-21" on="1"/>
        <pt x="111" y="-21" on="0"/>
        <pt x="25" y="86" on="0"/>
        <pt x="25" y="177" on="1"/>
        <pt x="25" y="281" on="0"/>
        <pt x="62" y="371" on="1"/>
        <pt x="82" y="418" on="0"/>
        <pt x="157" y="477" on="0"/>
        <pt x="236" y="477" on="0"/>
        <pt x="284" y="452" on="0"/>
        <pt x="313" y="421" on="0"/>
        <pt x="335" y="361" on="0"/>
        <pt x="344" y="323" on="0"/>
        <pt x="347" y="287" on="1"/>
        <pt x="351" y="239" on="0"/>
        <pt x="351" y="200" on="1"/>
        <pt x="271" y="178" on="0"/>
        <pt x="144" y="160" on="1"/>
        <pt x="147" y="120" on="0"/>
        <pt x="169" y="72" on="0"/>
      </contour>
      <contour>
        <pt x="206" y="379" on="1"/>
        <pt x="184" y="379" on="0"/>
        <pt x="149" y="291" on="0"/>
        <pt x="146" y="233" on="1"/>
        <pt x="199" y="244" on="0"/>
        <pt x="238" y="254" on="1"/>
        <pt x="238" y="379" on="0"/>
      </contour>
      <contour>
        <pt x="178" y="672" on="1"/>
        <pt x="246" y="667" on="1"/>
        <pt x="277" y="637" on="0"/>
        <pt x="347" y="552" on="1"/>
        <pt x="289" y="508" on="1"/>
        <pt x="237" y="554" on="0"/>
        <pt x="208" y="578" on="1"/>
        <pt x="158" y="543" on="0"/>
        <pt x="108" y="499" on="1"/>
        <pt x="50" y="542" on="1"/>
        <pt x="122" y="623" on="0"/>
      </contour>
    </TTGlyph>
    <TTGlyph name="edieresis" xMin="25" yMin="-21" xMax="351" yMax="659">
      <contour>
        <pt x="184" y="72" on="1"/>
        <pt x="222" y="72" on="0"/>
        <pt x="265" y="145" on="1"/>
        <pt x="341" y="100" on="1"/>
        <pt x="322" y="67" on="0"/>
        <pt x="287" y="21" on="0"/>
        <pt x="217" y="-21" on="0"/>
        <pt x="174" y="-21" on="1"/>
        <pt x="111" y="-21" on="0"/>
        <pt x="25" y="86" on="0"/>
        <pt x="25" y="177" on="1"/>
        <pt x="25" y="281" on="0"/>
        <pt x="62" y="371" on="1"/>
        <pt x="82" y="418" on="0"/>
        <pt x="157" y="477" on="0"/>
        <pt x="236" y="477" on="0"/>
        <pt x="284" y="452" on="0"/>
        <pt x="313" y="421" on="0"/>
        <pt x="335" y="361" on="0"/>
        <pt x="344" y="323" on="0"/>
        <pt x="347" y="287" on="1"/>
        <pt x="351" y="239" on="0"/>
        <pt x="351" y="200" on="1"/>
        <pt x="271" y="178" on="0"/>
        <pt x="144" y="160" on="1"/>
        <pt x="147" y="120" on="0"/>
        <pt x="169" y="72" on="0"/>
      </contour>
      <contour>
        <pt x="206" y="379" on="1"/>
        <pt x="184" y="379" on="0"/>
        <pt x="149" y="291" on="0"/>
        <pt x="146" y="233" on="1"/>
        <pt x="199" y="244" on="0"/>
        <pt x="238" y="254" on="1"/>
        <pt x="238" y="379" on="0"/>
      </contour>
      <contour>
        <pt x="168" y="649" on="1"/>
        <pt x="179" y="633" on="0"/>
        <pt x="179" y="549" on="0"/>
        <pt x="165" y="527" on="1"/>
        <pt x="70" y="537" on="1"/>
        <pt x="79" y="586" on="0"/>
        <pt x="79" y="639" on="0"/>
        <pt x="78" y="657" on="1"/>
      </contour>
      <contour>
        <pt x="323" y="651" on="1"/>
        <pt x="334" y="635" on="0"/>
        <pt x="334" y="551" on="0"/>
        <pt x="320" y="529" on="1"/>
        <pt x="225" y="539" on="1"/>
        <pt x="234" y="588" on="0"/>
        <pt x="234" y="641" on="0"/>
        <pt x="233" y="659" on="1"/>
      </contour>
    </TTGlyph>
    <TTGlyph name="egrave" xMin="25" yMin="-21" xMax="351" yMax="677">
      <contour>
        <pt x="184" y="72" on="1"/>
        <pt x="222" y="72" on="0"/>
        <pt x="265" y="145" on="1"/>
        <pt x="341" y="100" on="1"/>
        <pt x="322" y="67" on="0"/>
        <pt x="287" y="21" on="0"/>
        <pt x="217" y="-21" on="0"/>
        <pt x="174" y="-21" on="1"/>
        <pt x="111" y="-21" on="0"/>
        <pt x="25" y="86" on="0"/>
        <pt x="25" y="177" on="1"/>
        <pt x="25" y="281" on="0"/>
        <pt x="62" y="371" on="1"/>
        <pt x="82" y="418" on="0"/>
        <pt x="157" y="477" on="0"/>
        <pt x="236" y="477" on="0"/>
        <pt x="284" y="452" on="0"/>
        <pt x="313" y="421" on="0"/>
        <pt x="335" y="361" on="0"/>
        <pt x="344" y="323" on="0"/>
        <pt x="347" y="287" on="1"/>
        <pt x="351" y="239" on="0"/>
        <pt x="351" y="200" on="1"/>
        <pt x="271" y="178" on="0"/>
        <pt x="144" y="160" on="1"/>
        <pt x="147" y="120" on="0"/>
        <pt x="169" y="72" on="0"/>
      </contour>
      <contour>
        <pt x="206" y="379" on="1"/>
        <pt x="184" y="379" on="0"/>
        <pt x="149" y="291" on="0"/>
        <pt x="146" y="233" on="1"/>
        <pt x="199" y="244" on="0"/>
        <pt x="238" y="254" on="1"/>
        <pt x="238" y="379" on="0"/>
      </contour>
      <contour>
        <pt x="278" y="572" on="1"/>
        <pt x="233" y="515" on="1"/>
        <pt x="135" y="565" on="0"/>
        <pt x="40" y="588" on="1"/>
        <pt x="94" y="677" on="1"/>
        <pt x="165" y="646" on="0"/>
      </contour>
    </TTGlyph>
    <TTGlyph name="eight" xMin="54" yMin="-33" xMax="454" yMax="661">
      <contour>
        <pt x="172" y="-33" on="0"/>
        <pt x="54" y="73" on="0"/>
        <pt x="54" y="243" on="0"/>
        <pt x="134" y="315" on="1"/>
        <pt x="69" y="375" on="0"/>
        <pt x="69" y="537" on="0"/>
        <pt x="191" y="661" on="0"/>
        <pt x="355" y="661" on="0"/>
        <pt x="454" y="542" on="0"/>
        <pt x="454" y="480" on="1"/>
        <pt x="454" y="384" on="0"/>
        <pt x="361" y="313" on="1"/>
        <pt x="402" y="290" on="0"/>
        <pt x="453" y="212" on="0"/>
        <pt x="453" y="163" on="1"/>
        <pt x="453" y="91" on="0"/>
        <pt x="335" y="-33" on="0"/>
      </contour>
      <contour>
        <pt x="286" y="77" on="0"/>
        <pt x="333" y="117" on="0"/>
        <pt x="333" y="178" on="0"/>
        <pt x="301" y="222" on="0"/>
        <pt x="269" y="245" on="0"/>
        <pt x="242" y="260" on="1"/>
        <pt x="174" y="215" on="0"/>
        <pt x="174" y="156" on="1"/>
        <pt x="174" y="121" on="0"/>
        <pt x="222" y="77" on="0"/>
      </contour>
      <contour>
        <pt x="235" y="551" on="0"/>
        <pt x="189" y="502" on="0"/>
        <pt x="189" y="444" on="0"/>
        <pt x="222" y="388" on="0"/>
        <pt x="243" y="375" on="1"/>
        <pt x="286" y="401" on="0"/>
        <pt x="334" y="449" on="0"/>
        <pt x="334" y="502" on="0"/>
        <pt x="297" y="551" on="0"/>
      </contour>
    </TTGlyph>
    <TTGlyph name="ellipsis" xMin="87" yMin="-21" xMax="843" yMax="171">
      <contour>
        <pt x="225" y="159" on="1"/>
        <pt x="236" y="124" on="0"/>
        <pt x="236" y="15" on="0"/>
        <pt x="222" y="-21" on="1"/>
        <pt x="87" y="-10" on="1"/>
        <pt x="96" y="67" on="0"/>
        <pt x="96" y="147" on="0"/>
        <pt x="95" y="171" on="1"/>
      </contour>
      <contour>
        <pt x="528" y="159" on="1"/>
        <pt x="539" y="124" on="0"/>
        <pt x="539" y="15" on="0"/>
        <pt x="525" y="-21" on="1"/>
        <pt x="390" y="-10" on="1"/>
        <pt x="399" y="66" on="0"/>
        <pt x="399" y="147" on="0"/>
        <pt x="398" y="171" on="1"/>
      </contour>
      <contour>
        <pt x="832" y="159" on="1"/>
        <pt x="843" y="124" on="0"/>
        <pt x="843" y="15" on="0"/>
        <pt x="829" y="-21" on="1"/>
        <pt x="694" y="-10" on="1"/>
        <pt x="703" y="67" on="0"/>
        <pt x="703" y="147" on="0"/>
        <pt x="702" y="171" on="1"/>
      </contour>
    </TTGlyph>
    <TTGlyph name="emdash" xMin="0" yMin="185" xMax="1001" yMax="276">
      <contour>
        <pt x="0" y="268" on="1"/>
        <pt x="560" y="276" on="1"/>
        <pt x="834" y="276" on="0"/>
        <pt x="1001" y="265" on="1"/>
        <pt x="983" y="185" on="1"/>
        <pt x="827" y="196" on="0"/>
        <pt x="570" y="196" on="1"/>
        <pt x="0" y="188" on="1"/>
      </contour>
    </TTGlyph>
    <TTGlyph name="endash" xMin="0" yMin="185" xMax="501" yMax="276">
      <contour>
        <pt x="0" y="268" on="1"/>
        <pt x="260" y="276" on="1"/>
        <pt x="409" y="276" on="0"/>
        <pt x="501" y="265" on="1"/>
        <pt x="483" y="185" on="1"/>
        <pt x="402" y="196" on="0"/>
        <pt x="270" y="196" on="1"/>
        <pt x="0" y="188" on="1"/>
      </contour>
    </TTGlyph>
    <TTGlyph name="equal" xMin="123" yMin="122" xMax="720" yMax="472">
      <contour>
        <pt x="123" y="464" on="1"/>
        <pt x="479" y="472" on="1"/>
        <pt x="628" y="472" on="0"/>
        <pt x="720" y="461" on="1"/>
        <pt x="702" y="341" on="1"/>
        <pt x="621" y="352" on="0"/>
        <pt x="489" y="352" on="1"/>
        <pt x="123" y="344" on="1"/>
      </contour>
      <contour>
        <pt x="123" y="245" on="1"/>
        <pt x="479" y="253" on="1"/>
        <pt x="628" y="253" on="0"/>
        <pt x="720" y="242" on="1"/>
        <pt x="702" y="122" on="1"/>
        <pt x="621" y="133" on="0"/>
        <pt x="489" y="133" on="1"/>
        <pt x="123" y="125" on="1"/>
      </contour>
    </TTGlyph>
    <TTGlyph name="eth" xMin="17" yMin="-30" xMax="371" yMax="692">
      <contour>
        <pt x="371" y="414" on="0"/>
        <pt x="371" y="146" on="0"/>
        <pt x="249" y="-30" on="0"/>
        <pt x="94" y="-30" on="0"/>
        <pt x="17" y="90" on="0"/>
        <pt x="17" y="179" on="1"/>
        <pt x="17" y="231" on="0"/>
        <pt x="49" y="357" on="0"/>
        <pt x="119" y="459" on="0"/>
        <pt x="161" y="459" on="1"/>
        <pt x="187" y="459" on="0"/>
        <pt x="218" y="447" on="1"/>
        <pt x="198" y="493" on="0"/>
        <pt x="171" y="532" on="1"/>
        <pt x="106" y="505" on="0"/>
        <pt x="54" y="474" on="1"/>
        <pt x="31" y="531" on="1"/>
        <pt x="78" y="558" on="0"/>
        <pt x="131" y="583" on="1"/>
        <pt x="108" y="609" on="0"/>
        <pt x="84" y="630" on="1"/>
        <pt x="172" y="692" on="1"/>
        <pt x="213" y="644" on="0"/>
        <pt x="228" y="624" on="1"/>
        <pt x="273" y="641" on="0"/>
        <pt x="319" y="654" on="1"/>
        <pt x="351" y="591" on="1"/>
        <pt x="300" y="580" on="0"/>
        <pt x="268" y="569" on="1"/>
      </contour>
      <contour>
        <pt x="256" y="280" on="1"/>
        <pt x="256" y="313" on="0"/>
        <pt x="250" y="346" on="1"/>
        <pt x="212" y="364" on="0"/>
        <pt x="196" y="364" on="1"/>
        <pt x="169" y="364" on="0"/>
        <pt x="132" y="235" on="0"/>
        <pt x="132" y="179" on="1"/>
        <pt x="132" y="80" on="0"/>
        <pt x="178" y="80" on="1"/>
        <pt x="208" y="80" on="0"/>
        <pt x="256" y="194" on="0"/>
      </contour>
    </TTGlyph>
    <TTGlyph name="exclam" xMin="65" yMin="-23" xMax="241" yMax="731">
      <contour>
        <pt x="94" y="196" on="1"/>
        <pt x="76" y="345" on="0"/>
        <pt x="76" y="590" on="0"/>
        <pt x="95" y="731" on="1"/>
        <pt x="241" y="703" on="1"/>
        <pt x="191" y="509" on="0"/>
        <pt x="174" y="186" on="1"/>
      </contour>
      <contour>
        <pt x="189" y="134" on="1"/>
        <pt x="200" y="114" on="0"/>
        <pt x="200" y="14" on="0"/>
        <pt x="184" y="-23" on="1"/>
        <pt x="65" y="0" on="1"/>
        <pt x="75" y="37" on="0"/>
        <pt x="75" y="118" on="0"/>
        <pt x="73" y="146" on="1"/>
      </contour>
    </TTGlyph>
    <TTGlyph name="exclamdown" xMin="38" yMin="-23" xMax="214" yMax="731">
      <contour>
        <pt x="185" y="512" on="1"/>
        <pt x="203" y="363" on="0"/>
        <pt x="203" y="118" on="0"/>
        <pt x="184" y="-23" on="1"/>
        <pt x="38" y="5" on="1"/>
        <pt x="88" y="199" on="0"/>
        <pt x="105" y="522" on="1"/>
      </contour>
      <contour>
        <pt x="90" y="574" on="1"/>
        <pt x="79" y="594" on="0"/>
        <pt x="79" y="694" on="0"/>
        <pt x="95" y="731" on="1"/>
        <pt x="214" y="708" on="1"/>
        <pt x="204" y="671" on="0"/>
        <pt x="204" y="590" on="0"/>
        <pt x="206" y="562" on="1"/>
      </contour>
    </TTGlyph>
    <TTGlyph name="f" xMin="15" yMin="-17" xMax="346" yMax="735">
      <contour>
        <pt x="71" y="445" on="1"/>
        <pt x="71" y="580" on="0"/>
        <pt x="152" y="735" on="0"/>
        <pt x="279" y="735" on="0"/>
        <pt x="346" y="606" on="0"/>
        <pt x="346" y="493" on="1"/>
        <pt x="253" y="503" on="1"/>
        <pt x="253" y="615" on="0"/>
        <pt x="218" y="615" on="1"/>
        <pt x="188" y="615" on="0"/>
        <pt x="188" y="445" on="1"/>
        <pt x="188" y="416" on="1"/>
        <pt x="255" y="421" on="0"/>
        <pt x="297" y="421" on="1"/>
        <pt x="297" y="328" on="1"/>
        <pt x="228" y="328" on="0"/>
        <pt x="189" y="323" on="1"/>
        <pt x="189" y="170" on="0"/>
        <pt x="200" y="-17" on="1"/>
        <pt x="83" y="-5" on="1"/>
        <pt x="75" y="133" on="0"/>
        <pt x="72" y="307" on="1"/>
        <pt x="46" y="303" on="0"/>
        <pt x="36" y="300" on="1"/>
        <pt x="15" y="390" on="1"/>
        <pt x="25" y="393" on="0"/>
        <pt x="71" y="401" on="1"/>
      </contour>
    </TTGlyph>
    <TTGlyph name="fi" xMin="15" yMin="-17" xMax="463" yMax="735">
      <contour>
        <pt x="71" y="445" on="1"/>
        <pt x="71" y="580" on="0"/>
        <pt x="179" y="735" on="0"/>
        <pt x="350" y="735" on="0"/>
        <pt x="441" y="615" on="0"/>
        <pt x="441" y="513" on="1"/>
        <pt x="339" y="523" on="1"/>
        <pt x="339" y="564" on="0"/>
        <pt x="299" y="614" on="0"/>
        <pt x="232" y="614" on="0"/>
        <pt x="188" y="524" on="0"/>
        <pt x="188" y="445" on="1"/>
        <pt x="188" y="422" on="1"/>
        <pt x="269" y="426" on="0"/>
        <pt x="349" y="426" on="1"/>
        <pt x="463" y="415" on="1"/>
        <pt x="463" y="-14" on="1"/>
        <pt x="349" y="-3" on="1"/>
        <pt x="349" y="328" on="1"/>
        <pt x="249" y="328" on="0"/>
        <pt x="189" y="323" on="1"/>
        <pt x="189" y="162" on="0"/>
        <pt x="200" y="-17" on="1"/>
        <pt x="83" y="-5" on="1"/>
        <pt x="75" y="133" on="0"/>
        <pt x="72" y="307" on="1"/>
        <pt x="46" y="303" on="0"/>
        <pt x="36" y="300" on="1"/>
        <pt x="15" y="390" on="1"/>
        <pt x="21" y="392" on="0"/>
        <pt x="71" y="406" on="1"/>
      </contour>
    </TTGlyph>
    <TTGlyph name="five" xMin="86" yMin="-28" xMax="450" yMax="646">
      <contour>
        <pt x="424" y="646" on="1"/>
        <pt x="424" y="536" on="1"/>
        <pt x="344" y="536" on="0"/>
        <pt x="249" y="521" on="1"/>
        <pt x="248" y="511" on="0"/>
        <pt x="228" y="383" on="1"/>
        <pt x="330" y="383" on="0"/>
        <pt x="450" y="298" on="0"/>
        <pt x="450" y="220" on="1"/>
        <pt x="450" y="42" on="0"/>
        <pt x="121" y="-28" on="1"/>
        <pt x="93" y="80" on="1"/>
        <pt x="320" y="130" on="0"/>
        <pt x="320" y="210" on="1"/>
        <pt x="320" y="238" on="0"/>
        <pt x="261" y="274" on="0"/>
        <pt x="219" y="274" on="1"/>
        <pt x="206" y="274" on="0"/>
        <pt x="144" y="261" on="1"/>
        <pt x="86" y="307" on="1"/>
        <pt x="142" y="610" on="1"/>
        <pt x="309" y="646" on="0"/>
      </contour>
    </TTGlyph>
    <TTGlyph name="fl" xMin="15" yMin="-19" xMax="476" yMax="735">
      <contour>
        <pt x="71" y="445" on="1"/>
        <pt x="71" y="580" on="0"/>
        <pt x="179" y="735" on="0"/>
        <pt x="268" y="735" on="1"/>
        <pt x="331" y="735" on="0"/>
        <pt x="376" y="679" on="1"/>
        <pt x="379" y="729" on="1"/>
        <pt x="476" y="721" on="1"/>
        <pt x="461" y="468" on="0"/>
        <pt x="461" y="63" on="0"/>
        <pt x="466" y="-19" on="1"/>
        <pt x="348" y="-8" on="1"/>
        <pt x="344" y="96" on="0"/>
        <pt x="344" y="407" on="0"/>
        <pt x="348" y="539" on="1"/>
        <pt x="323" y="629" on="0"/>
        <pt x="268" y="629" on="1"/>
        <pt x="232" y="629" on="0"/>
        <pt x="188" y="531" on="0"/>
        <pt x="188" y="445" on="1"/>
        <pt x="188" y="417" on="1"/>
        <pt x="241" y="421" on="0"/>
        <pt x="297" y="421" on="1"/>
        <pt x="297" y="328" on="1"/>
        <pt x="228" y="328" on="0"/>
        <pt x="189" y="323" on="1"/>
        <pt x="189" y="162" on="0"/>
        <pt x="200" y="-17" on="1"/>
        <pt x="83" y="-5" on="1"/>
        <pt x="75" y="133" on="0"/>
        <pt x="72" y="307" on="1"/>
        <pt x="46" y="303" on="0"/>
        <pt x="36" y="300" on="1"/>
        <pt x="15" y="390" on="1"/>
        <pt x="25" y="393" on="0"/>
        <pt x="71" y="401" on="1"/>
      </contour>
    </TTGlyph>
    <TTGlyph name="florin" xMin="-59" yMin="-245" xMax="452" yMax="662">
      <contour>
        <pt x="343" y="662" on="1"/>
        <pt x="391" y="662" on="0"/>
        <pt x="452" y="584" on="0"/>
        <pt x="452" y="469" on="0"/>
        <pt x="436" y="414" on="1"/>
        <pt x="338" y="423" on="1"/>
        <pt x="345" y="447" on="0"/>
        <pt x="345" y="476" on="1"/>
        <pt x="345" y="535" on="0"/>
        <pt x="323" y="535" on="1"/>
        <pt x="300" y="535" on="0"/>
        <pt x="276" y="456" on="1"/>
        <pt x="263" y="416" on="0"/>
        <pt x="257" y="365" on="1"/>
        <pt x="250" y="307" on="1"/>
        <pt x="303" y="311" on="0"/>
        <pt x="362" y="311" on="1"/>
        <pt x="352" y="218" on="1"/>
        <pt x="280" y="218" on="0"/>
        <pt x="241" y="213" on="1"/>
        <pt x="227" y="49" on="0"/>
        <pt x="201" y="-138" on="0"/>
        <pt x="108" y="-245" on="0"/>
        <pt x="-13" y="-245" on="0"/>
        <pt x="-59" y="-185" on="1"/>
        <pt x="-14" y="-108" on="1"/>
        <pt x="21" y="-130" on="0"/>
        <pt x="42" y="-130" on="1"/>
        <pt x="83" y="-130" on="0"/>
        <pt x="98" y="-5" on="1"/>
        <pt x="103" y="34" on="0"/>
        <pt x="115" y="175" on="0"/>
        <pt x="117" y="197" on="1"/>
        <pt x="68" y="189" on="0"/>
        <pt x="41" y="180" on="1"/>
        <pt x="40" y="270" on="1"/>
        <pt x="68" y="280" on="0"/>
        <pt x="126" y="291" on="1"/>
        <pt x="136" y="365" on="1"/>
        <pt x="154" y="501" on="0"/>
        <pt x="272" y="662" on="0"/>
      </contour>
    </TTGlyph>
    <TTGlyph name="four" xMin="17" yMin="-30" xMax="459" yMax="652">
      <contour>
        <pt x="273" y="163" on="1"/>
        <pt x="238" y="163" on="0"/>
        <pt x="136" y="151" on="1"/>
        <pt x="17" y="232" on="1"/>
        <pt x="17" y="256" on="0"/>
        <pt x="206" y="593" on="0"/>
        <pt x="260" y="652" on="1"/>
        <pt x="425" y="636" on="1"/>
        <pt x="401" y="448" on="0"/>
        <pt x="395" y="273" on="1"/>
        <pt x="459" y="267" on="1"/>
        <pt x="445" y="162" on="1"/>
        <pt x="393" y="162" on="1"/>
        <pt x="393" y="48" on="0"/>
        <pt x="398" y="-30" on="1"/>
        <pt x="278" y="-20" on="1"/>
        <pt x="273" y="51" on="0"/>
      </contour>
      <contour>
        <pt x="166" y="267" on="1"/>
        <pt x="216" y="274" on="0"/>
        <pt x="274" y="274" on="1"/>
        <pt x="281" y="406" on="0"/>
        <pt x="298" y="521" on="1"/>
        <pt x="213" y="374" on="0"/>
      </contour>
    </TTGlyph>
    <TTGlyph name="fraction" xMin="14" yMin="-23" xMax="532" yMax="666">
      <contour>
        <pt x="91" y="-23" on="1"/>
        <pt x="14" y="6" on="1"/>
        <pt x="264" y="442" on="0"/>
        <pt x="468" y="666" on="1"/>
        <pt x="532" y="626" on="1"/>
        <pt x="416" y="496" on="0"/>
        <pt x="210" y="188" on="0"/>
      </contour>
    </TTGlyph>
    <TTGlyph name="franc" xMin="71" yMin="-23" xMax="727" yMax="688">
      <contour>
        <pt x="421" y="688" on="1"/>
        <pt x="421" y="565" on="1"/>
        <pt x="309" y="565" on="0"/>
        <pt x="211" y="558" on="1"/>
        <pt x="209" y="529" on="0"/>
        <pt x="206" y="382" on="0"/>
        <pt x="205" y="365" on="1"/>
        <pt x="317" y="380" on="0"/>
        <pt x="385" y="380" on="1"/>
        <pt x="405" y="270" on="1"/>
        <pt x="293" y="267" on="0"/>
        <pt x="204" y="256" on="1"/>
        <pt x="204" y="100" on="0"/>
        <pt x="208" y="-19" on="1"/>
        <pt x="73" y="-4" on="1"/>
        <pt x="71" y="158" on="0"/>
        <pt x="71" y="436" on="0"/>
        <pt x="87" y="662" on="1"/>
        <pt x="258" y="688" on="0"/>
      </contour>
      <contour>
        <pt x="661" y="361" on="1"/>
        <pt x="619" y="361" on="0"/>
        <pt x="598" y="255" on="1"/>
        <pt x="600" y="185" on="0"/>
        <pt x="600" y="57" on="0"/>
        <pt x="596" y="-23" on="1"/>
        <pt x="480" y="-13" on="1"/>
        <pt x="483" y="134" on="0"/>
        <pt x="483" y="149" on="1"/>
        <pt x="483" y="334" on="0"/>
        <pt x="465" y="432" on="1"/>
        <pt x="540" y="424" on="1"/>
        <pt x="547" y="395" on="0"/>
        <pt x="556" y="373" on="1"/>
        <pt x="605" y="478" on="0"/>
        <pt x="655" y="478" on="1"/>
        <pt x="696" y="478" on="0"/>
        <pt x="727" y="442" on="1"/>
        <pt x="701" y="350" on="1"/>
        <pt x="685" y="361" on="0"/>
      </contour>
    </TTGlyph>
    <TTGlyph name="g" xMin="18" yMin="-242" xMax="382" yMax="474">
      <contour>
        <pt x="193" y="-134" on="1"/>
        <pt x="224" y="-134" on="0"/>
        <pt x="262" y="-7" on="0"/>
        <pt x="262" y="87" on="1"/>
        <pt x="209" y="-8" on="0"/>
        <pt x="96" y="-8" on="0"/>
        <pt x="27" y="69" on="0"/>
        <pt x="27" y="226" on="0"/>
        <pt x="81" y="381" on="0"/>
        <pt x="160" y="474" on="0"/>
        <pt x="196" y="474" on="1"/>
        <pt x="259" y="474" on="0"/>
        <pt x="312" y="423" on="1"/>
        <pt x="382" y="413" on="1"/>
        <pt x="369" y="348" on="0"/>
        <pt x="369" y="79" on="0"/>
        <pt x="354" y="-48" on="0"/>
        <pt x="320" y="-170" on="0"/>
        <pt x="254" y="-242" on="0"/>
        <pt x="146" y="-242" on="0"/>
        <pt x="48" y="-155" on="0"/>
        <pt x="18" y="-94" on="1"/>
        <pt x="102" y="-58" on="1"/>
        <pt x="141" y="-134" on="0"/>
      </contour>
      <contour>
        <pt x="221" y="372" on="1"/>
        <pt x="196" y="372" on="0"/>
        <pt x="145" y="228" on="0"/>
        <pt x="145" y="147" on="1"/>
        <pt x="145" y="116" on="0"/>
        <pt x="162" y="84" on="0"/>
        <pt x="183" y="84" on="0"/>
        <pt x="217" y="124" on="0"/>
        <pt x="256" y="212" on="0"/>
        <pt x="265" y="265" on="1"/>
        <pt x="267" y="341" on="1"/>
        <pt x="238" y="372" on="0"/>
      </contour>
    </TTGlyph>
    <TTGlyph name="gbreve" xMin="18" yMin="-242" xMax="382" yMax="661">
      <contour>
        <pt x="193" y="-134" on="1"/>
        <pt x="224" y="-134" on="0"/>
        <pt x="262" y="-7" on="0"/>
        <pt x="262" y="87" on="1"/>
        <pt x="209" y="-8" on="0"/>
        <pt x="96" y="-8" on="0"/>
        <pt x="27" y="69" on="0"/>
        <pt x="27" y="226" on="0"/>
        <pt x="81" y="381" on="0"/>
        <pt x="160" y="474" on="0"/>
        <pt x="196" y="474" on="1"/>
        <pt x="259" y="474" on="0"/>
        <pt x="312" y="423" on="1"/>
        <pt x="382" y="413" on="1"/>
        <pt x="369" y="348" on="0"/>
        <pt x="369" y="79" on="0"/>
        <pt x="354" y="-48" on="0"/>
        <pt x="320" y="-170" on="0"/>
        <pt x="254" y="-242" on="0"/>
        <pt x="146" y="-242" on="0"/>
        <pt x="48" y="-155" on="0"/>
        <pt x="18" y="-94" on="1"/>
        <pt x="102" y="-58" on="1"/>
        <pt x="141" y="-134" on="0"/>
      </contour>
      <contour>
        <pt x="221" y="372" on="1"/>
        <pt x="196" y="372" on="0"/>
        <pt x="145" y="228" on="0"/>
        <pt x="145" y="147" on="1"/>
        <pt x="145" y="116" on="0"/>
        <pt x="162" y="84" on="0"/>
        <pt x="183" y="84" on="0"/>
        <pt x="217" y="124" on="0"/>
        <pt x="256" y="212" on="0"/>
        <pt x="265" y="265" on="1"/>
        <pt x="267" y="341" on="1"/>
        <pt x="238" y="372" on="0"/>
      </contour>
      <contour>
        <pt x="187" y="625" on="0"/>
        <pt x="213" y="593" on="0"/>
        <pt x="260" y="593" on="0"/>
        <pt x="298" y="633" on="0"/>
        <pt x="298" y="661" on="1"/>
        <pt x="373" y="655" on="1"/>
        <pt x="373" y="603" on="0"/>
        <pt x="289" y="521" on="0"/>
        <pt x="178" y="521" on="0"/>
        <pt x="112" y="595" on="0"/>
        <pt x="112" y="655" on="1"/>
        <pt x="187" y="649" on="1"/>
      </contour>
    </TTGlyph>
    <TTGlyph name="germandbls" xMin="15" yMin="-21" xMax="447" yMax="735">
      <contour>
        <pt x="72" y="307" on="1"/>
        <pt x="40" y="302" on="0"/>
        <pt x="36" y="300" on="1"/>
        <pt x="15" y="390" on="1"/>
        <pt x="25" y="393" on="0"/>
        <pt x="71" y="401" on="1"/>
        <pt x="71" y="445" on="1"/>
        <pt x="71" y="580" on="0"/>
        <pt x="163" y="735" on="0"/>
        <pt x="317" y="735" on="0"/>
        <pt x="406" y="615" on="0"/>
        <pt x="406" y="513" on="1"/>
        <pt x="406" y="459" on="0"/>
        <pt x="354" y="382" on="1"/>
        <pt x="337" y="356" on="0"/>
        <pt x="337" y="346" on="1"/>
        <pt x="337" y="307" on="0"/>
        <pt x="366" y="276" on="1"/>
        <pt x="431" y="211" on="0"/>
        <pt x="442" y="172" on="1"/>
        <pt x="447" y="152" on="0"/>
        <pt x="447" y="130" on="1"/>
        <pt x="447" y="59" on="0"/>
        <pt x="374" y="-21" on="0"/>
        <pt x="327" y="-21" on="1"/>
        <pt x="260" y="-21" on="0"/>
        <pt x="225" y="19" on="1"/>
        <pt x="269" y="90" on="1"/>
        <pt x="283" y="81" on="0"/>
        <pt x="313" y="81" on="0"/>
        <pt x="330" y="104" on="0"/>
        <pt x="330" y="123" on="1"/>
        <pt x="330" y="159" on="0"/>
        <pt x="285" y="198" on="0"/>
        <pt x="267" y="216" on="0"/>
        <pt x="252" y="235" on="1"/>
        <pt x="224" y="270" on="0"/>
        <pt x="224" y="374" on="0"/>
        <pt x="298" y="482" on="0"/>
        <pt x="298" y="508" on="1"/>
        <pt x="298" y="561" on="0"/>
        <pt x="266" y="625" on="0"/>
        <pt x="238" y="625" on="1"/>
        <pt x="213" y="625" on="0"/>
        <pt x="183" y="529" on="0"/>
        <pt x="183" y="445" on="1"/>
        <pt x="183" y="178" on="0"/>
        <pt x="195" y="8" on="0"/>
        <pt x="195" y="-17" on="1"/>
        <pt x="83" y="-5" on="1"/>
        <pt x="75" y="133" on="0"/>
      </contour>
    </TTGlyph>
    <TTGlyph name="grave" xMin="85" yMin="515" xMax="323" yMax="677">
      <contour>
        <pt x="323" y="572" on="1"/>
        <pt x="278" y="515" on="1"/>
        <pt x="180" y="565" on="0"/>
        <pt x="85" y="588" on="1"/>
        <pt x="139" y="677" on="1"/>
        <pt x="210" y="646" on="0"/>
      </contour>
    </TTGlyph>
    <TTGlyph name="grave.cap" xMin="55" yMin="766" xMax="293" yMax="928">
      <contour>
        <pt x="293" y="823" on="1"/>
        <pt x="248" y="766" on="1"/>
        <pt x="150" y="816" on="0"/>
        <pt x="55" y="839" on="1"/>
        <pt x="109" y="928" on="1"/>
        <pt x="180" y="897" on="0"/>
      </contour>
    </TTGlyph>
    <TTGlyph name="greater" xMin="128" yMin="14" xMax="705" yMax="595">
      <contour>
        <pt x="705" y="359" on="1"/>
        <pt x="694" y="250" on="1"/>
        <pt x="402" y="147" on="0"/>
        <pt x="158" y="14" on="1"/>
        <pt x="133" y="139" on="1"/>
        <pt x="329" y="236" on="0"/>
        <pt x="547" y="311" on="1"/>
        <pt x="327" y="425" on="0"/>
        <pt x="128" y="484" on="1"/>
        <pt x="154" y="595" on="1"/>
        <pt x="424" y="521" on="0"/>
      </contour>
    </TTGlyph>
    <TTGlyph name="greaterequal" xMin="123" yMin="-9" xMax="720" yMax="610">
      <contour>
        <pt x="123" y="104" on="1"/>
        <pt x="479" y="112" on="1"/>
        <pt x="628" y="112" on="0"/>
        <pt x="720" y="101" on="1"/>
        <pt x="702" y="-9" on="1"/>
        <pt x="621" y="2" on="0"/>
        <pt x="489" y="2" on="1"/>
        <pt x="123" y="-6" on="1"/>
      </contour>
      <contour>
        <pt x="705" y="434" on="1"/>
        <pt x="694" y="325" on="1"/>
        <pt x="384" y="237" on="0"/>
        <pt x="158" y="139" on="1"/>
        <pt x="133" y="264" on="1"/>
        <pt x="302" y="324" on="0"/>
        <pt x="547" y="386" on="1"/>
        <pt x="294" y="468" on="0"/>
        <pt x="128" y="499" on="1"/>
        <pt x="154" y="610" on="1"/>
        <pt x="429" y="553" on="0"/>
      </contour>
    </TTGlyph>
    <TTGlyph name="guillemotleft" xMin="28" yMin="4" xMax="455" yMax="425">
      <contour>
        <pt x="145" y="425" on="1"/>
        <pt x="250" y="400" on="1"/>
        <pt x="214" y="310" on="0"/>
        <pt x="156" y="218" on="1"/>
        <pt x="202" y="113" on="0"/>
        <pt x="255" y="45" on="1"/>
        <pt x="159" y="4" on="1"/>
        <pt x="92" y="81" on="0"/>
        <pt x="28" y="222" on="1"/>
        <pt x="105" y="329" on="0"/>
      </contour>
      <contour>
        <pt x="345" y="425" on="1"/>
        <pt x="450" y="400" on="1"/>
        <pt x="414" y="310" on="0"/>
        <pt x="356" y="218" on="1"/>
        <pt x="402" y="113" on="0"/>
        <pt x="455" y="45" on="1"/>
        <pt x="359" y="4" on="1"/>
        <pt x="292" y="81" on="0"/>
        <pt x="228" y="222" on="1"/>
        <pt x="305" y="329" on="0"/>
      </contour>
    </TTGlyph>
    <TTGlyph name="guillemotright" xMin="18" yMin="4" xMax="442" yMax="425">
      <contour>
        <pt x="128" y="4" on="1"/>
        <pt x="23" y="29" on="1"/>
        <pt x="59" y="119" on="0"/>
        <pt x="117" y="211" on="1"/>
        <pt x="71" y="316" on="0"/>
        <pt x="18" y="384" on="1"/>
        <pt x="114" y="425" on="1"/>
        <pt x="181" y="348" on="0"/>
        <pt x="245" y="207" on="1"/>
        <pt x="168" y="100" on="0"/>
      </contour>
      <contour>
        <pt x="325" y="4" on="1"/>
        <pt x="220" y="29" on="1"/>
        <pt x="256" y="119" on="0"/>
        <pt x="314" y="211" on="1"/>
        <pt x="268" y="316" on="0"/>
        <pt x="215" y="384" on="1"/>
        <pt x="311" y="425" on="1"/>
        <pt x="378" y="348" on="0"/>
        <pt x="442" y="207" on="1"/>
        <pt x="365" y="100" on="0"/>
      </contour>
    </TTGlyph>
    <TTGlyph name="guilsinglleft" xMin="28" yMin="4" xMax="255" yMax="425">
      <contour>
        <pt x="145" y="425" on="1"/>
        <pt x="250" y="400" on="1"/>
        <pt x="214" y="310" on="0"/>
        <pt x="156" y="218" on="1"/>
        <pt x="202" y="113" on="0"/>
        <pt x="255" y="45" on="1"/>
        <pt x="159" y="4" on="1"/>
        <pt x="92" y="81" on="0"/>
        <pt x="28" y="222" on="1"/>
        <pt x="105" y="329" on="0"/>
      </contour>
    </TTGlyph>
    <TTGlyph name="guilsinglright" xMin="18" yMin="4" xMax="245" yMax="425">
      <contour>
        <pt x="128" y="4" on="1"/>
        <pt x="23" y="29" on="1"/>
        <pt x="59" y="119" on="0"/>
        <pt x="117" y="211" on="1"/>
        <pt x="71" y="316" on="0"/>
        <pt x="18" y="384" on="1"/>
        <pt x="114" y="425" on="1"/>
        <pt x="181" y="348" on="0"/>
        <pt x="245" y="207" on="1"/>
        <pt x="168" y="100" on="0"/>
      </contour>
    </TTGlyph>
    <TTGlyph name="h" xMin="50" yMin="-15" xMax="393" yMax="721">
      <contour>
        <pt x="181" y="407" on="1"/>
        <pt x="227" y="464" on="0"/>
        <pt x="316" y="464" on="0"/>
        <pt x="344" y="434" on="1"/>
        <pt x="393" y="382" on="0"/>
        <pt x="393" y="302" on="1"/>
        <pt x="393" y="157" on="0"/>
        <pt x="382" y="-1" on="1"/>
        <pt x="266" y="10" on="1"/>
        <pt x="273" y="157" on="0"/>
        <pt x="273" y="299" on="1"/>
        <pt x="273" y="352" on="0"/>
        <pt x="246" y="352" on="1"/>
        <pt x="214" y="352" on="0"/>
        <pt x="177" y="212" on="1"/>
        <pt x="175" y="112" on="0"/>
        <pt x="167" y="-15" on="1"/>
        <pt x="50" y="-4" on="1"/>
        <pt x="63" y="168" on="0"/>
        <pt x="63" y="592" on="0"/>
        <pt x="56" y="721" on="1"/>
        <pt x="173" y="710" on="1"/>
        <pt x="181" y="569" on="0"/>
      </contour>
    </TTGlyph>
    <TTGlyph name="hbar" xMin="-5" yMin="-15" xMax="393" yMax="721">
      <contour>
        <pt x="63" y="417" on="1"/>
        <pt x="62" y="538" on="1"/>
        <pt x="43" y="537" on="0"/>
        <pt x="7" y="537" on="1"/>
        <pt x="-5" y="625" on="1"/>
        <pt x="38" y="625" on="0"/>
        <pt x="60" y="627" on="1"/>
        <pt x="56" y="721" on="1"/>
        <pt x="173" y="710" on="1"/>
        <pt x="176" y="634" on="1"/>
        <pt x="189" y="634" on="1"/>
        <pt x="218" y="634" on="0"/>
        <pt x="244" y="631" on="1"/>
        <pt x="248" y="543" on="1"/>
        <pt x="218" y="546" on="0"/>
        <pt x="189" y="546" on="1"/>
        <pt x="179" y="546" on="1"/>
        <pt x="181" y="454" on="0"/>
        <pt x="181" y="407" on="1"/>
        <pt x="227" y="464" on="0"/>
        <pt x="316" y="464" on="0"/>
        <pt x="344" y="434" on="1"/>
        <pt x="393" y="382" on="0"/>
        <pt x="393" y="302" on="1"/>
        <pt x="393" y="157" on="0"/>
        <pt x="382" y="-1" on="1"/>
        <pt x="266" y="10" on="1"/>
        <pt x="273" y="157" on="0"/>
        <pt x="273" y="299" on="1"/>
        <pt x="273" y="352" on="0"/>
        <pt x="246" y="352" on="1"/>
        <pt x="214" y="352" on="0"/>
        <pt x="177" y="212" on="1"/>
        <pt x="175" y="112" on="0"/>
        <pt x="167" y="-15" on="1"/>
        <pt x="50" y="-4" on="1"/>
        <pt x="63" y="168" on="0"/>
      </contour>
    </TTGlyph>
    <TTGlyph name="hungarumlaut" xMin="76" yMin="513" xMax="496" yMax="692">
      <contour>
        <pt x="131" y="515" on="1"/>
        <pt x="76" y="562" on="1"/>
        <pt x="158" y="648" on="0"/>
        <pt x="220" y="692" on="1"/>
        <pt x="294" y="623" on="1"/>
        <pt x="213" y="590" on="0"/>
      </contour>
      <contour>
        <pt x="320" y="513" on="1"/>
        <pt x="272" y="567" on="1"/>
        <pt x="362" y="640" on="0"/>
        <pt x="431" y="677" on="1"/>
        <pt x="496" y="598" on="1"/>
        <pt x="411" y="577" on="0"/>
      </contour>
    </TTGlyph>
    <TTGlyph name="hyphen" xMin="34" yMin="166" xMax="287" yMax="283">
      <contour>
        <pt x="34" y="274" on="1"/>
        <pt x="228" y="283" on="1"/>
        <pt x="258" y="283" on="0"/>
        <pt x="283" y="280" on="1"/>
        <pt x="287" y="172" on="1"/>
        <pt x="257" y="175" on="0"/>
        <pt x="228" y="175" on="1"/>
        <pt x="46" y="166" on="1"/>
      </contour>
    </TTGlyph>
    <TTGlyph name="i" xMin="67" yMin="-14" xMax="189" yMax="653">
      <contour>
        <pt x="69" y="477" on="1"/>
        <pt x="183" y="466" on="1"/>
        <pt x="183" y="-14" on="1"/>
        <pt x="69" y="-3" on="1"/>
      </contour>
      <contour>
        <pt x="77" y="653" on="1"/>
        <pt x="189" y="640" on="1"/>
        <pt x="179" y="528" on="1"/>
        <pt x="67" y="542" on="1"/>
      </contour>
    </TTGlyph>
    <TTGlyph name="iacute" xMin="62" yMin="-14" xMax="300" yMax="677">
      <contour>
        <pt x="69" y="477" on="1"/>
        <pt x="183" y="466" on="1"/>
        <pt x="183" y="-14" on="1"/>
        <pt x="69" y="-3" on="1"/>
      </contour>
      <contour>
        <pt x="107" y="515" on="1"/>
        <pt x="62" y="572" on="1"/>
        <pt x="175" y="646" on="0"/>
        <pt x="246" y="677" on="1"/>
        <pt x="300" y="588" on="1"/>
        <pt x="205" y="565" on="0"/>
      </contour>
    </TTGlyph>
    <TTGlyph name="icircumflex" xMin="-28" yMin="-14" xMax="269" yMax="672">
      <contour>
        <pt x="69" y="477" on="1"/>
        <pt x="183" y="466" on="1"/>
        <pt x="183" y="-14" on="1"/>
        <pt x="69" y="-3" on="1"/>
      </contour>
      <contour>
        <pt x="100" y="672" on="1"/>
        <pt x="168" y="667" on="1"/>
        <pt x="199" y="637" on="0"/>
        <pt x="269" y="552" on="1"/>
        <pt x="211" y="508" on="1"/>
        <pt x="159" y="554" on="0"/>
        <pt x="130" y="578" on="1"/>
        <pt x="80" y="543" on="0"/>
        <pt x="30" y="499" on="1"/>
        <pt x="-28" y="542" on="1"/>
        <pt x="44" y="623" on="0"/>
      </contour>
    </TTGlyph>
    <TTGlyph name="idieresis" xMin="-8" yMin="-14" xMax="256" yMax="659">
      <contour>
        <pt x="69" y="477" on="1"/>
        <pt x="183" y="466" on="1"/>
        <pt x="183" y="-14" on="1"/>
        <pt x="69" y="-3" on="1"/>
      </contour>
      <contour>
        <pt x="90" y="649" on="1"/>
        <pt x="101" y="633" on="0"/>
        <pt x="101" y="549" on="0"/>
        <pt x="87" y="527" on="1"/>
        <pt x="-8" y="537" on="1"/>
        <pt x="1" y="586" on="0"/>
        <pt x="1" y="639" on="0"/>
        <pt x="0" y="657" on="1"/>
      </contour>
      <contour>
        <pt x="245" y="651" on="1"/>
        <pt x="256" y="635" on="0"/>
        <pt x="256" y="551" on="0"/>
        <pt x="242" y="529" on="1"/>
        <pt x="147" y="539" on="1"/>
        <pt x="156" y="588" on="0"/>
        <pt x="156" y="641" on="0"/>
        <pt x="155" y="659" on="1"/>
      </contour>
    </TTGlyph>
    <TTGlyph name="igrave" xMin="-38" yMin="-14" xMax="200" yMax="677">
      <contour>
        <pt x="69" y="477" on="1"/>
        <pt x="183" y="466" on="1"/>
        <pt x="183" y="-14" on="1"/>
        <pt x="69" y="-3" on="1"/>
      </contour>
      <contour>
        <pt x="200" y="572" on="1"/>
        <pt x="155" y="515" on="1"/>
        <pt x="57" y="565" on="0"/>
        <pt x="-38" y="588" on="1"/>
        <pt x="16" y="677" on="1"/>
        <pt x="87" y="646" on="0"/>
      </contour>
    </TTGlyph>
    <TTGlyph name="ij" xMin="67" yMin="-245" xMax="440" yMax="653">
      <contour>
        <pt x="69" y="477" on="1"/>
        <pt x="183" y="466" on="1"/>
        <pt x="183" y="-14" on="1"/>
        <pt x="69" y="-3" on="1"/>
      </contour>
      <contour>
        <pt x="77" y="653" on="1"/>
        <pt x="189" y="640" on="1"/>
        <pt x="179" y="528" on="1"/>
        <pt x="67" y="542" on="1"/>
      </contour>
      <contour>
        <pt x="439" y="-5" on="1"/>
        <pt x="439" y="-120" on="0"/>
        <pt x="361" y="-245" on="0"/>
        <pt x="306" y="-245" on="1"/>
        <pt x="282" y="-245" on="0"/>
        <pt x="211" y="-207" on="0"/>
        <pt x="185" y="-175" on="1"/>
        <pt x="220" y="-98" on="1"/>
        <pt x="259" y="-128" on="0"/>
        <pt x="298" y="-128" on="0"/>
        <pt x="327" y="-69" on="0"/>
        <pt x="327" y="-15" on="1"/>
        <pt x="327" y="326" on="0"/>
        <pt x="322" y="468" on="1"/>
        <pt x="430" y="457" on="1"/>
        <pt x="439" y="306" on="0"/>
      </contour>
      <contour>
        <pt x="328" y="653" on="1"/>
        <pt x="440" y="640" on="1"/>
        <pt x="430" y="528" on="1"/>
        <pt x="318" y="542" on="1"/>
      </contour>
    </TTGlyph>
    <TTGlyph name="increment" xMin="35" yMin="-45" xMax="616" yMax="692">
      <contour>
        <pt x="439" y="676" on="1"/>
        <pt x="616" y="-24" on="1"/>
        <pt x="173" y="-45" on="1"/>
        <pt x="35" y="-33" on="1"/>
        <pt x="254" y="692" on="1"/>
      </contour>
      <contour>
        <pt x="337" y="561" on="1"/>
        <pt x="203" y="72" on="1"/>
        <pt x="450" y="82" on="1"/>
      </contour>
    </TTGlyph>
    <TTGlyph name="infinity" xMin="75" yMin="102" xMax="749" yMax="502">
      <contour>
        <pt x="411" y="422" on="1"/>
        <pt x="481" y="502" on="0"/>
        <pt x="646" y="502" on="0"/>
        <pt x="749" y="384" on="0"/>
        <pt x="749" y="221" on="0"/>
        <pt x="628" y="103" on="0"/>
        <pt x="558" y="103" on="1"/>
        <pt x="464" y="103" on="0"/>
        <pt x="413" y="195" on="1"/>
        <pt x="344" y="102" on="0"/>
        <pt x="251" y="102" on="1"/>
        <pt x="195" y="102" on="0"/>
        <pt x="138" y="146" on="1"/>
        <pt x="111" y="168" on="0"/>
        <pt x="75" y="243" on="0"/>
        <pt x="75" y="289" on="1"/>
        <pt x="75" y="365" on="0"/>
        <pt x="196" y="487" on="0"/>
        <pt x="353" y="487" on="0"/>
      </contour>
      <contour>
        <pt x="639" y="335" on="0"/>
        <pt x="602" y="382" on="0"/>
        <pt x="548" y="382" on="0"/>
        <pt x="511" y="351" on="0"/>
        <pt x="494" y="322" on="0"/>
        <pt x="481" y="296" on="1"/>
        <pt x="519" y="223" on="0"/>
        <pt x="565" y="223" on="1"/>
        <pt x="598" y="223" on="0"/>
        <pt x="639" y="271" on="0"/>
      </contour>
      <contour>
        <pt x="334" y="332" on="0"/>
        <pt x="285" y="367" on="0"/>
        <pt x="231" y="367" on="0"/>
        <pt x="185" y="321" on="0"/>
        <pt x="185" y="259" on="0"/>
        <pt x="231" y="222" on="0"/>
        <pt x="255" y="222" on="1"/>
        <pt x="298" y="222" on="0"/>
        <pt x="346" y="308" on="1"/>
      </contour>
    </TTGlyph>
    <TTGlyph name="integral" xMin="71" yMin="-125" xMax="426" yMax="742">
      <contour>
        <pt x="288" y="465" on="0"/>
        <pt x="326" y="188" on="0"/>
        <pt x="326" y="-4" on="0"/>
        <pt x="248" y="-125" on="0"/>
        <pt x="130" y="-125" on="0"/>
        <pt x="71" y="-39" on="0"/>
        <pt x="71" y="35" on="1"/>
        <pt x="154" y="28" on="1"/>
        <pt x="154" y="-18" on="0"/>
        <pt x="179" y="-18" on="1"/>
        <pt x="209" y="-18" on="0"/>
        <pt x="209" y="102" on="1"/>
        <pt x="209" y="181" on="0"/>
        <pt x="171" y="456" on="0"/>
        <pt x="171" y="633" on="0"/>
        <pt x="249" y="742" on="0"/>
        <pt x="368" y="742" on="0"/>
        <pt x="426" y="660" on="0"/>
        <pt x="426" y="586" on="1"/>
        <pt x="343" y="593" on="1"/>
        <pt x="343" y="635" on="0"/>
        <pt x="318" y="635" on="1"/>
        <pt x="288" y="635" on="0"/>
        <pt x="288" y="535" on="1"/>
      </contour>
    </TTGlyph>
    <TTGlyph name="itilde" xMin="-32" yMin="-14" xMax="268" yMax="651">
      <contour>
        <pt x="69" y="477" on="1"/>
        <pt x="183" y="466" on="1"/>
        <pt x="183" y="-14" on="1"/>
        <pt x="69" y="-3" on="1"/>
      </contour>
      <contour>
        <pt x="265" y="606" on="0"/>
        <pt x="207" y="535" on="0"/>
        <pt x="148" y="535" on="0"/>
        <pt x="92" y="553" on="0"/>
        <pt x="51" y="553" on="0"/>
        <pt x="28" y="530" on="1"/>
        <pt x="-32" y="562" on="1"/>
        <pt x="8" y="647" on="0"/>
        <pt x="61" y="647" on="1"/>
        <pt x="82" y="647" on="0"/>
        <pt x="142" y="619" on="0"/>
        <pt x="156" y="619" on="1"/>
        <pt x="184" y="619" on="0"/>
        <pt x="208" y="651" on="1"/>
        <pt x="268" y="646" on="1"/>
      </contour>
    </TTGlyph>
    <TTGlyph name="j" xMin="-51" yMin="-245" xMax="204" yMax="653">
      <contour>
        <pt x="203" y="-5" on="1"/>
        <pt x="203" y="-120" on="0"/>
        <pt x="125" y="-245" on="0"/>
        <pt x="70" y="-245" on="1"/>
        <pt x="46" y="-245" on="0"/>
        <pt x="-25" y="-207" on="0"/>
        <pt x="-51" y="-175" on="1"/>
        <pt x="-16" y="-98" on="1"/>
        <pt x="23" y="-128" on="0"/>
        <pt x="62" y="-128" on="0"/>
        <pt x="91" y="-69" on="0"/>
        <pt x="91" y="-15" on="1"/>
        <pt x="91" y="326" on="0"/>
        <pt x="86" y="468" on="1"/>
        <pt x="194" y="457" on="1"/>
        <pt x="203" y="306" on="0"/>
      </contour>
      <contour>
        <pt x="92" y="653" on="1"/>
        <pt x="204" y="640" on="1"/>
        <pt x="194" y="528" on="1"/>
        <pt x="82" y="542" on="1"/>
      </contour>
    </TTGlyph>
    <TTGlyph name="jcircumflex" xMin="-51" yMin="-245" xMax="268" yMax="672">
      <contour>
        <pt x="203" y="-5" on="1"/>
        <pt x="203" y="-120" on="0"/>
        <pt x="136" y="-245" on="0"/>
        <pt x="90" y="-245" on="1"/>
        <pt x="63" y="-245" on="0"/>
        <pt x="-21" y="-201" on="0"/>
        <pt x="-51" y="-165" on="1"/>
        <pt x="-16" y="-88" on="1"/>
        <pt x="23" y="-118" on="0"/>
        <pt x="62" y="-118" on="0"/>
        <pt x="91" y="-64" on="0"/>
        <pt x="91" y="-15" on="1"/>
        <pt x="91" y="326" on="0"/>
        <pt x="86" y="468" on="1"/>
        <pt x="194" y="457" on="1"/>
        <pt x="203" y="306" on="0"/>
      </contour>
      <contour>
        <pt x="99" y="672" on="1"/>
        <pt x="167" y="667" on="1"/>
        <pt x="198" y="637" on="0"/>
        <pt x="268" y="552" on="1"/>
        <pt x="210" y="508" on="1"/>
        <pt x="158" y="554" on="0"/>
        <pt x="129" y="578" on="1"/>
        <pt x="79" y="543" on="0"/>
        <pt x="29" y="499" on="1"/>
        <pt x="-29" y="542" on="1"/>
        <pt x="43" y="623" on="0"/>
      </contour>
    </TTGlyph>
    <TTGlyph name="k" xMin="59" yMin="-23" xMax="416" yMax="731">
      <contour>
        <pt x="63" y="-8" on="1"/>
        <pt x="59" y="96" on="0"/>
        <pt x="59" y="504" on="0"/>
        <pt x="74" y="731" on="1"/>
        <pt x="191" y="722" on="1"/>
        <pt x="176" y="477" on="0"/>
        <pt x="176" y="250" on="1"/>
        <pt x="280" y="377" on="0"/>
        <pt x="332" y="497" on="1"/>
        <pt x="412" y="427" on="1"/>
        <pt x="367" y="322" on="0"/>
        <pt x="292" y="219" on="1"/>
        <pt x="370" y="128" on="0"/>
        <pt x="416" y="49" on="1"/>
        <pt x="340" y="-23" on="1"/>
        <pt x="286" y="61" on="0"/>
        <pt x="176" y="176" on="1"/>
        <pt x="176" y="65" on="0"/>
        <pt x="180" y="-19" on="1"/>
      </contour>
    </TTGlyph>
</ttFont>
